<?xml version="1.0" encoding="utf-8"?>
<!-- Generator: Adobe Illustrator 25.1.0, SVG Export Plug-In . SVG Version: 6.00 Build 0)  -->
<svg version="1.1" id="Layer_1" xmlns="http://www.w3.org/2000/svg" xmlns:xlink="http://www.w3.org/1999/xlink" x="0px" y="0px"
	 viewBox="0 0 56.7 56.7" style="enable-background:new 0 0 56.7 56.7;" xml:space="preserve">
<style type="text/css">
	.st0{fill:#FFFFFF;}
</style>
<g>
	<path d="M32.6,2.7c4.5,0.2,8.7,2.9,11,6.8c0.4-0.7,0.8-1.3,1.2-2c-4.6,0.4-9.2-0.7-13.1-3.1c-1.2-0.7-2.5,0.7-1.8,1.8
		c0.5,0.8,0.7,1.4,0.9,2.4c0.3,1.4,0.1,2.9-0.4,4.3c-0.4,1.1-1.1,1.9-1.9,2.7c-0.2,0.2-0.3,0.3-0.5,0.4c-0.1,0-0.3,0.2-0.1,0.1
		c-0.1,0-0.1,0.1-0.2,0.1c-0.2,0.1-0.4,0.3-0.6,0.4c0.6,0.2,1.2,0.3,1.8,0.5c-1.8-3.4-2.3-7.5-1.2-11.4c0.4-1.4-1.3-2.1-2.2-1.3
		c-0.1,0.1-0.2,0.2-0.4,0.3c-0.1,0.1-0.2,0.1-0.3,0.2c-0.2,0.2,0.1,0-0.1,0.1c-0.4,0.3-0.8,0.6-1.2,0.9c-1,0.6-2.1,1.2-3.2,1.6
		c-2.7,1-5.7,1.1-8.5,0.4c0.3,0.7,0.5,1.3,0.8,2c1.4-2.9,4-4.7,7.1-5.6c0.6-0.2,1.3-0.3,2-0.5c0.7-0.1,0.9-0.2,1.6-0.2
		c0.9-0.1,1.9,0,2.7-0.1c1.1-0.2,2.1-0.5,3.2-0.6C30.4,2.7,31.5,2.7,32.6,2.7c1.7,0.1,1.7-2.6,0-2.7c-2.1-0.1-4.3,0-6.4,0.5
		c-0.2,0-0.4,0.1-0.6,0.1c0.2,0,0,0-0.1,0c-0.2,0-0.4,0-0.6,0c-0.5,0-1,0-1.5,0.1c-3,0.3-6.1,1-8.7,2.7c-1.8,1.2-3.3,2.9-4.3,4.9
		c-0.4,0.7-0.1,1.8,0.8,2c5.8,1.4,11.7-0.2,16.2-4.1c-0.7-0.4-1.5-0.9-2.2-1.3c-1.3,4.5-0.7,9.3,1.5,13.4c0.3,0.6,1.2,0.8,1.8,0.5
		c2-1.2,3.6-3.1,4.4-5.2c1.1-2.9,0.8-6.2-0.8-8.8c-0.6,0.6-1.2,1.2-1.8,1.8c4.3,2.6,9.4,3.9,14.5,3.5c1-0.1,1.7-1.1,1.2-2
		C43.2,3.4,38.1,0.3,32.6,0C30.9,0,30.9,2.6,32.6,2.7z"/>
	<path d="M32.6,2.7c5.3-0.1,10.6,0.8,14.8,3.9c0.1,0,0.3,0.2,0,0c0.1,0.1,0.1,0.1,0.2,0.2C47.8,6.9,48,7,48.1,7.1
		c0.2,0.2,0.5,0.4,0.7,0.6c0.4,0.4,0.7,0.8,1,1.2c1.6,2,2.5,4.6,2.7,7c0.6,5.7-1.1,11.5-3.4,16.7c-2.2,4.9-5,9.5-8.3,13.7
		c-1.9,2.4-4,4.8-6.8,6.3c-2.6,1.3-5.6,1.4-8.2,0.2c-4.6-2.1-7.8-6.4-10.7-10.3c-2.2-3-4.3-6.1-6-9.4c-2.3-4.3-4.3-9.2-4.6-14.1
		c0-0.6-0.1-1.2,0-1.8c0-0.6,0.1-1.4,0.1-1.7c0.2-1.1,0.5-2.4,0.9-3.2c1-2.4,2.8-4.4,4.9-5.7c4-2.6,8.9-3.3,13.5-3.3
		c0.6,0,1.3,0,1.9,0.1c1.7,0.1,1.7-2.6,0-2.7c-4.4-0.2-9,0.2-13.1,1.8C9.8,3.6,7.2,5.2,5.2,7.6C3.5,9.7,2.4,12.2,2,14.9
		c-0.8,5.5,0.8,11,3,16.1c1.8,4.1,4.2,8,6.8,11.7c2.8,3.8,5.7,7.8,9.5,10.7c2.5,1.9,5.7,3.3,8.9,3.1c3.6-0.2,6.6-2,9.1-4.4
		c2.2-2.1,4.1-4.6,5.9-7.1c1.6-2.3,3-4.7,4.3-7.1c2.9-5.5,5.3-11.7,5.7-18c0.3-5.1-1-10.4-4.7-14C47.3,2.6,42.7,1,38.3,0.4
		C36.4,0.1,34.5,0,32.6,0C30.9,0.1,30.9,2.8,32.6,2.7L32.6,2.7z"/>
	<path d="M12,13.9c0,0.1,0.1,0.1,0.1,0.2c0,0,0,0.1,0,0.1c0,0,0,0.1,0-0.1c0,0,0,0.1,0,0.1c0,0.1,0.1,0.2,0.1,0.3c0,0,0,0.2,0,0.1
		c0-0.1,0,0,0,0c0,0,0,0.1,0,0.1c0,0.1,0,0.1,0,0.2c0,0.1,0-0.2,0,0c0,0,0,0.1,0,0.1c0,0.1,0,0.1,0,0.2c0,0,0,0,0,0.1
		c0.1-0.2,0-0.1,0,0c0,0.1-0.1,0.2-0.2,0.3c0,0-0.1,0.1,0,0c0.1-0.1,0,0,0,0c0,0,0,0,0,0c-0.1,0.1,0.1-0.1,0.1,0c0,0-0.1,0-0.1,0
		c0,0,0.2-0.1,0.1,0c0,0,0.2,0,0.1,0c0.1,0,0.2,0,0.1,0c0.1,0,0.2,0.1,0.1,0c0.1,0.1,0.1,0.1,0.1,0.1c0,0-0.1-0.1,0,0
		c0.1,0.1,0,0,0,0c0,0,0-0.1-0.1-0.1c0-0.1,0.1,0.2,0,0.1c0,0,0,0,0-0.1c0,0,0-0.1,0-0.1c0,0,0-0.1,0-0.1c0,0.1,0,0.1,0,0.1
		c0,0,0,0,0-0.1c0-0.1,0-0.1,0-0.2c0-0.1,0,0.2,0,0.1c0,0,0-0.1,0-0.1c0,0,0-0.1,0-0.1c0-0.1,0.1-0.2,0,0c0-0.1,0.1-0.2,0.1-0.3
		c0.1-0.1,0.1-0.2,0.2-0.3c0,0,0.1-0.1-0.1,0.1c0,0,0,0,0.1-0.1c0,0,0.1-0.1,0.1-0.1c0.1-0.1,0.2-0.2,0.2-0.2c0.3-0.2,0.3-0.7,0-0.9
		c-0.3-0.3-0.7-0.3-0.9,0c-0.7,0.6-1.3,1.6-1,2.6c0.2,0.6,0.6,1.2,1.3,1c0.4-0.1,0.6-0.4,0.8-0.7c0.2-0.3,0.3-0.6,0.3-0.9
		c0.1-0.7-0.1-1.3-0.4-1.9C13,13,12.6,12.8,12.3,13C12,13.2,11.8,13.6,12,13.9z"/>
	<path d="M22.5,18.7c0,0.1,0.1,0.1,0.1,0.2c0,0,0,0.1,0,0.1c0,0,0,0.1,0-0.1c0,0,0,0.1,0,0.1c0,0.1,0.1,0.2,0.1,0.3c0,0,0,0.2,0,0.1
		c0-0.1,0,0,0,0c0,0,0,0.1,0,0.1c0,0.1,0,0.1,0,0.2c0,0.1,0-0.2,0,0c0,0,0,0.1,0,0.1c0,0.1,0,0.1,0,0.2c0,0,0,0,0,0.1
		c0.1-0.2,0-0.1,0,0c0,0.1-0.1,0.2-0.2,0.3c0,0-0.1,0.1,0,0c0.1-0.1,0,0,0,0c0,0,0,0,0,0c-0.1,0.1,0.1-0.1,0.1,0c0,0-0.1,0-0.1,0
		c0,0,0.2-0.1,0.1,0c0,0,0.2,0,0.1,0c0.1,0,0.2,0,0.1,0c0.1,0,0.2,0.1,0.1,0c0.1,0.1,0.1,0.1,0.1,0.1c0,0-0.1-0.1,0,0
		c0.1,0.1,0,0,0,0c0,0,0-0.1-0.1-0.1c0-0.1,0.1,0.2,0,0.1c0,0,0,0,0-0.1c0,0,0-0.1,0-0.1c0,0,0-0.1,0-0.1c0,0.1,0,0.1,0,0.1
		c0,0,0,0,0-0.1c0-0.1,0-0.1,0-0.2c0-0.1,0,0.2,0,0.1c0,0,0-0.1,0-0.1c0,0,0-0.1,0-0.1c0-0.1,0.1-0.2,0,0c0-0.1,0.1-0.2,0.1-0.3
		c0.1-0.1,0.1-0.2,0.2-0.3c0,0,0.1-0.1-0.1,0.1c0,0,0,0,0.1-0.1c0,0,0.1-0.1,0.1-0.1c0.1-0.1,0.2-0.2,0.2-0.2c0.3-0.2,0.3-0.7,0-0.9
		c-0.3-0.3-0.7-0.3-0.9,0c-0.7,0.6-1.3,1.6-1,2.6c0.2,0.6,0.6,1.2,1.3,1c0.4-0.1,0.6-0.4,0.8-0.7c0.2-0.3,0.3-0.6,0.3-0.9
		c0.1-0.7-0.1-1.3-0.4-1.9c-0.2-0.3-0.6-0.4-0.9-0.2C22.4,17.9,22.3,18.3,22.5,18.7z"/>
	<path d="M20.6,12.7c0,0.1,0.1,0.1,0.1,0.2c0,0,0,0.1,0,0.1c0,0,0,0.1,0-0.1c0,0,0,0.1,0,0.1c0,0.1,0.1,0.2,0.1,0.3c0,0,0,0.2,0,0.1
		c0-0.1,0,0,0,0c0,0,0,0.1,0,0.1c0,0.1,0,0.1,0,0.2c0,0.1,0-0.2,0,0c0,0,0,0.1,0,0.1c0,0.1,0,0.1,0,0.2c0,0,0,0,0,0.1
		c0.1-0.2,0-0.1,0,0c0,0.1-0.1,0.2-0.2,0.3c0,0-0.1,0.1,0,0c0.1-0.1,0,0,0,0c0,0,0,0,0,0c-0.1,0.1,0.1-0.1,0.1,0c0,0-0.1,0-0.1,0
		c0,0,0.2-0.1,0.1,0c0,0,0.2,0,0.1,0c0.1,0,0.2,0,0.1,0c0.1,0,0.2,0.1,0.1,0c0.1,0.1,0.1,0.1,0.1,0.1c0,0-0.1-0.1,0,0
		c0.1,0.1,0,0,0,0c0,0,0-0.1-0.1-0.1c0-0.1,0.1,0.2,0,0.1c0,0,0,0,0-0.1c0,0,0-0.1,0-0.1c0,0,0-0.1,0-0.1c0,0.1,0,0.1,0,0.1
		c0,0,0,0,0-0.1c0-0.1,0-0.1,0-0.2c0-0.1,0,0.2,0,0.1c0,0,0-0.1,0-0.1c0,0,0-0.1,0-0.1c0-0.1,0.1-0.2,0,0c0-0.1,0.1-0.2,0.1-0.3
		c0.1-0.1,0.1-0.2,0.2-0.3c0,0,0.1-0.1-0.1,0.1c0,0,0,0,0.1-0.1c0,0,0.1-0.1,0.1-0.1c0.1-0.1,0.2-0.2,0.2-0.2c0.3-0.2,0.3-0.7,0-0.9
		c-0.3-0.3-0.7-0.3-0.9,0c-0.7,0.6-1.3,1.6-1,2.6c0.2,0.6,0.6,1.2,1.3,1c0.4-0.1,0.6-0.4,0.8-0.7c0.2-0.3,0.3-0.6,0.3-0.9
		c0.1-0.7-0.1-1.3-0.4-1.9c-0.2-0.3-0.6-0.4-0.9-0.2C20.5,12,20.4,12.4,20.6,12.7z"/>
	<path d="M31.5,20.4c0,0.1,0.1,0.1,0.1,0.2c0,0,0,0.1,0,0.1c0,0,0,0.1,0-0.1c0,0,0,0.1,0,0.1c0,0.1,0.1,0.2,0.1,0.3c0,0,0,0.2,0,0.1
		c0-0.1,0,0,0,0c0,0,0,0.1,0,0.1c0,0.1,0,0.1,0,0.2c0,0.1,0-0.2,0,0c0,0,0,0.1,0,0.1c0,0.1,0,0.1,0,0.2c0,0,0,0,0,0.1
		c0.1-0.2,0-0.1,0,0c0,0.1-0.1,0.2-0.2,0.3c0,0-0.1,0.1,0,0c0.1-0.1,0,0,0,0c0,0,0,0,0,0c-0.1,0.1,0.1-0.1,0.1,0c0,0-0.1,0-0.1,0
		c0,0,0.2-0.1,0.1,0c0,0,0.2,0,0.1,0c0.1,0,0.2,0,0.1,0c0.1,0,0.2,0.1,0.1,0C32,22,32,22,31.9,22c0,0-0.1-0.1,0,0c0.1,0.1,0,0,0,0
		c0,0,0-0.1-0.1-0.1c0-0.1,0.1,0.2,0,0.1c0,0,0,0,0-0.1c0,0,0-0.1,0-0.1c0,0,0-0.1,0-0.1c0,0.1,0,0.1,0,0.1c0,0,0,0,0-0.1
		c0-0.1,0-0.1,0-0.2c0-0.1,0,0.2,0,0.1c0,0,0-0.1,0-0.1c0,0,0-0.1,0-0.1c0-0.1,0.1-0.2,0,0c0-0.1,0.1-0.2,0.1-0.3
		c0.1-0.1,0.1-0.2,0.2-0.3c0,0,0.1-0.1-0.1,0.1c0,0,0,0,0.1-0.1c0,0,0.1-0.1,0.1-0.1c0.1-0.1,0.2-0.2,0.2-0.2c0.3-0.2,0.3-0.7,0-0.9
		c-0.3-0.3-0.7-0.3-0.9,0c-0.7,0.6-1.3,1.6-1,2.6c0.2,0.6,0.6,1.2,1.3,1c0.4-0.1,0.6-0.4,0.8-0.7c0.2-0.3,0.3-0.6,0.3-0.9
		c0.1-0.7-0.1-1.3-0.4-1.9c-0.2-0.3-0.6-0.4-0.9-0.2C31.5,19.7,31.3,20.1,31.5,20.4z"/>
	<path d="M35.7,12.8c0,0.1,0.1,0.1,0.1,0.2c0,0,0,0.1,0,0.1c0,0,0,0.1,0-0.1c0,0,0,0.1,0,0.1c0,0.1,0.1,0.2,0.1,0.3c0,0,0,0.2,0,0.1
		c0-0.1,0,0,0,0c0,0,0,0.1,0,0.1c0,0.1,0,0.1,0,0.2c0,0.1,0-0.2,0,0c0,0,0,0.1,0,0.1c0,0.1,0,0.1,0,0.2c0,0,0,0,0,0.1
		c0.1-0.2,0-0.1,0,0c0,0.1-0.1,0.2-0.2,0.3c0,0-0.1,0.1,0,0c0.1-0.1,0,0,0,0c0,0,0,0,0,0c-0.1,0.1,0.1-0.1,0.1,0c0,0-0.1,0-0.1,0
		c0,0,0.2-0.1,0.1,0c0,0,0.2,0,0.1,0c0.1,0,0.2,0,0.1,0c0.1,0,0.2,0.1,0.1,0c0.1,0.1,0.1,0.1,0.1,0.1c0,0-0.1-0.1,0,0
		c0.1,0.1,0,0,0,0c0,0,0-0.1-0.1-0.1c0-0.1,0.1,0.2,0,0.1c0,0,0,0,0-0.1c0,0,0-0.1,0-0.1c0,0,0-0.1,0-0.1c0,0.1,0,0.1,0,0.1
		c0,0,0,0,0-0.1c0-0.1,0-0.1,0-0.2c0-0.1,0,0.2,0,0.1c0,0,0-0.1,0-0.1c0,0,0-0.1,0-0.1c0-0.1,0.1-0.2,0,0c0-0.1,0.1-0.2,0.1-0.3
		c0.1-0.1,0.1-0.2,0.2-0.3c0,0,0.1-0.1-0.1,0.1c0,0,0,0,0.1-0.1c0,0,0.1-0.1,0.1-0.1c0.1-0.1,0.2-0.2,0.2-0.2c0.3-0.2,0.3-0.7,0-0.9
		c-0.3-0.3-0.7-0.3-0.9,0c-0.7,0.6-1.3,1.6-1,2.6c0.2,0.6,0.6,1.2,1.3,1c0.4-0.1,0.6-0.4,0.8-0.7c0.2-0.3,0.3-0.6,0.3-0.9
		c0.1-0.7-0.1-1.3-0.4-1.9c-0.2-0.3-0.6-0.4-0.9-0.2C35.7,12.1,35.5,12.5,35.7,12.8z"/>
	<path d="M40.5,22.5c0,0.1,0.1,0.1,0.1,0.2c0,0,0,0.1,0,0.1c0,0,0,0.1,0-0.1c0,0,0,0.1,0,0.1c0,0.1,0.1,0.2,0.1,0.3c0,0,0,0.2,0,0.1
		c0-0.1,0,0,0,0c0,0,0,0.1,0,0.1c0,0.1,0,0.1,0,0.2c0,0.1,0-0.2,0,0c0,0,0,0.1,0,0.1c0,0.1,0,0.1,0,0.2c0,0,0,0,0,0.1
		c0.1-0.2,0-0.1,0,0c0,0.1-0.1,0.2-0.2,0.3c0,0-0.1,0.1,0,0c0.1-0.1,0,0,0,0c0,0,0,0,0,0c-0.1,0.1,0.1-0.1,0.1,0c0,0-0.1,0-0.1,0
		c0,0,0.2-0.1,0.1,0c0,0,0.2,0,0.1,0c0.1,0,0.2,0,0.1,0c0.1,0,0.2,0.1,0.1,0c0.1,0.1,0.1,0.1,0.1,0.1c0,0-0.1-0.1,0,0
		c0.1,0.1,0,0,0,0c0,0,0-0.1-0.1-0.1c0-0.1,0.1,0.2,0,0.1c0,0,0,0,0-0.1c0,0,0-0.1,0-0.1c0,0,0-0.1,0-0.1c0,0.1,0,0.1,0,0.1
		c0,0,0,0,0-0.1c0-0.1,0-0.1,0-0.2c0-0.1,0,0.2,0,0.1c0,0,0-0.1,0-0.1c0,0,0-0.1,0-0.1c0-0.1,0.1-0.2,0,0c0-0.1,0.1-0.2,0.1-0.3
		c0.1-0.1,0.1-0.2,0.2-0.3c0,0,0.1-0.1-0.1,0.1c0,0,0,0,0.1-0.1c0,0,0.1-0.1,0.1-0.1c0.1-0.1,0.2-0.2,0.2-0.2c0.3-0.2,0.3-0.7,0-0.9
		c-0.3-0.3-0.7-0.3-0.9,0c-0.7,0.6-1.3,1.6-1,2.6c0.2,0.6,0.6,1.2,1.3,1c0.4-0.1,0.6-0.4,0.8-0.7c0.2-0.3,0.3-0.6,0.3-0.9
		c0.1-0.7-0.1-1.3-0.4-1.9c-0.2-0.3-0.6-0.4-0.9-0.2C40.4,21.8,40.3,22.2,40.5,22.5z"/>
	<path d="M43.6,13.3c0,0.1,0.1,0.1,0.1,0.2c0,0,0,0.1,0,0.1c0,0,0,0.1,0-0.1c0,0,0,0.1,0,0.1c0,0.1,0.1,0.2,0.1,0.3c0,0,0,0.2,0,0.1
		c0-0.1,0,0,0,0c0,0,0,0.1,0,0.1c0,0.1,0,0.1,0,0.2c0,0.1,0-0.2,0,0c0,0,0,0.1,0,0.1c0,0.1,0,0.1,0,0.2c0,0,0,0,0,0.1
		c0.1-0.2,0-0.1,0,0c0,0.1-0.1,0.2-0.2,0.3c0,0-0.1,0.1,0,0c0.1-0.1,0,0,0,0c0,0,0,0,0,0c-0.1,0.1,0.1-0.1,0.1,0c0,0-0.1,0-0.1,0
		c0,0,0.2-0.1,0.1,0c0,0,0.2,0,0.1,0c0.1,0,0.2,0,0.1,0c0.1,0,0.2,0.1,0.1,0c0.1,0.1,0.1,0.1,0.1,0.1c0,0-0.1-0.1,0,0
		c0.1,0.1,0,0,0,0c0,0,0-0.1-0.1-0.1c0-0.1,0.1,0.2,0,0.1c0,0,0,0,0-0.1c0,0,0-0.1,0-0.1c0,0,0-0.1,0-0.1c0,0.1,0,0.1,0,0.1
		c0,0,0,0,0-0.1c0-0.1,0-0.1,0-0.2c0-0.1,0,0.2,0,0.1c0,0,0-0.1,0-0.1c0,0,0-0.1,0-0.1c0-0.1,0.1-0.2,0,0c0-0.1,0.1-0.2,0.1-0.3
		c0.1-0.1,0.1-0.2,0.2-0.3c0,0,0.1-0.1-0.1,0.1c0,0,0,0,0.1-0.1c0,0,0.1-0.1,0.1-0.1c0.1-0.1,0.2-0.2,0.2-0.2c0.3-0.2,0.3-0.7,0-0.9
		c-0.3-0.3-0.7-0.3-0.9,0c-0.7,0.6-1.3,1.6-1,2.6c0.2,0.6,0.6,1.2,1.3,1c0.4-0.1,0.6-0.4,0.8-0.7c0.2-0.3,0.3-0.6,0.3-0.9
		c0.1-0.7-0.1-1.3-0.4-1.9c-0.2-0.3-0.6-0.4-0.9-0.2C43.5,12.6,43.4,13,43.6,13.3z"/>
	<path d="M47.3,22.5c0,0.1,0.1,0.1,0.1,0.2c0,0,0,0.1,0,0.1c0,0,0,0.1,0-0.1c0,0,0,0.1,0,0.1c0,0.1,0.1,0.2,0.1,0.3c0,0,0,0.2,0,0.1
		c0-0.1,0,0,0,0c0,0,0,0.1,0,0.1c0,0.1,0,0.1,0,0.2c0,0.1,0-0.2,0,0c0,0,0,0.1,0,0.1c0,0.1,0,0.1,0,0.2c0,0,0,0,0,0.1
		c0.1-0.2,0-0.1,0,0c0,0.1-0.1,0.2-0.2,0.3c0,0-0.1,0.1,0,0c0.1-0.1,0,0,0,0c0,0,0,0,0,0c-0.1,0.1,0.1-0.1,0.1,0c0,0-0.1,0-0.1,0
		c0,0,0.2-0.1,0.1,0c0,0,0.2,0,0.1,0c0.1,0,0.2,0,0.1,0c0.1,0,0.2,0.1,0.1,0c0.1,0.1,0.1,0.1,0.1,0.1c0,0-0.1-0.1,0,0
		c0.1,0.1,0,0,0,0c0,0,0-0.1-0.1-0.1c0-0.1,0.1,0.2,0,0.1c0,0,0,0,0-0.1c0,0,0-0.1,0-0.1c0,0,0-0.1,0-0.1c0,0.1,0,0.1,0,0.1
		c0,0,0,0,0-0.1c0-0.1,0-0.1,0-0.2c0-0.1,0,0.2,0,0.1c0,0,0-0.1,0-0.1c0,0,0-0.1,0-0.1c0-0.1,0.1-0.2,0,0c0-0.1,0.1-0.2,0.1-0.3
		c0.1-0.1,0.1-0.2,0.2-0.3c0,0,0.1-0.1-0.1,0.1c0,0,0,0,0.1-0.1c0,0,0.1-0.1,0.1-0.1c0.1-0.1,0.2-0.2,0.2-0.2c0.3-0.2,0.3-0.7,0-0.9
		c-0.3-0.3-0.7-0.3-0.9,0c-0.7,0.6-1.3,1.6-1,2.6c0.2,0.6,0.6,1.2,1.3,1c0.4-0.1,0.6-0.4,0.8-0.7c0.2-0.3,0.3-0.6,0.3-0.9
		c0.1-0.7-0.1-1.3-0.4-1.9c-0.2-0.3-0.6-0.4-0.9-0.2C47.2,21.8,47.1,22.2,47.3,22.5z"/>
	<path d="M28.8,33.4c0,0.1,0.1,0.1,0.1,0.2c0,0,0,0.1,0,0.1c0,0,0,0.1,0-0.1c0,0,0,0.1,0,0.1c0,0.1,0.1,0.2,0.1,0.3c0,0,0,0.2,0,0.1
		c0-0.1,0,0,0,0c0,0,0,0.1,0,0.1c0,0.1,0,0.1,0,0.2c0,0.1,0-0.2,0,0c0,0,0,0.1,0,0.1c0,0.1,0,0.1,0,0.2c0,0,0,0,0,0.1
		c0.1-0.2,0-0.1,0,0c0,0.1-0.1,0.2-0.2,0.3c0,0-0.1,0.1,0,0c0.1-0.1,0,0,0,0c0,0,0,0,0,0c-0.1,0.1,0.1-0.1,0.1,0c0,0-0.1,0-0.1,0
		c0,0,0.2-0.1,0.1,0c0,0,0.2,0,0.1,0c0.1,0,0.2,0,0.1,0c0.1,0,0.2,0.1,0.1,0c0.1,0.1,0.1,0.1,0.1,0.1c0,0-0.1-0.1,0,0
		c0.1,0.1,0,0,0,0c0,0,0-0.1-0.1-0.1c0-0.1,0.1,0.2,0,0.1c0,0,0,0,0-0.1c0,0,0-0.1,0-0.1c0,0,0-0.1,0-0.1c0,0.1,0,0.1,0,0.1
		c0,0,0,0,0-0.1c0-0.1,0-0.1,0-0.2c0-0.1,0,0.2,0,0.1c0,0,0-0.1,0-0.1c0,0,0-0.1,0-0.1c0-0.1,0.1-0.2,0,0c0-0.1,0.1-0.2,0.1-0.3
		c0.1-0.1,0.1-0.2,0.2-0.3c0,0,0.1-0.1-0.1,0.1c0,0,0,0,0.1-0.1c0,0,0.1-0.1,0.1-0.1c0.1-0.1,0.2-0.2,0.2-0.2c0.3-0.2,0.3-0.7,0-0.9
		c-0.3-0.3-0.7-0.3-0.9,0c-0.7,0.6-1.3,1.6-1,2.6c0.2,0.6,0.6,1.2,1.3,1c0.4-0.1,0.6-0.4,0.8-0.7c0.2-0.3,0.3-0.6,0.3-0.9
		c0.1-0.7-0.1-1.3-0.4-1.9c-0.2-0.3-0.6-0.4-0.9-0.2C28.8,32.6,28.7,33,28.8,33.4z"/>
	<path d="M15.3,35.9c0,0.1,0.1,0.1,0.1,0.2c0,0,0,0.1,0,0.1c0,0,0,0.1,0-0.1c0,0,0,0.1,0,0.1c0,0.1,0.1,0.2,0.1,0.3c0,0,0,0.2,0,0.1
		c0-0.1,0,0,0,0c0,0,0,0.1,0,0.1c0,0.1,0,0.1,0,0.2c0,0.1,0-0.2,0,0c0,0,0,0.1,0,0.1c0,0.1,0,0.1,0,0.2c0,0,0,0,0,0.1
		c0.1-0.2,0-0.1,0,0c0,0.1-0.1,0.2-0.2,0.3c0,0-0.1,0.1,0,0c0.1-0.1,0,0,0,0c0,0,0,0,0,0c-0.1,0.1,0.1-0.1,0.1,0c0,0-0.1,0-0.1,0
		c0,0,0.2-0.1,0.1,0c0,0,0.2,0,0.1,0c0.1,0,0.2,0,0.1,0c0.1,0,0.2,0.1,0.1,0c0.1,0.1,0.1,0.1,0.1,0.1c0,0-0.1-0.1,0,0
		c0.1,0.1,0,0,0,0c0,0,0-0.1-0.1-0.1c0-0.1,0.1,0.2,0,0.1c0,0,0,0,0-0.1c0,0,0-0.1,0-0.1c0,0,0-0.1,0-0.1c0,0.1,0,0.1,0,0.1
		c0,0,0,0,0-0.1c0-0.1,0-0.1,0-0.2c0-0.1,0,0.2,0,0.1c0,0,0-0.1,0-0.1c0,0,0-0.1,0-0.1c0-0.1,0.1-0.2,0,0c0-0.1,0.1-0.2,0.1-0.3
		c0.1-0.1,0.1-0.2,0.2-0.3c0,0,0.1-0.1-0.1,0.1c0,0,0,0,0.1-0.1c0,0,0.1-0.1,0.1-0.1c0.1-0.1,0.2-0.2,0.2-0.2c0.3-0.2,0.3-0.7,0-0.9
		c-0.3-0.3-0.7-0.3-0.9,0c-0.7,0.6-1.3,1.6-1,2.6c0.2,0.6,0.6,1.2,1.3,1c0.4-0.1,0.6-0.4,0.8-0.7c0.2-0.3,0.3-0.6,0.3-0.9
		c0.1-0.7-0.1-1.3-0.4-1.9c-0.2-0.3-0.6-0.4-0.9-0.2C15.3,35.1,15.2,35.5,15.3,35.9z"/>
	<path d="M11.7,25.9c0,0.1,0.1,0.1,0.1,0.2c0,0,0,0.1,0,0.1c0,0,0,0.1,0-0.1c0,0,0,0.1,0,0.1c0,0.1,0.1,0.2,0.1,0.3c0,0,0,0.2,0,0.1
		c0-0.1,0,0,0,0c0,0,0,0.1,0,0.1c0,0.1,0,0.1,0,0.2c0,0.1,0-0.2,0,0c0,0,0,0.1,0,0.1c0,0.1,0,0.1,0,0.2c0,0,0,0,0,0.1
		c0.1-0.2,0-0.1,0,0c0,0.1-0.1,0.2-0.2,0.3c0,0-0.1,0.1,0,0c0.1-0.1,0,0,0,0c0,0,0,0,0,0c-0.1,0.1,0.1-0.1,0.1,0c0,0-0.1,0-0.1,0
		c0,0,0.2-0.1,0.1,0c0,0,0.2,0,0.1,0c0.1,0,0.2,0,0.1,0c0.1,0,0.2,0.1,0.1,0c0.1,0.1,0.1,0.1,0.1,0.1c0,0-0.1-0.1,0,0
		c0.1,0.1,0,0,0,0c0,0,0-0.1-0.1-0.1c0-0.1,0.1,0.2,0,0.1c0,0,0,0,0-0.1c0,0,0-0.1,0-0.1c0,0,0-0.1,0-0.1c0,0.1,0,0.1,0,0.1
		c0,0,0,0,0-0.1c0-0.1,0-0.1,0-0.2c0-0.1,0,0.2,0,0.1c0,0,0-0.1,0-0.1c0,0,0-0.1,0-0.1c0-0.1,0.1-0.2,0,0c0-0.1,0.1-0.2,0.1-0.3
		c0.1-0.1,0.1-0.2,0.2-0.3c0,0,0.1-0.1-0.1,0.1c0,0,0,0,0.1-0.1c0,0,0.1-0.1,0.1-0.1c0.1-0.1,0.2-0.2,0.2-0.2c0.3-0.2,0.3-0.7,0-0.9
		c-0.3-0.3-0.7-0.3-0.9,0c-0.7,0.6-1.3,1.6-1,2.6c0.2,0.6,0.6,1.2,1.3,1c0.4-0.1,0.6-0.4,0.8-0.7c0.2-0.3,0.3-0.6,0.3-0.9
		c0.1-0.7-0.1-1.3-0.4-1.9c-0.2-0.3-0.6-0.4-0.9-0.2C11.6,25.2,11.5,25.6,11.7,25.9z"/>
	<path d="M44.4,34.7c0,0.1,0.1,0.1,0.1,0.2c0,0,0,0.1,0,0.1c0,0,0,0.1,0-0.1c0,0,0,0.1,0,0.1c0,0.1,0.1,0.2,0.1,0.3c0,0,0,0.2,0,0.1
		c0-0.1,0,0,0,0c0,0,0,0.1,0,0.1c0,0.1,0,0.1,0,0.2c0,0.1,0-0.2,0,0c0,0,0,0.1,0,0.1c0,0.1,0,0.1,0,0.2c0,0,0,0,0,0.1
		c0.1-0.2,0-0.1,0,0c0,0.1-0.1,0.2-0.2,0.3c0,0-0.1,0.1,0,0c0.1-0.1,0,0,0,0c0,0,0,0,0,0c-0.1,0.1,0.1-0.1,0.1,0c0,0-0.1,0-0.1,0
		c0,0,0.2-0.1,0.1,0c0,0,0.2,0,0.1,0c0.1,0,0.2,0,0.1,0c0.1,0,0.2,0.1,0.1,0c0.1,0.1,0.1,0.1,0.1,0.1c0,0-0.1-0.1,0,0
		c0.1,0.1,0,0,0,0c0,0,0-0.1-0.1-0.1c0-0.1,0.1,0.2,0,0.1c0,0,0,0,0-0.1c0,0,0-0.1,0-0.1c0,0,0-0.1,0-0.1c0,0.1,0,0.1,0,0.1
		c0,0,0,0,0-0.1c0-0.1,0-0.1,0-0.2c0-0.1,0,0.2,0,0.1c0,0,0-0.1,0-0.1c0,0,0-0.1,0-0.1c0-0.1,0.1-0.2,0,0c0-0.1,0.1-0.2,0.1-0.3
		c0.1-0.1,0.1-0.2,0.2-0.3c0,0,0.1-0.1-0.1,0.1c0,0,0,0,0.1-0.1c0,0,0.1-0.1,0.1-0.1c0.1-0.1,0.2-0.2,0.2-0.2c0.3-0.2,0.3-0.7,0-0.9
		c-0.3-0.3-0.7-0.3-0.9,0c-0.7,0.6-1.3,1.6-1,2.6c0.2,0.6,0.6,1.2,1.3,1c0.4-0.1,0.6-0.4,0.8-0.7c0.2-0.3,0.3-0.6,0.3-0.9
		c0.1-0.7-0.1-1.3-0.4-1.9c-0.2-0.3-0.6-0.4-0.9-0.2C44.4,34,44.2,34.4,44.4,34.7z"/>
	<path d="M23.8,26.8c2.7-1.7,6.2-1.7,8.9-0.1c0.7,0.4,1.4-0.7,0.7-1.2c-3.1-1.9-7.2-1.8-10.3,0.1C22.4,26.1,23.1,27.3,23.8,26.8
		L23.8,26.8z"/>
	<g>
		<path d="M23.7,23.4c0.3,0.8,0.5,1.8,0.6,3.1c0.1,3-1,5.2-1.5,6.1c-3.9,0.1-6.9-0.1-9-0.3c-0.9-0.1-1.4-0.2-1.7-0.2
			c-3.2-0.5-5.7-1.5-7.4-2.4c-0.8-1.3-1.6-3-2.4-5c-1.1-2.7-1.6-5.3-2-7.3c3.4-0.2,8-0.1,13.3,1.5C17.7,20,21.1,21.8,23.7,23.4z"/>
	</g>
	<g>
		<path d="M33,23.4c-0.3,0.8-0.5,1.8-0.6,3.1c-0.1,3,1,5.2,1.5,6.1c3.9,0.1,6.9-0.1,9-0.3c0.9-0.1,1.4-0.2,1.7-0.2
			c3.2-0.5,5.7-1.5,7.4-2.4c0.8-1.3,1.6-3,2.4-5c1.1-2.7,1.6-5.3,2-7.3c-3.4-0.2-8-0.1-13.3,1.5C39,20,35.6,21.8,33,23.4z"/>
	</g>
	<path class="st0" d="M38.7,24.8c1.7-0.8,3.5-1.6,5.2-2.4c0.3-0.1,0.4-0.6,0.2-0.9c-0.2-0.3-0.6-0.4-0.9-0.2
		c-1.7,0.8-3.5,1.6-5.2,2.4c-0.3,0.1-0.4,0.6-0.2,0.9C38,24.9,38.4,24.9,38.7,24.8L38.7,24.8z"/>
	<path class="st0" d="M39.7,28.5c3.9-2.1,7.8-4.3,11.7-6.6c0.7-0.4,0.1-1.6-0.7-1.2c-3.9,2.3-7.8,4.5-11.7,6.6
		C38.2,27.8,38.9,28.9,39.7,28.5L39.7,28.5z"/>
	<path class="st0" d="M44.1,29.7c1.2-0.7,2.5-1.4,3.7-2c0.3-0.2,0.4-0.6,0.2-0.9c-0.2-0.3-0.6-0.4-0.9-0.2c-1.2,0.7-2.5,1.4-3.7,2
		c-0.3,0.2-0.4,0.6-0.2,0.9C43.4,29.8,43.7,29.9,44.1,29.7L44.1,29.7z"/>
	<path class="st0" d="M7.6,25c1.5-0.4,2.9-0.9,4.3-1.5c0.3-0.1,0.6-0.4,0.5-0.8c-0.1-0.3-0.5-0.6-0.8-0.5c-1.4,0.6-2.8,1.1-4.3,1.5
		c-0.3,0.1-0.6,0.5-0.5,0.8C6.9,24.9,7.2,25.1,7.6,25L7.6,25z"/>
	<path class="st0" d="M9.5,27.7c3.1-0.9,6.3-1.7,9.4-2.6c0.8-0.2,0.5-1.5-0.4-1.3c-3.1,0.9-6.3,1.7-9.4,2.6
		C8.3,26.7,8.7,28,9.5,27.7L9.5,27.7z"/>
	<path class="st0" d="M14.7,30c1.3-0.5,2.6-1,3.9-1.5c0.3-0.1,0.6-0.5,0.5-0.8c-0.1-0.3-0.5-0.6-0.8-0.5c-1.3,0.5-2.6,1-3.9,1.5
		c-0.3,0.1-0.6,0.5-0.5,0.8C14,29.8,14.4,30.1,14.7,30L14.7,30z"/>
	<path d="M20.5,43.4c0.9,3.7,3.9,6.5,7.7,6.9c2.1,0.2,4.3-0.2,6.1-1.4c1.6-1,2.5-2.4,3.2-4.1c0.9-2.5,1.7-5.1,2.1-7.8
		c0.1-0.6-0.6-1.2-1.1-0.7c-4.4,4.7-10.8,7-17.2,6.2c-0.9-0.1-0.8,1.2,0,1.3c6.7,0.8,13.5-1.6,18.2-6.5c-0.4-0.2-0.7-0.4-1.1-0.7
		c-0.3,2.1-0.8,4.1-1.5,6.1c-0.5,1.6-1,3.2-2.2,4.4c-2.9,2.6-7.8,2.5-10.6-0.2c-1-1.1-1.8-2.4-2.1-3.9
		C21.6,42.2,20.3,42.6,20.5,43.4z"/>
	<path d="M37.7,36.5c0.1,0,0.2,0,0.4,0c0,0,0.1,0,0.2,0c-0.1,0-0.1,0,0,0c0,0,0,0,0,0c0.2,0,0.5,0.1,0.7,0.2c0.1,0,0.1,0,0.2,0.1
		c0,0,0.1,0,0.1,0c-0.1,0-0.1,0,0,0c0.1,0,0.2,0.1,0.3,0.2c0.1,0.1,0.2,0.1,0.3,0.2c0.1,0,0.1,0.1,0.2,0.1c0,0,0.2,0.2,0.1,0
		c0.1,0.1,0.3,0.2,0.5,0.2c0.2,0,0.4-0.1,0.5-0.2c0.2-0.2,0.3-0.7,0-0.9c-0.9-0.7-2-1.1-3.2-1.1c-0.3,0-0.7,0.3-0.7,0.7
		C37.1,36.2,37.3,36.5,37.7,36.5L37.7,36.5z"/>
</g>
</svg>
