<?xml version="1.0" encoding="utf-8"?>
<!-- Generator: Adobe Illustrator 24.3.0, SVG Export Plug-In . SVG Version: 6.00 Build 0)  -->
<svg version="1.1" id="Layer_1" xmlns="http://www.w3.org/2000/svg" xmlns:xlink="http://www.w3.org/1999/xlink" x="0px" y="0px"
	 viewBox="0 0 56.7 56.7" style="enable-background:new 0 0 56.7 56.7;" xml:space="preserve">
<g>
	<path d="M36.4,38.4c-0.6,0-1.2-0.1-1.8-0.2c-2.8-0.6-4.7-2.7-5.7-4.3c-1.2,1.1-2.8,1.8-4.4,2.1c-2.1,0.4-4.3-0.1-5.9-1.2
		c-2-1.5-3.2-4.1-3.1-6.8c-1.6-0.1-3-0.8-4.2-1.8c-1.4-1.2-2.3-2.9-2.2-4.6c0-2.4,1.8-4.6,4.3-5.7c-0.9-3.3,0.1-6.8,2.5-8.7
		c1.7-1.3,4-1.8,6.3-1.4c1.9,0.4,3.7,1.4,5,2.8c2.4-2.6,6-3.6,9-2.4c1.9,0.8,3.1,2.2,3.8,3.5C42.6,8,46,7.9,48.6,9.6
		c1.7,1.2,2.7,3,3,5.1c0.2,1.5-0.1,3-0.8,4.4c2,1.1,3.5,2.7,4.3,4.6c0.7,1.7,0.8,3.4,0.2,4.7c-1.1,2.5-5,4-9.2,2.9
		C44.3,35.5,40.4,38.4,36.4,38.4z M29.6,27.9l1.1,2.8c0.1,0.2,1.5,3.8,4.6,4.5c3,0.7,7.1-1.5,8.5-6.2l0.5-1.7l1.6,0.7
		c3.3,1.4,6.2,0.3,6.7-0.8c0.2-0.4,0.2-1.1-0.2-2.2c-0.3-0.8-1.4-2.7-4.3-3.7l-2.2-0.7l1.6-1.8c0.9-1,1.3-2.3,1.2-3.7
		c-0.1-1.2-0.8-2.3-1.7-3c-1.9-1.3-4.6-0.7-6.1,1.2l-2.1,2.8l-0.7-3.4c0-0.1-0.6-2.8-2.8-3.7c-2-0.8-4.9,0.1-6.5,2.9l-1.3,2.4
		L26,12.1c-0.9-1.6-2.5-2.8-4.3-3.1c-1.4-0.3-2.9,0-3.8,0.8c-1.5,1.2-2.3,4-1,6.7l0.9,1.9l-2.1,0.3c-2.1,0.3-3.5,1.9-3.5,3.1
		c0,0.7,0.4,1.5,1.2,2.2c1,0.9,2.3,1.2,3.7,1l2.4-0.4l-0.6,2.3c-0.6,2.2,0.1,4.4,1.6,5.5c0.9,0.7,2.2,0.9,3.5,0.7
		c1.6-0.3,3-1.2,4-2.6L29.6,27.9z"/>
	<path d="M12.7,41.3c-1.1,0-2.1-0.3-3-0.9c-1-0.7-1.7-1.6-1.9-2.7c-0.4-2.3,1.4-4.4,3.4-5.1l0,0c1.4-0.5,3.1-0.4,4.5,0.3
		c1.1,0.6,1.8,1.4,2.1,2.5c0.3,1,0.1,2.1-0.5,3.1c-0.7,1.2-2,2.2-3.3,2.6C13.6,41.2,13.1,41.3,12.7,41.3z M13,35.4
		c-0.3,0-0.6,0-0.8,0.1v0c-0.8,0.3-1.5,1.1-1.4,1.6c0.1,0.3,0.3,0.5,0.5,0.6c0.5,0.3,1.3,0.5,1.9,0.3c0.6-0.1,1.1-0.6,1.4-1.1
		c0.2-0.3,0.2-0.6,0.2-0.8c-0.1-0.3-0.4-0.5-0.5-0.5C13.9,35.5,13.5,35.4,13,35.4z"/>
	<path d="M4.6,45.8c-0.8,0-1.5-0.3-2.2-0.8c-1-0.7-1.5-1.7-1.5-2.8c0.1-0.8,0.5-1.5,1.2-2.1c0.8-0.7,1.9-1,2.9-0.8h0
		c1,0.2,2.3,0.9,2.7,2.3c0.5,1.7-0.7,3.3-2,3.9C5.4,45.8,5,45.8,4.6,45.8z M4.2,42.5c0.1,0.1,0.3,0.2,0.4,0.2c0,0,0.1-0.1,0.1-0.2
		c0,0-0.1-0.1-0.2-0.1l0,0C4.4,42.4,4.3,42.5,4.2,42.5z"/>
</g>
</svg>
