<?xml version="1.0" encoding="utf-8"?>
<!-- Generator: Adobe Illustrator 25.1.0, SVG Export Plug-In . SVG Version: 6.00 Build 0)  -->
<svg version="1.1" id="Layer_1" xmlns="http://www.w3.org/2000/svg" xmlns:xlink="http://www.w3.org/1999/xlink" x="0px" y="0px"
	 viewBox="0 0 56.7 56.7" style="enable-background:new 0 0 56.7 56.7;" xml:space="preserve">
<g>
	<path d="M54.4,2.9c-3,2.9-5.6,6.2-7.5,9.9c-0.3,0.6-0.2,1.2,0.2,1.6c1.5,1.6,2.6,3.7,3.1,5.9c0.5,2.2,0.4,4.5-0.2,6.7
		c0.7-0.2,1.5-0.4,2.2-0.6c-3.5-3-6-7-7.1-11.6c-0.3-1.3-2.3-1.3-2.6,0c-0.2,0.9-0.4,1.3-0.8,2c-0.7,1.1-1.6,2.1-2.7,2.7
		c-1.1,0.7-2.4,1-3.7,1c-0.3,0-0.5,0-0.8,0c-0.1,0-0.2,0-0.3,0c-0.1,0-0.3,0-0.1,0c-0.3,0-0.6-0.1-0.8-0.2c0.3,0.6,0.6,1.1,0.9,1.7
		c1.2-3.8,3.8-7,7.3-9c1.2-0.7,0.6-2.4-0.7-2.5c-1-0.1-1.4-0.1-2.4-0.3c-1.2-0.3-2.5-0.7-3.6-1.3c-2.5-1.3-4.6-3.2-6.1-5.6
		c-0.3,0.7-0.5,1.3-0.8,2c5.2-1.8,10.3,1.1,13.8,4.7c0.5,0.5,1.1,0.4,1.6,0.2c4-1.7,7.4-4.6,10-8.1c-0.7,0.1-1.4,0.2-2.1,0.3
		c1,0.8,2.1,1.6,3.1,2.5c0.6,0.4,1.3,0.6,1.9,0c0.5-0.5,0.6-1.5,0-1.9c-1-0.8-2.1-1.6-3.1-2.5c-0.7-0.6-1.6-0.5-2.1,0.3
		c-2.3,3.2-5.4,5.6-9,7.2c0.5,0.1,1.1,0.1,1.6,0.2c-4.2-4.3-10.4-7.5-16.4-5.4c-0.8,0.3-1.3,1.2-0.8,2c3.1,5.1,8.5,8.2,14.4,8.6
		c-0.2-0.8-0.5-1.7-0.7-2.5C36,13,33,16.8,31.6,21.2c-0.2,0.7,0.3,1.5,0.9,1.7c2.6,0.7,5.5,0.3,7.9-1c2.3-1.4,4.1-3.7,4.8-6.3
		c-0.9,0-1.7,0-2.6,0c1.2,4.9,4,9.5,7.8,12.8c0.8,0.6,2,0.4,2.2-0.6c1.5-5.4,0.1-11.1-3.7-15.2c0.1,0.5,0.1,1.1,0.2,1.6
		c1.8-3.5,4.2-6.6,7.1-9.3C57.5,3.6,55.6,1.7,54.4,2.9z"/>
	<path d="M47.1,14.4c2.6,2.8,4.9,6,6,9.7c0.2,0.6,0.3,1.3,0.5,1.9c0,0.1,0,0.3,0.1,0.4c0.1,0.3,0-0.1,0,0.1c0,0.3,0.1,0.5,0.1,0.8
		c0.1,0.9,0,2-0.1,2.7c-0.1,1-0.5,2.4-1,3.5c0.1-0.2-0.1,0.1-0.1,0.2c-0.1,0.1-0.1,0.3-0.2,0.4c-0.1,0.3-0.3,0.6-0.5,0.9
		c-0.3,0.5-0.6,1.1-1,1.6c-0.4,0.6-0.6,0.8-1.1,1.3c-0.4,0.5-0.8,0.9-1.3,1.4c-0.5,0.5-1,0.9-1.5,1.4c-0.5,0.4-1,0.8-1.4,1.1
		c-2.2,1.7-4.7,3.1-7.1,4.3c-2.5,1.3-4.7,2.2-7.3,3.1c-3.9,1.4-7.8,2.6-11.8,3.5c-2.5,0.6-5.1,1.1-7.7,1.3c-0.8,0-1.5,0-2.3,0
		c-0.2,0-0.4,0-0.6,0c-0.1,0-0.4-0.1-0.3,0c0.1,0-0.3,0-0.3-0.1c-0.2,0-0.3-0.1-0.5-0.1c-0.2-0.1-0.5-0.1-0.7-0.2
		c-0.1,0-0.2-0.1-0.3-0.1c-0.1,0-0.5-0.2-0.2-0.1c-0.4-0.2-0.7-0.4-1.1-0.6c-0.1-0.1-0.1-0.1-0.2-0.2c0.3,0.2,0.1,0.1,0,0
		c-0.2-0.1-0.3-0.3-0.4-0.4c-0.3-0.3-0.4-0.4-0.5-0.5c-0.2-0.3-0.4-0.6-0.5-0.9c-0.2-0.5-0.5-1.1-0.6-1.9C3,48.2,3,47.4,3,46.6
		c0-2.4,0.3-4.8,0.8-7.2c0.7-3.9,1.7-7.7,2.8-11.5c1.6-5.2,3.5-10,6.3-14.7c1.4-2.3,2.7-4.1,4.7-6c0.5-0.4,0.9-0.9,1.4-1.2
		c0.1,0,0.4-0.3,0.2-0.1c0.1-0.1,0.2-0.2,0.3-0.3c0.2-0.2,0.5-0.4,0.8-0.5c0.5-0.3,1-0.6,1.6-0.9c0.3-0.1,0.5-0.2,0.8-0.4
		c0.2-0.1,0.1,0,0,0c0.1,0,0.1,0,0.2-0.1c0.2-0.1,0.3-0.1,0.5-0.2c0.5-0.2,1.1-0.4,1.7-0.5C25.2,3.1,25.5,3,25.8,3
		c0.3-0.1,0,0,0.2,0c0.2,0,0.4,0,0.6-0.1c0.8-0.1,1.6-0.1,2.4,0c0.1,0,0.2,0,0.4,0c0.2,0-0.1,0-0.1,0c0.1,0,0.1,0,0.2,0
		c0.3,0.1,0.6,0.1,0.9,0.2c0.6,0.1,1.3,0.3,1.9,0.5c1.5,0.5,2.9,1.2,4.4,2.1c1.9,1.2,3.6,2.6,5.1,4.1c1.2,1.2,3.1-0.7,1.9-1.9
		c-4.5-4.4-10.5-8.3-17-7.9c-5.5,0.4-10,3.7-13.3,7.8c-3.6,4.5-6.1,9.9-8,15.3c-1.6,4.4-2.8,8.9-3.8,13.5C1.2,38.3,1,39.7,0.7,41
		c-0.6,3.7-1.1,8,0.8,11.3c3.2,5.7,11.1,4.5,16.4,3.4c3.6-0.8,7.2-1.7,10.7-2.8c5.4-1.7,10.7-3.9,15.6-6.9
		c4.7-2.9,9.2-6.9,11.2-12.2c2-5.3,0.7-11-2.1-15.7c-1.2-2-2.7-3.9-4.3-5.6C47.8,11.2,45.9,13.1,47.1,14.4L47.1,14.4z"/>
	<path d="M22.9,11.1c0,0.1-0.1,0.2-0.1,0.4c0-0.1,0-0.1,0.1-0.2c-0.1,0.2-0.2,0.4-0.3,0.5c0,0,0.1-0.1,0.1-0.1
		c-0.1,0.1-0.2,0.2-0.3,0.3c0,0,0.1-0.1,0.1-0.1c-0.1,0.1-0.2,0.1-0.4,0.2c0.1,0,0.1,0,0.2-0.1c-0.2,0.1-0.3,0.1-0.5,0.1
		c0.1,0,0.1,0,0.2,0c-0.1,0-0.2,0-0.3,0c0.1,0,0.1,0,0.2,0c0,0-0.1,0-0.1,0c0.1,0,0.1,0,0.2,0.1c0,0,0,0-0.1,0c0,0,0.1,0.1,0.1,0.1
		c0,0,0,0,0,0c0,0,0.1,0.1,0.1,0.1c0,0,0,0,0-0.1c0,0.1,0,0.1,0.1,0.2c0,0,0,0,0-0.1c0,0.1,0,0.1,0,0.2c0,0,0-0.1,0-0.1
		c0,0.1,0,0.1,0,0.2c0-0.1,0-0.2,0.1-0.2c0,0.1,0,0.1-0.1,0.2c0-0.1,0.1-0.2,0.2-0.3c0,0-0.1,0.1-0.1,0.1c0.1-0.1,0.1-0.2,0.2-0.2
		c0,0-0.1,0.1-0.1,0.1c0.1-0.1,0.2-0.2,0.4-0.2c-0.1,0-0.1,0-0.2,0.1c0.2-0.1,0.4-0.1,0.7-0.2c-0.1,0-0.1,0-0.2,0c0.2,0,0.4,0,0.6,0
		c0.4,0,0.7-0.3,0.7-0.7c0-0.4-0.3-0.7-0.7-0.7c-0.9,0-2,0.2-2.5,1c-0.1,0.2-0.2,0.4-0.3,0.6c0,0.3,0,0.5,0.1,0.8
		c0.1,0.2,0.3,0.4,0.6,0.4c0.3,0.1,0.7,0,1-0.1c0.4-0.1,0.7-0.3,0.9-0.5c0.4-0.4,0.7-0.9,0.8-1.4c0.1-0.3-0.1-0.7-0.5-0.8
		C23.4,10.5,23,10.7,22.9,11.1z"/>
	<path d="M25.1,17.6c0,0.1-0.1,0.2-0.1,0.4c0-0.1,0-0.1,0.1-0.2c-0.1,0.2-0.2,0.4-0.3,0.5c0,0,0.1-0.1,0.1-0.1
		c-0.1,0.1-0.2,0.2-0.3,0.3c0,0,0.1-0.1,0.1-0.1c-0.1,0.1-0.2,0.1-0.4,0.2c0.1,0,0.1,0,0.2-0.1c-0.2,0.1-0.3,0.1-0.5,0.1
		c0.1,0,0.1,0,0.2,0c-0.1,0-0.2,0-0.3,0c0.1,0,0.1,0,0.2,0c0,0-0.1,0-0.1,0c0.1,0,0.1,0,0.2,0.1c0,0,0,0-0.1,0c0,0,0.1,0.1,0.1,0.1
		c0,0,0,0,0,0c0,0,0.1,0.1,0.1,0.1c0,0,0,0,0-0.1c0,0.1,0,0.1,0.1,0.2c0,0,0,0,0-0.1c0,0.1,0,0.1,0,0.2c0,0,0-0.1,0-0.1
		c0,0.1,0,0.1,0,0.2c0-0.1,0-0.2,0.1-0.2c0,0.1,0,0.1-0.1,0.2c0-0.1,0.1-0.2,0.2-0.3c0,0-0.1,0.1-0.1,0.1c0.1-0.1,0.1-0.2,0.2-0.2
		c0,0-0.1,0.1-0.1,0.1c0.1-0.1,0.2-0.2,0.4-0.2c-0.1,0-0.1,0-0.2,0.1c0.2-0.1,0.4-0.1,0.7-0.2c-0.1,0-0.1,0-0.2,0c0.2,0,0.4,0,0.6,0
		c0.4,0,0.7-0.3,0.7-0.7c0-0.4-0.3-0.7-0.7-0.7c-0.9,0-2,0.2-2.5,1c-0.1,0.2-0.2,0.4-0.3,0.6c0,0.3,0,0.5,0.1,0.8
		c0.1,0.2,0.3,0.4,0.6,0.4c0.3,0.1,0.7,0,1-0.1c0.4-0.1,0.7-0.3,0.9-0.5c0.4-0.4,0.7-0.9,0.8-1.4c0.1-0.3-0.1-0.7-0.5-0.8
		C25.5,17,25.2,17.2,25.1,17.6z"/>
	<path d="M31.5,12.9c0,0.1-0.1,0.2-0.1,0.4c0-0.1,0-0.1,0.1-0.2c-0.1,0.2-0.2,0.4-0.3,0.5c0,0,0.1-0.1,0.1-0.1
		c-0.1,0.1-0.2,0.2-0.3,0.3c0,0,0.1-0.1,0.1-0.1c-0.1,0.1-0.2,0.1-0.4,0.2c0.1,0,0.1,0,0.2-0.1C30.7,14,30.5,14,30.3,14
		c0.1,0,0.1,0,0.2,0c-0.1,0-0.2,0-0.3,0c0.1,0,0.1,0,0.2,0c0,0-0.1,0-0.1,0c0.1,0,0.1,0,0.2,0.1c0,0,0,0-0.1,0c0,0,0.1,0.1,0.1,0.1
		c0,0,0,0,0,0c0,0,0.1,0.1,0.1,0.1c0,0,0,0,0-0.1c0,0.1,0,0.1,0.1,0.2c0,0,0,0,0-0.1c0,0.1,0,0.1,0,0.2c0,0,0-0.1,0-0.1
		c0,0.1,0,0.1,0,0.2c0-0.1,0-0.2,0.1-0.2c0,0.1,0,0.1-0.1,0.2c0-0.1,0.1-0.2,0.2-0.3c0,0-0.1,0.1-0.1,0.1c0.1-0.1,0.1-0.2,0.2-0.2
		c0,0-0.1,0.1-0.1,0.1c0.1-0.1,0.2-0.2,0.4-0.2c-0.1,0-0.1,0-0.2,0.1c0.2-0.1,0.4-0.1,0.7-0.2c-0.1,0-0.1,0-0.2,0c0.2,0,0.4,0,0.6,0
		c0.4,0,0.7-0.3,0.7-0.7c0-0.4-0.3-0.7-0.7-0.7c-0.9,0-2,0.2-2.5,1c-0.1,0.2-0.2,0.4-0.3,0.6c0,0.3,0,0.5,0.1,0.8
		c0.1,0.2,0.3,0.4,0.6,0.4c0.3,0.1,0.7,0,1-0.1c0.4-0.1,0.7-0.3,0.9-0.5c0.4-0.4,0.7-0.9,0.8-1.4c0.1-0.3-0.1-0.7-0.5-0.8
		C31.9,12.4,31.6,12.6,31.5,12.9z"/>
	<path d="M31.9,25.6c0,0.1-0.1,0.2-0.1,0.4c0-0.1,0-0.1,0.1-0.2c-0.1,0.2-0.2,0.4-0.3,0.5c0,0,0.1-0.1,0.1-0.1
		c-0.1,0.1-0.2,0.2-0.3,0.3c0,0,0.1-0.1,0.1-0.1c-0.1,0.1-0.2,0.1-0.4,0.2c0.1,0,0.1,0,0.2-0.1c-0.2,0.1-0.3,0.1-0.5,0.1
		c0.1,0,0.1,0,0.2,0c-0.1,0-0.2,0-0.3,0c0.1,0,0.1,0,0.2,0c0,0-0.1,0-0.1,0c0.1,0,0.1,0,0.2,0.1c0,0,0,0-0.1,0c0,0,0.1,0.1,0.1,0.1
		c0,0,0,0,0,0c0,0,0.1,0.1,0.1,0.1c0,0,0,0,0-0.1c0,0.1,0,0.1,0.1,0.2c0,0,0,0,0-0.1c0,0.1,0,0.1,0,0.2c0,0,0-0.1,0-0.1
		c0,0.1,0,0.1,0,0.2c0-0.1,0-0.2,0.1-0.2c0,0.1,0,0.1-0.1,0.2c0-0.1,0.1-0.2,0.2-0.3c0,0-0.1,0.1-0.1,0.1c0.1-0.1,0.1-0.2,0.2-0.2
		c0,0-0.1,0.1-0.1,0.1c0.1-0.1,0.2-0.2,0.4-0.2c-0.1,0-0.1,0-0.2,0.1c0.2-0.1,0.4-0.1,0.7-0.2c-0.1,0-0.1,0-0.2,0c0.2,0,0.4,0,0.6,0
		c0.4,0,0.7-0.3,0.7-0.7c0-0.4-0.3-0.7-0.7-0.7c-0.9,0-2,0.2-2.5,1c-0.1,0.2-0.2,0.4-0.3,0.6c0,0.3,0,0.5,0.1,0.8
		c0.1,0.2,0.3,0.4,0.6,0.4c0.3,0.1,0.7,0,1-0.1c0.4-0.1,0.7-0.3,0.9-0.5c0.4-0.4,0.7-0.9,0.8-1.4c0.1-0.3-0.1-0.7-0.5-0.8
		C32.4,25,32,25.2,31.9,25.6z"/>
	<path d="M42.2,23.8c0,0.1-0.1,0.2-0.1,0.4c0-0.1,0-0.1,0.1-0.2c-0.1,0.2-0.2,0.4-0.3,0.5c0,0,0.1-0.1,0.1-0.1
		c-0.1,0.1-0.2,0.2-0.3,0.3c0,0,0.1-0.1,0.1-0.1c-0.1,0.1-0.2,0.1-0.4,0.2c0.1,0,0.1,0,0.2-0.1c-0.2,0.1-0.3,0.1-0.5,0.1
		c0.1,0,0.1,0,0.2,0c-0.1,0-0.2,0-0.3,0c0.1,0,0.1,0,0.2,0c0,0-0.1,0-0.1,0c0.1,0,0.1,0,0.2,0.1c0,0,0,0-0.1,0c0,0,0.1,0.1,0.1,0.1
		c0,0,0,0,0,0c0,0,0.1,0.1,0.1,0.1c0,0,0,0,0-0.1c0,0.1,0,0.1,0.1,0.2c0,0,0,0,0-0.1c0,0.1,0,0.1,0,0.2c0,0,0-0.1,0-0.1
		c0,0.1,0,0.1,0,0.2c0-0.1,0-0.2,0.1-0.2c0,0.1,0,0.1-0.1,0.2c0-0.1,0.1-0.2,0.2-0.3c0,0-0.1,0.1-0.1,0.1c0.1-0.1,0.1-0.2,0.2-0.2
		c0,0-0.1,0.1-0.1,0.1c0.1-0.1,0.2-0.2,0.4-0.2c-0.1,0-0.1,0-0.2,0.1c0.2-0.1,0.4-0.1,0.7-0.2c-0.1,0-0.1,0-0.2,0c0.2,0,0.4,0,0.6,0
		c0.4,0,0.7-0.3,0.7-0.7c0-0.4-0.3-0.7-0.7-0.7c-0.9,0-2,0.2-2.5,1c-0.1,0.2-0.2,0.4-0.3,0.6c0,0.3,0,0.5,0.1,0.8
		c0.1,0.2,0.3,0.4,0.6,0.4c0.3,0.1,0.7,0,1-0.1c0.4-0.1,0.7-0.3,0.9-0.5c0.4-0.4,0.7-0.9,0.8-1.4c0.1-0.3-0.1-0.7-0.5-0.8
		C42.6,23.2,42.3,23.4,42.2,23.8z"/>
	<path d="M36.9,31.5c0,0.1-0.1,0.2-0.1,0.4c0-0.1,0-0.1,0.1-0.2c-0.1,0.2-0.2,0.4-0.3,0.5c0,0,0.1-0.1,0.1-0.1
		c-0.1,0.1-0.2,0.2-0.3,0.3c0,0,0.1-0.1,0.1-0.1c-0.1,0.1-0.2,0.1-0.4,0.2c0.1,0,0.1,0,0.2-0.1c-0.2,0.1-0.3,0.1-0.5,0.1
		c0.1,0,0.1,0,0.2,0c-0.1,0-0.2,0-0.3,0c0.1,0,0.1,0,0.2,0c0,0-0.1,0-0.1,0c0.1,0,0.1,0,0.2,0.1c0,0,0,0-0.1,0c0,0,0.1,0.1,0.1,0.1
		c0,0,0,0,0,0c0,0,0.1,0.1,0.1,0.1c0,0,0,0,0-0.1c0,0.1,0,0.1,0.1,0.2c0,0,0,0,0-0.1c0,0.1,0,0.1,0,0.2c0,0,0-0.1,0-0.1
		c0,0.1,0,0.1,0,0.2c0-0.1,0-0.2,0.1-0.2c0,0.1,0,0.1-0.1,0.2c0-0.1,0.1-0.2,0.2-0.3c0,0-0.1,0.1-0.1,0.1c0.1-0.1,0.1-0.2,0.2-0.2
		c0,0-0.1,0.1-0.1,0.1c0.1-0.1,0.2-0.2,0.4-0.2c-0.1,0-0.1,0-0.2,0.1c0.2-0.1,0.4-0.1,0.7-0.2c-0.1,0-0.1,0-0.2,0c0.2,0,0.4,0,0.6,0
		c0.4,0,0.7-0.3,0.7-0.7c0-0.4-0.3-0.7-0.7-0.7c-0.9,0-2,0.2-2.5,1c-0.1,0.2-0.2,0.4-0.3,0.6c0,0.3,0,0.5,0.1,0.8
		c0.1,0.2,0.3,0.4,0.6,0.4c0.3,0.1,0.7,0,1-0.1c0.4-0.1,0.7-0.3,0.9-0.5c0.4-0.4,0.7-0.9,0.8-1.4c0.1-0.3-0.1-0.7-0.5-0.8
		C37.4,31,37,31.2,36.9,31.5z"/>
	<path d="M47.4,29.7c0,0.1-0.1,0.2-0.1,0.4c0-0.1,0-0.1,0.1-0.2c-0.1,0.2-0.2,0.4-0.3,0.5c0,0,0.1-0.1,0.1-0.1
		c-0.1,0.1-0.2,0.2-0.3,0.3c0,0,0.1-0.1,0.1-0.1c-0.1,0.1-0.2,0.1-0.4,0.2c0.1,0,0.1,0,0.2-0.1c-0.2,0.1-0.3,0.1-0.5,0.1
		c0.1,0,0.1,0,0.2,0c-0.1,0-0.2,0-0.3,0c0.1,0,0.1,0,0.2,0c0,0-0.1,0-0.1,0c0.1,0,0.1,0,0.2,0.1c0,0,0,0-0.1,0c0,0,0.1,0.1,0.1,0.1
		c0,0,0,0,0,0c0,0,0.1,0.1,0.1,0.1c0,0,0,0,0-0.1c0,0.1,0,0.1,0.1,0.2c0,0,0,0,0-0.1c0,0.1,0,0.1,0,0.2c0,0,0-0.1,0-0.1
		c0,0.1,0,0.1,0,0.2c0-0.1,0-0.2,0.1-0.2c0,0.1,0,0.1-0.1,0.2c0-0.1,0.1-0.2,0.2-0.3c0,0-0.1,0.1-0.1,0.1c0.1-0.1,0.1-0.2,0.2-0.2
		c0,0-0.1,0.1-0.1,0.1c0.1-0.1,0.2-0.2,0.4-0.2c-0.1,0-0.1,0-0.2,0.1c0.2-0.1,0.4-0.1,0.7-0.2c-0.1,0-0.1,0-0.2,0c0.2,0,0.4,0,0.6,0
		c0.4,0,0.7-0.3,0.7-0.7c0-0.4-0.3-0.7-0.7-0.7c-0.9,0-2,0.2-2.5,1c-0.1,0.2-0.2,0.4-0.3,0.6c0,0.3,0,0.5,0.1,0.8
		c0.1,0.2,0.3,0.4,0.6,0.4c0.3,0.1,0.7,0,1-0.1c0.4-0.1,0.7-0.3,0.9-0.5c0.4-0.4,0.7-0.9,0.8-1.4c0.1-0.3-0.1-0.7-0.5-0.8
		C47.8,29.2,47.5,29.4,47.4,29.7z"/>
	<path d="M41.5,38.3c0,0.1-0.1,0.2-0.1,0.4c0-0.1,0-0.1,0.1-0.2c-0.1,0.2-0.2,0.4-0.3,0.5c0,0,0.1-0.1,0.1-0.1
		c-0.1,0.1-0.2,0.2-0.3,0.3c0,0,0.1-0.1,0.1-0.1c-0.1,0.1-0.2,0.1-0.4,0.2c0.1,0,0.1,0,0.2-0.1c-0.2,0.1-0.3,0.1-0.5,0.1
		c0.1,0,0.1,0,0.2,0c-0.1,0-0.2,0-0.3,0c0.1,0,0.1,0,0.2,0c0,0-0.1,0-0.1,0c0.1,0,0.1,0,0.2,0.1c0,0,0,0-0.1,0c0,0,0.1,0.1,0.1,0.1
		c0,0,0,0,0,0c0,0,0.1,0.1,0.1,0.1c0,0,0,0,0-0.1c0,0.1,0,0.1,0.1,0.2c0,0,0,0,0-0.1c0,0.1,0,0.1,0,0.2c0,0,0-0.1,0-0.1
		c0,0.1,0,0.1,0,0.2c0-0.1,0-0.2,0.1-0.2c0,0.1,0,0.1-0.1,0.2c0-0.1,0.1-0.2,0.2-0.3c0,0-0.1,0.1-0.1,0.1c0.1-0.1,0.1-0.2,0.2-0.2
		c0,0-0.1,0.1-0.1,0.1c0.1-0.1,0.2-0.2,0.4-0.2c-0.1,0-0.1,0-0.2,0.1c0.2-0.1,0.4-0.1,0.7-0.2c-0.1,0-0.1,0-0.2,0c0.2,0,0.4,0,0.6,0
		c0.4,0,0.7-0.3,0.7-0.7c0-0.4-0.3-0.7-0.7-0.7c-0.9,0-2,0.2-2.5,1c-0.1,0.2-0.2,0.4-0.3,0.6c0,0.3,0,0.5,0.1,0.8
		c0.1,0.2,0.3,0.4,0.6,0.4c0.3,0.1,0.7,0,1-0.1c0.4-0.1,0.7-0.3,0.9-0.5c0.4-0.4,0.7-0.9,0.8-1.4c0.1-0.3-0.1-0.7-0.5-0.8
		C42,37.7,41.6,37.9,41.5,38.3z"/>
	<path d="M28.8,35c0,0.1-0.1,0.2-0.1,0.4c0-0.1,0-0.1,0.1-0.2c-0.1,0.2-0.2,0.4-0.3,0.5c0,0,0.1-0.1,0.1-0.1
		c-0.1,0.1-0.2,0.2-0.3,0.3c0,0,0.1-0.1,0.1-0.1c-0.1,0.1-0.2,0.1-0.4,0.2c0.1,0,0.1,0,0.2-0.1C28,36,27.8,36,27.7,36.1
		c0.1,0,0.1,0,0.2,0c-0.1,0-0.2,0-0.3,0c0.1,0,0.1,0,0.2,0c0,0-0.1,0-0.1,0c0.1,0,0.1,0,0.2,0.1c0,0,0,0-0.1,0c0,0,0.1,0.1,0.1,0.1
		c0,0,0,0,0,0c0,0,0.1,0.1,0.1,0.1c0,0,0,0,0-0.1c0,0.1,0,0.1,0.1,0.2c0,0,0,0,0-0.1c0,0.1,0,0.1,0,0.2c0,0,0-0.1,0-0.1
		c0,0.1,0,0.1,0,0.2c0-0.1,0-0.2,0.1-0.2c0,0.1,0,0.1-0.1,0.2c0-0.1,0.1-0.2,0.2-0.3c0,0-0.1,0.1-0.1,0.1c0.1-0.1,0.1-0.2,0.2-0.2
		c0,0-0.1,0.1-0.1,0.1c0.1-0.1,0.2-0.2,0.4-0.2c-0.1,0-0.1,0-0.2,0.1c0.2-0.1,0.4-0.1,0.7-0.2c-0.1,0-0.1,0-0.2,0c0.2,0,0.4,0,0.6,0
		c0.4,0,0.7-0.3,0.7-0.7c0-0.4-0.3-0.7-0.7-0.7c-0.9,0-2,0.2-2.5,1c-0.1,0.2-0.2,0.4-0.3,0.6c0,0.3,0,0.5,0.1,0.8
		c0.1,0.2,0.3,0.4,0.6,0.4c0.3,0.1,0.7,0,1-0.1c0.4-0.1,0.7-0.3,0.9-0.5c0.4-0.4,0.7-0.9,0.8-1.4c0.1-0.3-0.1-0.7-0.5-0.8
		C29.3,34.4,28.9,34.6,28.8,35z"/>
	<path d="M9.5,49c0,0.1-0.1,0.2-0.1,0.4c0-0.1,0-0.1,0.1-0.2c-0.1,0.2-0.2,0.4-0.3,0.5c0,0,0.1-0.1,0.1-0.1
		c-0.1,0.1-0.2,0.2-0.3,0.3c0,0,0.1-0.1,0.1-0.1C9,49.9,8.8,50,8.7,50c0.1,0,0.1,0,0.2-0.1c-0.2,0.1-0.3,0.1-0.5,0.1
		c0.1,0,0.1,0,0.2,0c-0.1,0-0.2,0-0.3,0c0.1,0,0.1,0,0.2,0c0,0-0.1,0-0.1,0c0.1,0,0.1,0,0.2,0.1c0,0,0,0-0.1,0c0,0,0.1,0.1,0.1,0.1
		c0,0,0,0,0,0c0,0,0.1,0.1,0.1,0.1c0,0,0,0,0-0.1c0,0.1,0,0.1,0.1,0.2c0,0,0,0,0-0.1c0,0.1,0,0.1,0,0.2c0,0,0-0.1,0-0.1
		c0,0.1,0,0.1,0,0.2c0-0.1,0-0.2,0.1-0.2c0,0.1,0,0.1-0.1,0.2c0-0.1,0.1-0.2,0.2-0.3c0,0-0.1,0.1-0.1,0.1c0.1-0.1,0.1-0.2,0.2-0.2
		c0,0-0.1,0.1-0.1,0.1C8.9,50.1,9.1,50,9.2,50C9.1,50,9.1,50,9,50c0.2-0.1,0.4-0.1,0.7-0.2c-0.1,0-0.1,0-0.2,0c0.2,0,0.4,0,0.6,0
		c0.4,0,0.7-0.3,0.7-0.7c0-0.4-0.3-0.7-0.7-0.7c-0.9,0-2,0.2-2.5,1c-0.1,0.2-0.2,0.4-0.3,0.6c0,0.3,0,0.5,0.1,0.8
		c0.1,0.2,0.3,0.4,0.6,0.4c0.3,0.1,0.7,0,1-0.1c0.4-0.1,0.7-0.3,0.9-0.5c0.4-0.4,0.7-0.9,0.8-1.4c0.1-0.3-0.1-0.7-0.5-0.8
		C10,48.5,9.6,48.6,9.5,49z"/>
	<path d="M8.4,41.4c0,0.1-0.1,0.2-0.1,0.4c0-0.1,0-0.1,0.1-0.2c-0.1,0.2-0.2,0.4-0.3,0.5c0,0,0.1-0.1,0.1-0.1
		c-0.1,0.1-0.2,0.2-0.3,0.3c0,0,0.1-0.1,0.1-0.1c-0.1,0.1-0.2,0.1-0.4,0.2c0.1,0,0.1,0,0.2-0.1c-0.2,0.1-0.3,0.1-0.5,0.1
		c0.1,0,0.1,0,0.2,0c-0.1,0-0.2,0-0.3,0c0.1,0,0.1,0,0.2,0c0,0-0.1,0-0.1,0c0.1,0,0.1,0,0.2,0.1c0,0,0,0-0.1,0c0,0,0.1,0.1,0.1,0.1
		c0,0,0,0,0,0c0,0,0.1,0.1,0.1,0.1c0,0,0,0,0-0.1c0,0.1,0,0.1,0.1,0.2c0,0,0,0,0-0.1c0,0.1,0,0.1,0,0.2c0,0,0-0.1,0-0.1
		c0,0.1,0,0.1,0,0.2c0-0.1,0-0.2,0.1-0.2c0,0.1,0,0.1-0.1,0.2c0-0.1,0.1-0.2,0.2-0.3c0,0-0.1,0.1-0.1,0.1c0.1-0.1,0.1-0.2,0.2-0.2
		c0,0-0.1,0.1-0.1,0.1c0.1-0.1,0.2-0.2,0.4-0.2c-0.1,0-0.1,0-0.2,0.1c0.2-0.1,0.4-0.1,0.7-0.2c-0.1,0-0.1,0-0.2,0c0.2,0,0.4,0,0.6,0
		c0.4,0,0.7-0.3,0.7-0.7c0-0.4-0.3-0.7-0.7-0.7c-0.9,0-2,0.2-2.5,1c-0.1,0.2-0.2,0.4-0.3,0.6c0,0.3,0,0.5,0.1,0.8
		c0.1,0.2,0.3,0.4,0.6,0.4c0.3,0.1,0.7,0,1-0.1c0.4-0.1,0.7-0.3,0.9-0.5c0.4-0.4,0.7-0.9,0.8-1.4c0.1-0.3-0.1-0.7-0.5-0.8
		C8.9,40.9,8.5,41.1,8.4,41.4z"/>
	<path d="M13.2,31.5c0,0.1-0.1,0.2-0.1,0.4c0-0.1,0-0.1,0.1-0.2c-0.1,0.2-0.2,0.4-0.3,0.5c0,0,0.1-0.1,0.1-0.1
		c-0.1,0.1-0.2,0.2-0.3,0.3c0,0,0.1-0.1,0.1-0.1c-0.1,0.1-0.2,0.1-0.4,0.2c0.1,0,0.1,0,0.2-0.1c-0.2,0.1-0.3,0.1-0.5,0.1
		c0.1,0,0.1,0,0.2,0c-0.1,0-0.2,0-0.3,0c0.1,0,0.1,0,0.2,0c0,0-0.1,0-0.1,0c0.1,0,0.1,0,0.2,0.1c0,0,0,0-0.1,0c0,0,0.1,0.1,0.1,0.1
		c0,0,0,0,0,0c0,0,0.1,0.1,0.1,0.1c0,0,0,0,0-0.1c0,0.1,0,0.1,0.1,0.2c0,0,0,0,0-0.1c0,0.1,0,0.1,0,0.2c0,0,0-0.1,0-0.1
		c0,0.1,0,0.1,0,0.2c0-0.1,0-0.2,0.1-0.2c0,0.1,0,0.1-0.1,0.2c0-0.1,0.1-0.2,0.2-0.3c0,0-0.1,0.1-0.1,0.1c0.1-0.1,0.1-0.2,0.2-0.2
		c0,0-0.1,0.1-0.1,0.1c0.1-0.1,0.2-0.2,0.4-0.2c-0.1,0-0.1,0-0.2,0.1c0.2-0.1,0.4-0.1,0.7-0.2c-0.1,0-0.1,0-0.2,0c0.2,0,0.4,0,0.6,0
		c0.4,0,0.7-0.3,0.7-0.7c0-0.4-0.3-0.7-0.7-0.7c-0.9,0-2,0.2-2.5,1c-0.1,0.2-0.2,0.4-0.3,0.6c0,0.3,0,0.5,0.1,0.8
		c0.1,0.2,0.3,0.4,0.6,0.4c0.3,0.1,0.7,0,1-0.1c0.4-0.1,0.7-0.3,0.9-0.5c0.4-0.4,0.7-0.9,0.8-1.4c0.1-0.3-0.1-0.7-0.5-0.8
		C13.6,31,13.3,31.2,13.2,31.5z"/>
	<path d="M13.7,23.2c0,0.1-0.1,0.2-0.1,0.4c0-0.1,0-0.1,0.1-0.2c-0.1,0.2-0.2,0.4-0.3,0.5c0,0,0.1-0.1,0.1-0.1
		c-0.1,0.1-0.2,0.2-0.3,0.3c0,0,0.1-0.1,0.1-0.1c-0.1,0.1-0.2,0.1-0.4,0.2c0.1,0,0.1,0,0.2-0.1c-0.2,0.1-0.3,0.1-0.5,0.1
		c0.1,0,0.1,0,0.2,0c-0.1,0-0.2,0-0.3,0c0.1,0,0.1,0,0.2,0c0,0-0.1,0-0.1,0c0.1,0,0.1,0,0.2,0.1c0,0,0,0-0.1,0c0,0,0.1,0.1,0.1,0.1
		c0,0,0,0,0,0c0,0,0.1,0.1,0.1,0.1c0,0,0,0,0-0.1c0,0.1,0,0.1,0.1,0.2c0,0,0,0,0-0.1c0,0.1,0,0.1,0,0.2c0,0,0-0.1,0-0.1
		c0,0.1,0,0.1,0,0.2c0-0.1,0-0.2,0.1-0.2c0,0.1,0,0.1-0.1,0.2c0-0.1,0.1-0.2,0.2-0.3c0,0-0.1,0.1-0.1,0.1c0.1-0.1,0.1-0.2,0.2-0.2
		c0,0-0.1,0.1-0.1,0.1c0.1-0.1,0.2-0.2,0.4-0.2c-0.1,0-0.1,0-0.2,0.1c0.2-0.1,0.4-0.1,0.7-0.2c-0.1,0-0.1,0-0.2,0c0.2,0,0.4,0,0.6,0
		c0.4,0,0.7-0.3,0.7-0.7c0-0.4-0.3-0.7-0.7-0.7c-0.9,0-2,0.2-2.5,1c-0.1,0.2-0.2,0.4-0.3,0.6c0,0.3,0,0.5,0.1,0.8
		c0.1,0.2,0.3,0.4,0.6,0.4c0.3,0.1,0.7,0,1-0.1c0.4-0.1,0.7-0.3,0.9-0.5c0.4-0.4,0.7-0.9,0.8-1.4c0.1-0.3-0.1-0.7-0.5-0.8
		C14.1,22.7,13.8,22.9,13.7,23.2z"/>
	<path d="M15.7,16c0,0.1-0.1,0.2-0.1,0.4c0-0.1,0-0.1,0.1-0.2c-0.1,0.2-0.2,0.4-0.3,0.5c0,0,0.1-0.1,0.1-0.1
		c-0.1,0.1-0.2,0.2-0.3,0.3c0,0,0.1-0.1,0.1-0.1c-0.1,0.1-0.2,0.1-0.4,0.2c0.1,0,0.1,0,0.2-0.1c-0.2,0.1-0.3,0.1-0.5,0.1
		c0.1,0,0.1,0,0.2,0c-0.1,0-0.2,0-0.3,0c0.1,0,0.1,0,0.2,0c0,0-0.1,0-0.1,0c0.1,0,0.1,0,0.2,0.1c0,0,0,0-0.1,0c0,0,0.1,0.1,0.1,0.1
		c0,0,0,0,0,0c0,0,0.1,0.1,0.1,0.1c0,0,0,0,0-0.1c0,0.1,0,0.1,0.1,0.2c0,0,0,0,0-0.1c0,0.1,0,0.1,0,0.2c0,0,0-0.1,0-0.1
		c0,0.1,0,0.1,0,0.2c0-0.1,0-0.2,0.1-0.2c0,0.1,0,0.1-0.1,0.2c0-0.1,0.1-0.2,0.2-0.3c0,0-0.1,0.1-0.1,0.1c0.1-0.1,0.1-0.2,0.2-0.2
		c0,0-0.1,0.1-0.1,0.1c0.1-0.1,0.2-0.2,0.4-0.2c-0.1,0-0.1,0-0.2,0.1c0.2-0.1,0.4-0.1,0.7-0.2c-0.1,0-0.1,0-0.2,0c0.2,0,0.4,0,0.6,0
		c0.4,0,0.7-0.3,0.7-0.7c0-0.4-0.3-0.7-0.7-0.7c-0.9,0-2,0.2-2.5,1c-0.1,0.2-0.2,0.4-0.3,0.6c0,0.3,0,0.5,0.1,0.8
		c0.1,0.2,0.3,0.4,0.6,0.4c0.3,0.1,0.7,0,1-0.1c0.4-0.1,0.7-0.3,0.9-0.5c0.4-0.4,0.7-0.9,0.8-1.4c0.1-0.3-0.1-0.7-0.5-0.8
		C16.2,15.4,15.8,15.6,15.7,16z"/>
	<path d="M22,27.5c0,0.1-0.1,0.2-0.1,0.4c0-0.1,0-0.1,0.1-0.2c-0.1,0.2-0.2,0.4-0.3,0.5c0,0,0.1-0.1,0.1-0.1
		c-0.1,0.1-0.2,0.2-0.3,0.3c0,0,0.1-0.1,0.1-0.1c-0.1,0.1-0.2,0.1-0.4,0.2c0.1,0,0.1,0,0.2-0.1c-0.2,0.1-0.3,0.1-0.5,0.1
		c0.1,0,0.1,0,0.2,0c-0.1,0-0.2,0-0.3,0c0.1,0,0.1,0,0.2,0c0,0-0.1,0-0.1,0c0.1,0,0.1,0,0.2,0.1c0,0,0,0-0.1,0c0,0,0.1,0.1,0.1,0.1
		c0,0,0,0,0,0c0,0,0.1,0.1,0.1,0.1c0,0,0,0,0-0.1c0,0.1,0,0.1,0.1,0.2c0,0,0,0,0-0.1c0,0.1,0,0.1,0,0.2c0,0,0-0.1,0-0.1
		c0,0.1,0,0.1,0,0.2c0-0.1,0-0.2,0.1-0.2c0,0.1,0,0.1-0.1,0.2c0-0.1,0.1-0.2,0.2-0.3c0,0-0.1,0.1-0.1,0.1c0.1-0.1,0.1-0.2,0.2-0.2
		c0,0-0.1,0.1-0.1,0.1c0.1-0.1,0.2-0.2,0.4-0.2c-0.1,0-0.1,0-0.2,0.1c0.2-0.1,0.4-0.1,0.7-0.2c-0.1,0-0.1,0-0.2,0c0.2,0,0.4,0,0.6,0
		c0.4,0,0.7-0.3,0.7-0.7c0-0.4-0.3-0.7-0.7-0.7c-0.9,0-2,0.2-2.5,1c-0.1,0.2-0.2,0.4-0.3,0.6c0,0.3,0,0.5,0.1,0.8
		c0.1,0.2,0.3,0.4,0.6,0.4c0.3,0.1,0.7,0,1-0.1c0.4-0.1,0.7-0.3,0.9-0.5c0.4-0.4,0.7-0.9,0.8-1.4c0.1-0.3-0.1-0.7-0.5-0.8
		C22.5,27,22.1,27.2,22,27.5z"/>
	<path d="M19.2,37.5c0,0.1-0.1,0.2-0.1,0.4c0-0.1,0-0.1,0.1-0.2c-0.1,0.2-0.2,0.4-0.3,0.5c0,0,0.1-0.1,0.1-0.1
		c-0.1,0.1-0.2,0.2-0.3,0.3c0,0,0.1-0.1,0.1-0.1c-0.1,0.1-0.2,0.1-0.4,0.2c0.1,0,0.1,0,0.2-0.1c-0.2,0.1-0.3,0.1-0.5,0.1
		c0.1,0,0.1,0,0.2,0c-0.1,0-0.2,0-0.3,0c0.1,0,0.1,0,0.2,0c0,0-0.1,0-0.1,0c0.1,0,0.1,0,0.2,0.1c0,0,0,0-0.1,0c0,0,0.1,0.1,0.1,0.1
		c0,0,0,0,0,0c0,0,0.1,0.1,0.1,0.1c0,0,0,0,0-0.1c0,0.1,0,0.1,0.1,0.2c0,0,0,0,0-0.1c0,0.1,0,0.1,0,0.2c0,0,0-0.1,0-0.1
		c0,0.1,0,0.1,0,0.2c0-0.1,0-0.2,0.1-0.2c0,0.1,0,0.1-0.1,0.2c0-0.1,0.1-0.2,0.2-0.3c0,0-0.1,0.1-0.1,0.1c0.1-0.1,0.1-0.2,0.2-0.2
		c0,0-0.1,0.1-0.1,0.1c0.1-0.1,0.2-0.2,0.4-0.2c-0.1,0-0.1,0-0.2,0.1c0.2-0.1,0.4-0.1,0.7-0.2c-0.1,0-0.1,0-0.2,0c0.2,0,0.4,0,0.6,0
		c0.4,0,0.7-0.3,0.7-0.7c0-0.4-0.3-0.7-0.7-0.7c-0.9,0-2,0.2-2.5,1c-0.1,0.2-0.2,0.4-0.3,0.6c0,0.3,0,0.5,0.1,0.8
		c0.1,0.2,0.3,0.4,0.6,0.4c0.3,0.1,0.7,0,1-0.1c0.4-0.1,0.7-0.3,0.9-0.5c0.4-0.4,0.7-0.9,0.8-1.4c0.1-0.3-0.1-0.7-0.5-0.8
		C19.7,37,19.3,37.1,19.2,37.5z"/>
	<path d="M22,45.6c0,0.1-0.1,0.2-0.1,0.4c0-0.1,0-0.1,0.1-0.2c-0.1,0.2-0.2,0.4-0.3,0.5c0,0,0.1-0.1,0.1-0.1
		c-0.1,0.1-0.2,0.2-0.3,0.3c0,0,0.1-0.1,0.1-0.1c-0.1,0.1-0.2,0.1-0.4,0.2c0.1,0,0.1,0,0.2-0.1c-0.2,0.1-0.3,0.1-0.5,0.1
		c0.1,0,0.1,0,0.2,0c-0.1,0-0.2,0-0.3,0c0.1,0,0.1,0,0.2,0c0,0-0.1,0-0.1,0c0.1,0,0.1,0,0.2,0.1c0,0,0,0-0.1,0c0,0,0.1,0.1,0.1,0.1
		c0,0,0,0,0,0c0,0,0.1,0.1,0.1,0.1c0,0,0,0,0-0.1c0,0.1,0,0.1,0.1,0.2c0,0,0,0,0-0.1c0,0.1,0,0.1,0,0.2c0,0,0-0.1,0-0.1
		c0,0.1,0,0.1,0,0.2c0-0.1,0-0.2,0.1-0.2c0,0.1,0,0.1-0.1,0.2c0-0.1,0.1-0.2,0.2-0.3c0,0-0.1,0.1-0.1,0.1c0.1-0.1,0.1-0.2,0.2-0.2
		c0,0-0.1,0.1-0.1,0.1c0.1-0.1,0.2-0.2,0.4-0.2c-0.1,0-0.1,0-0.2,0.1c0.2-0.1,0.4-0.1,0.7-0.2c-0.1,0-0.1,0-0.2,0c0.2,0,0.4,0,0.6,0
		c0.4,0,0.7-0.3,0.7-0.7c0-0.4-0.3-0.7-0.7-0.7c-0.9,0-2,0.2-2.5,1c-0.1,0.2-0.2,0.4-0.3,0.6c0,0.3,0,0.5,0.1,0.8
		c0.1,0.2,0.3,0.4,0.6,0.4c0.3,0.1,0.7,0,1-0.1c0.4-0.1,0.7-0.3,0.9-0.5c0.4-0.4,0.7-0.9,0.8-1.4c0.1-0.3-0.1-0.7-0.5-0.8
		C22.5,45,22.1,45.2,22,45.6z"/>
	<path d="M32.5,44c0,0.1-0.1,0.2-0.1,0.4c0-0.1,0-0.1,0.1-0.2c-0.1,0.2-0.2,0.4-0.3,0.5c0,0,0.1-0.1,0.1-0.1
		c-0.1,0.1-0.2,0.2-0.3,0.3c0,0,0.1-0.1,0.1-0.1C32,44.9,31.9,45,31.7,45c0.1,0,0.1,0,0.2-0.1c-0.2,0.1-0.3,0.1-0.5,0.1
		c0.1,0,0.1,0,0.2,0c-0.1,0-0.2,0-0.3,0c0.1,0,0.1,0,0.2,0c0,0-0.1,0-0.1,0c0.1,0,0.1,0,0.2,0.1c0,0,0,0-0.1,0c0,0,0.1,0.1,0.1,0.1
		c0,0,0,0,0,0c0,0,0.1,0.1,0.1,0.1c0,0,0,0,0-0.1c0,0.1,0,0.1,0.1,0.2c0,0,0,0,0-0.1c0,0.1,0,0.1,0,0.2c0,0,0-0.1,0-0.1
		c0,0.1,0,0.1,0,0.2c0-0.1,0-0.2,0.1-0.2c0,0.1,0,0.1-0.1,0.2c0-0.1,0.1-0.2,0.2-0.3c0,0-0.1,0.1-0.1,0.1c0.1-0.1,0.1-0.2,0.2-0.2
		c0,0-0.1,0.1-0.1,0.1c0.1-0.1,0.2-0.2,0.4-0.2c-0.1,0-0.1,0-0.2,0.1c0.2-0.1,0.4-0.1,0.7-0.2c-0.1,0-0.1,0-0.2,0c0.2,0,0.4,0,0.6,0
		c0.4,0,0.7-0.3,0.7-0.7c0-0.4-0.3-0.7-0.7-0.7c-0.9,0-2,0.2-2.5,1c-0.1,0.2-0.2,0.4-0.3,0.6c0,0.3,0,0.5,0.1,0.8
		c0.1,0.2,0.3,0.4,0.6,0.4c0.3,0.1,0.7,0,1-0.1c0.4-0.1,0.7-0.3,0.9-0.5c0.4-0.4,0.7-0.9,0.8-1.4c0.1-0.3-0.1-0.7-0.5-0.8
		C33,43.5,32.6,43.7,32.5,44z"/>
</g>
</svg>
