<?xml version="1.0" encoding="utf-8"?>
<!-- Generator: Adobe Illustrator 25.0.1, SVG Export Plug-In . SVG Version: 6.00 Build 0)  -->
<svg version="1.1" id="Layer_1" xmlns="http://www.w3.org/2000/svg" xmlns:xlink="http://www.w3.org/1999/xlink" x="0px" y="0px"
	 viewBox="0 0 56.7 56.7" style="enable-background:new 0 0 56.7 56.7;" xml:space="preserve">
<path d="M23.5,25.7c0,0.1,0,0.5-0.3,0.8c-0.3,0.4-0.8,0.4-0.8,0.4c-0.1,0-0.5,0-0.8-0.3s-0.3-0.8-0.3-0.9s0-0.7,0.5-1
	c0.3-0.2,0.5-0.2,0.6-0.2s0.4,0,0.7,0.2C23.4,25.1,23.5,25.6,23.5,25.7z"/>
<path d="M33.6,26c0,0.1,0,0.5-0.3,0.8c-0.3,0.4-0.8,0.4-0.8,0.4c-0.1,0-0.5,0-0.8-0.3s-0.3-0.8-0.3-0.9s0-0.7,0.5-1
	c0.3-0.2,0.5-0.2,0.6-0.2s0.4,0,0.7,0.2C33.6,25.3,33.6,25.9,33.6,26z"/>
<path d="M28.5,53.2c-5.8,0-11.4-2.2-15.9-6.2C7.5,42.5,4.4,36.1,4,29.5l0,0c-0.6-13,9.1-24.6,21.7-25.9c6.6-0.7,13.4,1.6,18.6,6.4
	c5.4,5,8.5,11.9,8.4,18.9c-0.2,12.6-10.3,23.5-22.6,24.3C29.5,53.2,29,53.2,28.5,53.2z M7.7,29.3c0.3,5.6,2.9,11.1,7.3,15
	c4.2,3.7,9.5,5.6,14.8,5.2c10.4-0.7,19-10,19.2-20.7c0.1-6-2.5-11.9-7.2-16.1c-4.4-4-10.1-6-15.7-5.4C15.4,8.4,7.2,18.3,7.7,29.3
	L7.7,29.3z"/>
<path d="M19.4,39.5c0.3,0.7,0.6,1.4,1.2,1.9c0.9,0.8,2.1,1.1,3.3,0.9c1.7-0.3,3.1-1.8,3.4-3.5c0.2-1.4,0.1-3-0.7-4.1
	c-1.3-2-4.1-2.3-6-0.9C18.9,35.1,18.6,37.7,19.4,39.5c0.2,0.6,0.8,1,1.4,0.8c0.5-0.2,1-0.8,0.8-1.4c-0.1-0.3-0.2-0.6-0.3-0.9
	c0,0-0.1-0.3,0-0.1c0,0.2,0-0.1,0-0.1c0-0.2,0-0.4,0-0.6c0-0.1,0-0.2,0-0.3c0-0.3,0,0.2,0,0c0-0.2,0.1-0.3,0.1-0.5
	c0-0.1,0.1-0.2,0.1-0.2c0.1-0.3-0.1,0.2,0,0c0.1-0.2,0.2-0.3,0.3-0.4c-0.2,0.2,0,0,0,0c0.1-0.1,0.1-0.1,0.2-0.2c0.2-0.2-0.2,0.1,0,0
	c0.1-0.1,0.2-0.1,0.2-0.1c0.1,0,0.1-0.1,0.2-0.1c0.3-0.1-0.2,0,0.1,0c0.1,0,0.2-0.1,0.3-0.1c0.1,0,0.5-0.1,0.2,0c0.2,0,0.3,0,0.5,0
	c0.3,0-0.2-0.1,0.1,0c0.1,0,0.2,0,0.3,0.1c0,0,0.3,0.1,0.1,0c0.1,0,0.2,0.1,0.3,0.2c0.2,0.1,0.1,0,0,0c0.1,0.1,0.2,0.2,0.3,0.3
	c0,0,0.2,0.3,0,0c0,0.1,0.1,0.1,0.1,0.2c0,0.1,0.1,0.1,0.1,0.2c0.1,0.2,0,0,0-0.1c0.1,0.1,0.1,0.3,0.1,0.4c0,0.1,0.1,0.3,0.1,0.4
	c0,0.1,0,0.4,0,0c0,0.1,0,0.2,0,0.2c0,0.2,0,0.5,0,0.7c0,0.1,0,0.1,0,0.2c0,0.3,0,0,0,0c0,0-0.1,0.3-0.1,0.4c0,0.2-0.1,0.3-0.1,0.5
	c0.1-0.3,0,0,0,0c-0.1,0.1-0.1,0.2-0.2,0.3c0,0-0.1,0.2,0,0c-0.1,0.1-0.1,0.1-0.2,0.2c-0.1,0.1-0.1,0.1-0.2,0.2
	c-0.3,0.2,0.2-0.2,0.1-0.1c-0.2,0.1-0.4,0.2-0.6,0.3c-0.2,0.1,0.2-0.1,0,0c-0.1,0-0.2,0.1-0.3,0.1c-0.1,0-0.1,0-0.2,0
	c0.3-0.1-0.1,0-0.2,0c0,0-0.4,0-0.1,0c-0.1,0-0.3-0.1-0.4-0.1c0.2,0.1,0,0,0,0c-0.1,0-0.2-0.1-0.3-0.2c0.2,0.1,0,0,0,0
	c-0.1-0.1-0.2-0.2-0.2-0.2c-0.2-0.2,0.1,0.2,0,0c0-0.1-0.1-0.1-0.1-0.2c-0.1-0.1-0.2-0.3-0.2-0.4c0,0,0-0.1-0.1-0.1
	c-0.1-0.2,0.1,0.3,0,0.1c-0.2-0.6-0.8-1-1.4-0.8C19.7,38.3,19.1,39,19.4,39.5z"/>
<path d="M33.1,16.6c0.4,0,0.8,0,1.1,0c-0.1,0-0.2,0-0.3,0c0.5,0.1,0.9,0.2,1.3,0.4c-0.1,0-0.2-0.1-0.3-0.1c0.4,0.2,0.7,0.3,1,0.6
	c0.2,0.2,0.6,0.2,0.9,0.1c0.3-0.1,0.6-0.3,0.7-0.5c0.1-0.3,0.2-0.6,0.1-0.9c-0.1-0.3-0.3-0.5-0.5-0.7c-1.1-0.8-2.6-1.2-4.1-1.1
	c-0.3,0-0.6,0.1-0.8,0.3c-0.2,0.2-0.3,0.5-0.3,0.8C31.9,16.1,32.4,16.7,33.1,16.6L33.1,16.6z"/>
<path d="M21.4,18c0.3-0.2,0.7-0.5,1-0.6c-0.1,0-0.2,0.1-0.3,0.1c0.4-0.2,0.8-0.3,1.2-0.3c-0.1,0-0.2,0-0.3,0c0,0,0.1,0,0.1,0
	c0.2,0,0.3,0,0.4-0.1c0.1,0,0.3-0.1,0.4-0.2c0.2-0.2,0.3-0.5,0.3-0.8c0-0.3-0.1-0.6-0.3-0.8c-0.2-0.2-0.5-0.4-0.8-0.3
	c-0.5,0.1-1.1,0.2-1.6,0.4c-0.5,0.2-1,0.4-1.4,0.8c-0.1,0.1-0.2,0.2-0.3,0.3c-0.1,0.1-0.2,0.2-0.2,0.4c-0.1,0.3,0,0.6,0.1,0.9
	c0.2,0.2,0.4,0.5,0.7,0.5C20.8,18.2,21.2,18.2,21.4,18L21.4,18z"/>
</svg>
