<?xml version="1.0" encoding="utf-8"?>
<!-- Generator: Adobe Illustrator 24.3.0, SVG Export Plug-In . SVG Version: 6.00 Build 0)  -->
<svg version="1.1" id="Layer_1" xmlns="http://www.w3.org/2000/svg" xmlns:xlink="http://www.w3.org/1999/xlink" x="0px" y="0px"
	 viewBox="0 0 56.7 56.7" style="enable-background:new 0 0 56.7 56.7;" xml:space="preserve">
<g>
	<path d="M23.9,25.2c0,0.1,0,0.5-0.3,0.8c-0.3,0.4-0.8,0.4-0.8,0.4c-0.1,0-0.5,0-0.8-0.3c-0.3-0.3-0.3-0.8-0.3-0.9
		c0-0.1,0-0.7,0.5-1c0.3-0.2,0.5-0.2,0.6-0.2c0.1,0,0.4,0,0.7,0.2C23.9,24.5,23.9,25.1,23.9,25.2z"/>
	<path d="M31.5,24.9c0,0.1,0,0.5-0.3,0.8c-0.3,0.4-0.8,0.4-0.8,0.4c-0.1,0-0.5,0-0.8-0.3c-0.3-0.3-0.3-0.8-0.3-0.9
		c0-0.1,0-0.7,0.5-1c0.3-0.2,0.5-0.2,0.6-0.2c0.1,0,0.4,0,0.7,0.2C31.5,24.3,31.5,24.8,31.5,24.9z"/>
	<path d="M28.5,53.2c-5.8,0-11.4-2.2-15.9-6.2C7.5,42.5,4.4,36.1,4,29.5l0,0C3.4,16.5,13.1,4.9,25.7,3.6c6.6-0.7,13.4,1.6,18.6,6.4
		c5.4,5,8.5,11.9,8.4,18.9c-0.2,12.6-10.3,23.5-22.6,24.3C29.5,53.2,29,53.2,28.5,53.2z M7.7,29.3c0.3,5.6,2.9,11.1,7.3,15
		c4.2,3.7,9.5,5.6,14.8,5.2c10.4-0.7,19-10,19.2-20.7c0.1-6-2.5-11.9-7.2-16.1c-4.4-4-10.1-6-15.7-5.4C15.4,8.4,7.2,18.3,7.7,29.3
		L7.7,29.3z"/>
	<path d="M23.7,37.4c0.4,2.9,2.7,5.5,5.5,6.4c1.7,0.5,3.7,0.5,4.8-1c0.5-0.7,0.8-1.5,1-2.3c0.3-0.8,0.5-1.7,0.5-2.7
		c0-1.9-1.4-3.8-3.5-3.9c-1.5,0-1.5,2.3,0,2.3c0.2,0,0.4,0.1,0.5,0.2c0.3,0.2,0.4,0.4,0.5,0.7c0.2,0.5,0.1,1.3,0,1.9
		c-0.2,0.7-0.5,1.5-0.8,2.2c-0.3,0.6-0.9,0.6-1.5,0.5c-2.5-0.2-4.6-2.5-4.9-5c-0.1-0.6-0.9-1-1.4-0.8C23.9,36.2,23.6,36.8,23.7,37.4
		L23.7,37.4z"/>
</g>
</svg>
