<?xml version="1.0" encoding="utf-8"?>
<!-- Generator: Adobe Illustrator 24.3.0, SVG Export Plug-In . SVG Version: 6.00 Build 0)  -->
<svg version="1.1" id="Layer_1" xmlns="http://www.w3.org/2000/svg" xmlns:xlink="http://www.w3.org/1999/xlink" x="0px" y="0px"
	 viewBox="0 0 56.7 56.7" style="enable-background:new 0 0 56.7 56.7;" xml:space="preserve">
<style type="text/css">
	.st0{fill:none;stroke:#000000;stroke-width:6;stroke-miterlimit:10;}
</style>
<g>
	<path d="M37.7,52.8l-20.3-0.9L17,37.3c-2-1.1-3.6-2.4-5-4.1c-2-2.5-4.2-6.7-3.7-13.3c0.4-4.5,2.4-9.2,5.6-12.8
		c3.6-4.2,8.3-6.6,13.3-6.8c11.4-0.5,17.7,10.4,18.4,11.6c3.7,6.6,3.2,11.5,2.1,14.5c-1.1,3.3-3.5,5.9-4.6,7.1
		c-1.3,1.5-2.9,2.8-4.5,3.9L37.7,52.8z M20.4,48.9l14.4,0.7l0.8-13.8l0.7-0.4c1.7-1.1,3.2-2.4,4.6-3.9c1-1.1,3.1-3.4,4-6
		c0.8-2.4,1.2-6.4-1.9-12C42.6,13,37,3,27.3,3.4c-9.4,0.4-15.3,10-15.9,16.8c-0.5,5.5,1.3,9,3,11c1.3,1.6,2.9,2.8,4.8,3.7l0.9,0.4
		L20.4,48.9z"/>
	<path d="M29.6,36.7c-0.9-3.4-1.2-6.6-1.1-9.7c-0.9,0.1-1.9,0-2.8-0.1c0.2,2.3,0.4,5,0.6,8.3l-3.1,0.1c-0.2-3.9-0.4-6.8-0.7-9.1
		c-1.4-0.5-2.6-1.2-3.6-2.2c-0.5-0.5-3.2-3.4-2.1-5.9c0.7-1.5,2.6-2.6,4.2-2.4c1.6,0.3,3.2,1.6,4.3,8.1c1.2,0.2,2.4,0.2,3.6,0.1
		c0.1-0.8,0.3-1.5,0.5-2.3c0.6-2.4,1.5-5.8,3.9-5.9c1-0.1,2.1,0.5,3,1.7c0.9,1.2,1.8,3.3,1.1,5.1c-0.6,1.8-2.7,3.3-5.7,4
		c-0.2,3,0.1,6.1,0.9,9.4L29.6,36.7z M33.5,18.9c-0.3,0.5-0.7,1.7-1.2,3.4c-0.1,0.2-0.1,0.5-0.2,0.7c1.3-0.5,2.1-1.2,2.3-1.6
		C34.6,20.7,34,19.5,33.5,18.9z M20.5,18.7c-0.2,0-0.7,0.3-0.8,0.5c-0.2,0.4,0.5,1.7,1.4,2.5c0.3,0.3,0.5,0.5,0.9,0.7
		C21.3,19.5,20.6,18.9,20.5,18.7z M33.2,18.7L33.2,18.7L33.2,18.7z"/>
	<path d="M28.1,56.4c-1.5,0-2.9-0.6-3.9-1.7c-1.1-1.1-1.7-2.6-1.7-4.2l3.1,0.1c0,0.7,0.3,1.4,0.8,1.9c0.5,0.5,1.1,0.8,1.8,0.7
		c1.3,0,2.4-1.1,2.4-2.4l3.1,0.2C33.5,54,31.1,56.4,28.1,56.4C28.2,56.4,28.1,56.4,28.1,56.4z"/>
	<path class="st0" d="M32.1,54.9"/>
	<rect x="19" y="44.8" transform="matrix(0.9524 -0.3048 0.3048 0.9524 -12.8223 10.6514)" width="17.4" height="3.1"/>
	<rect x="18.3" y="39.3" transform="matrix(0.9501 -0.3118 0.3118 0.9501 -11.3898 10.5672)" width="18.2" height="3.1"/>
	
		<rect x="26.3" y="27.2" transform="matrix(1.368693e-02 -0.9999 0.9999 1.368693e-02 -9.0351 63.7692)" width="3.1" height="18.6"/>
</g>
</svg>
