<?xml version="1.0" encoding="utf-8"?>
<!-- Generator: Adobe Illustrator 24.3.0, SVG Export Plug-In . SVG Version: 6.00 Build 0)  -->
<svg version="1.1" id="Layer_1" xmlns="http://www.w3.org/2000/svg" xmlns:xlink="http://www.w3.org/1999/xlink" x="0px" y="0px"
	 viewBox="0 0 56.7 56.7" style="enable-background:new 0 0 56.7 56.7;" xml:space="preserve">
<g>
	<path d="M30.3,0.4v5.9c1.9,0,3.9,0.8,4.9,2c1.5,1.8,1.1,5.1,0.8,7.4c-0.3,2.7-1.2,4.6-2,6.3c-0.9,2-2.1,4.6-1.7,7.7
		c-0.6,0-1.2,0-1.7,0c-0.4,0-0.8,0-1.3,0c-0.7,0-1.5,0-2.2,0c1.4-3.9,0.1-7.1-0.9-9.5c-0.7-1.7-1.3-3.2-1.3-5.4c0-4,1.1-7,2.9-8
		c0.7-0.4,1.5-0.6,2.5-0.6L30.3,0.4 M30.3,0.4c-1.9,0-3.8,0.4-5.4,1.4c-5.9,3.3-5.8,11.5-5.8,13.1c0,6.8,3.9,9.3,2.5,13
		c-0.8,2.3-3.7,5-13.1,6.1c5.9,1,12.9,1.7,20.9,1.7c0.4,0,0.9,0,1.3,0c7.4-0.1,13.9-0.8,19.5-1.7c-8.4-0.4-11-2.5-11.8-4.3
		c-1.3-3.2,2.5-5.7,3.4-13.2c0.4-3.1,1-8.1-2.1-11.9C37.6,1.9,33.9,0.4,30.3,0.4L30.3,0.4z"/>
	<path d="M8.1,26.4c-1.3,0-2.4,0.3-3.3,1.1c-1.1,0.9-2,2.5-1.7,3.9c0.4,2.2,3.4,3.5,5.5,4.2c3.2,1.1,9.6,3,21.7,3
		c4.7,0,10.3-0.3,16.8-1c1.7-0.2,4.8-0.6,5.8-2.6c1-1.9,0.1-5-1.9-6.6c-0.9-0.7-1.8-0.9-2.8-0.9c-2.9,0-6.9,2-13.9,2.4
		c-0.9,0.1-1.7,0.1-2.6,0.1c-4.7,0-8.8-0.7-11.8-1.3C14.6,27.7,10.9,26.4,8.1,26.4L8.1,26.4z"/>
	<path d="M29.5,56.3c-5.8,0-11.9-3.3-13.1-9c-1-4.9,2.1-9.4,5.1-11.7l0,0c5.9-4.6,13.1-3.4,16.9,0c2.9,2.6,5.1,7.4,3.6,12.4
		c-1.9,6-7.9,7.6-9.7,8C31.4,56.2,30.5,56.3,29.5,56.3z M30.3,38.6c-1.9,0-3.8,0.7-5.2,1.8l0,0c-1.2,1-3.4,3.4-2.9,5.8
		c0.6,3.1,5.5,4.8,8.9,4.1c0.7-0.1,4.3-1,5.2-4c0.8-2.4-0.4-4.9-1.9-6.2C33.3,39,31.8,38.6,30.3,38.6z"/>
	<path d="M42.4,47.1"/>
</g>
</svg>
