<?xml version="1.0" encoding="utf-8"?>
<!-- Generator: Adobe Illustrator 25.1.0, SVG Export Plug-In . SVG Version: 6.00 Build 0)  -->
<svg version="1.1" id="Layer_1" xmlns="http://www.w3.org/2000/svg" xmlns:xlink="http://www.w3.org/1999/xlink" x="0px" y="0px"
	 viewBox="0 0 56.7 56.7" style="enable-background:new 0 0 56.7 56.7;" xml:space="preserve">
<g>
	<path d="M9.4,37c-0.9,1-2.1,1.8-3.4,1.9c-1.1,0.1-2.2-0.2-2.9-1.2c-0.7-1.1-0.7-2.4,0.1-3.3c1-1.1,2.5-1.4,3.9-1.2
		c0.4,0,0.9-0.3,1.1-0.7c2-3.9,5.1-7.2,9.1-9.2c3.9-2,8.5-2.7,12.9-2.4c4.4,0.3,8.8,1.7,12.5,4.1c2.1,1.4,4,3.1,5.5,5
		c0.7,0.9,1.3,1.8,1.8,2.7c0.2,0.4,0.4,0.8,0.6,1.2c0.3,0.6,0.5,1.2,1.1,1.5c1,0.4,2,0.8,2.3,2c0.2,0.8-0.5,1.5-1.2,2
		c-1.7,1-3.4,0.4-4.5-0.9c-0.5-0.6-1.7-0.5-2.1,0.3c-0.8,1.9-2.6,3.2-4.8,3.1c-2-0.1-3.7-1.6-4.3-3.5c-0.3-1-1.9-1.4-2.4-0.3
		c-1.4,2.6-4.3,4.2-7.2,3.2c-1.1-0.4-2-1.1-2.7-2.1c0.1,0.2-0.1-0.1-0.1-0.1c-0.1-0.1-0.1-0.2-0.2-0.3c-0.1-0.2-0.2-0.3-0.3-0.5
		C24.1,38.2,24,38,24,37.8c-0.4-0.9-1.8-0.8-2.3,0c-1.3,2.3-3.9,3.8-6.6,3c-1.1-0.3-2-1-2.7-1.9c-0.1-0.1,0.1,0.1-0.1-0.1
		c-0.1-0.1-0.1-0.2-0.2-0.3c-0.1-0.2-0.2-0.3-0.3-0.5c-0.1-0.1-0.1-0.3-0.2-0.4c-0.1-0.1-0.2-0.5,0,0.1c-0.3-0.7-0.9-1.1-1.6-0.9
		c-0.6,0.2-1.2,1-0.9,1.6c1,2.4,3,4.4,5.5,5.1c3.7,1,7.6-1,9.4-4.3c-0.8,0-1.5,0-2.3,0c1,2.3,3.1,4.2,5.5,4.9c3.9,1.1,8-1,9.8-4.5
		c-0.8-0.1-1.6-0.2-2.4-0.3c1,3,3.5,5.1,6.7,5.4c3.1,0.2,6-1.7,7.2-4.4c-0.7,0.1-1.4,0.2-2.1,0.3c2.1,2.4,5.7,2.9,8.3,1
		c1.5-1.1,2.4-2.8,1.9-4.7c-0.5-1.9-2.1-3.2-3.9-3.7c0.3,0.2,0.5,0.4,0.8,0.6c-1.7-3.5-4-6.7-7-9.1c-3-2.4-6.4-4.1-10-5.1
		c-7.2-2-15.4-1.4-21.9,2.5c-3.6,2.2-6.5,5.5-8.5,9.3c0.4-0.2,0.8-0.4,1.1-0.7C5,30.3,2.7,31,1.3,32.7c-1.5,1.8-1.6,4.3-0.5,6.3
		c2.4,4,7.8,3.1,10.5,0c0.5-0.5,0.5-1.3,0-1.9C10.8,36.6,9.9,36.5,9.4,37z"/>
	<path d="M4.8,40.7c1.3,4.6,2.6,9.1,4,13.7c0.2,0.5,0.7,1,1.3,1c9.5-0.3,19.1-0.4,28.6-0.2c2.6,0.1,5.3,0.1,7.9,0.2
		c0.6,0,1.1-0.4,1.3-1c1.1-3.8,2.2-7.7,3.3-11.5c0.5-1.6-2.1-2.3-2.6-0.7c-1.1,3.8-2.2,7.7-3.3,11.5c0.4-0.3,0.9-0.6,1.3-1
		C37,52.3,27.5,52.2,18,52.4c-2.6,0.1-5.3,0.1-7.9,0.2c0.4,0.3,0.9,0.6,1.3,1c-1.3-4.6-2.6-9.1-4-13.7C6.9,38.3,4.4,39,4.8,40.7
		L4.8,40.7z"/>
	<path d="M17.9,4.8c-1.1,0.5-2,1.3-2.4,2.5c-0.4,1.3,0,2.6,0.6,3.7c0.5,0.9,1.3,1.7,1.6,2.8c0,0.1,0.1,0.3,0.1,0.4c0-0.1,0,0,0,0
		c0,0,0,0.4,0,0.2c0-0.1,0,0.2-0.1,0.2c0,0,0,0.1,0,0.1c0-0.1,0-0.1,0,0c0,0.1-0.1,0.2-0.2,0.3c0.1-0.1,0,0,0,0c0.3-0.1-0.2,0.1,0,0
		c-0.7,0.3-1.1,0.9-0.9,1.6c0.2,0.6,1,1.2,1.6,0.9c1.1-0.4,1.8-1.2,2.1-2.4c0.3-1.2,0-2.4-0.6-3.4c-0.5-0.9-1.3-1.8-1.6-2.8
		c-0.1-0.4-0.2-0.8,0-1.2c0.1-0.1,0.4-0.5,0.5-0.5c0.7-0.3,1.1-0.9,0.9-1.6C19.3,5.1,18.5,4.5,17.9,4.8L17.9,4.8z"/>
	<path d="M29.2,1.5c-1.8,1.3-2.5,3.6-1.6,5.6c0.2,0.4,0.4,0.8,0.6,1.3c0.1,0.2,0.2,0.6,0.2,0.9c0,0.2,0.1-0.2,0,0.2
		c0,0.1-0.1,0.2-0.1,0.3c0,0.1-0.1,0.3-0.3,0.5c-0.2,0.4-0.4,0.6-0.8,1c-1.2,1.2,0.7,3.1,1.9,1.9c0.7-0.7,1.3-1.6,1.7-2.5
		c0.4-1.1,0.2-2.3-0.2-3.3c-0.2-0.4-0.4-0.8-0.6-1.1C30,5.9,30,5.9,29.9,5.7c0,0-0.1-0.3,0-0.2c0,0.2,0-0.2,0-0.2c0-0.1,0-0.2,0-0.3
		c0,0.2,0-0.1,0-0.1C30,4.8,30,4.7,30,4.6c0-0.1,0.1-0.2,0,0c0-0.1,0.1-0.2,0.2-0.3c0,0,0.2-0.3,0.1-0.1C30.3,4.1,30.4,4,30.4,4
		c0,0,0.3-0.2,0.1-0.1c0.6-0.4,0.9-1.2,0.5-1.8C30.7,1.4,29.8,1.1,29.2,1.5L29.2,1.5z"/>
	<path d="M39.4,5.5c-0.7,1.1-1.1,2.4-1,3.7c0.2,1.2,0.8,2,1.5,2.9c0.1,0.1,0.3,0.3,0.4,0.4c-0.2-0.2,0.1,0.1,0.1,0.1
		c0.1,0.1,0.1,0.2,0.1,0.3c0.1,0.1,0-0.1,0,0.1c0,0.1,0,0.1,0,0.2c0,0.1,0,0.1,0-0.1c0,0,0,0.3,0,0.4c0,0.3,0.1-0.3,0,0
		c0,0.1,0,0.2-0.1,0.2c0,0.1-0.1,0.2-0.1,0.3c-0.1,0.3,0.1-0.2-0.1,0.1c-0.3,0.5-0.6,0.9-0.9,1.3c-0.5,0.5-0.5,1.3,0,1.9
		c0.5,0.5,1.4,0.5,1.9,0c1.4-1.6,2.6-3.7,1.4-5.8c-0.2-0.4-0.6-0.8-0.9-1.2c-0.1-0.1-0.3-0.3-0.4-0.5c-0.2-0.3,0.1,0.2-0.1-0.1
		c-0.1-0.1-0.1-0.2-0.2-0.3c-0.1-0.2,0,0,0-0.1C41.1,9.1,41,9,41,8.9c0-0.2,0-0.4,0-0.6c0.1-0.6,0.3-0.9,0.6-1.4
		c0.4-0.6,0.1-1.5-0.5-1.8C40.6,4.7,39.8,4.9,39.4,5.5L39.4,5.5z"/>
	<path d="M21.6,23.1c-1.5,0.4-3,0.9-4.3,1.9c-1,0.8-2,1.8-2.1,3.1c-0.1,1.8,1.8,3.3,3.5,3.4c1.4,0.1,2.5-0.9,3.2-2
		c1-1.5,1.3-3.4,1.3-5.2c0-0.7-0.6-1.4-1.3-1.3c-0.7,0-1.3,0.6-1.3,1.3c0,0.4,0,0.7-0.1,1.1c0,0,0,0.1,0,0.2c0-0.1,0-0.1,0-0.2
		c0,0.1,0,0.1,0,0.2c0,0.2-0.1,0.4-0.1,0.5c-0.1,0.3-0.1,0.6-0.2,0.9c0,0.1-0.1,0.3-0.2,0.4c0,0,0.1-0.3,0-0.1
		c0,0.1-0.1,0.2-0.1,0.3c-0.1,0.2-0.2,0.4-0.4,0.6c-0.1,0.1-0.2,0.2,0.1-0.1c0,0-0.1,0.1-0.1,0.1c-0.1,0.1-0.2,0.2-0.3,0.3
		c0,0-0.1,0.1-0.1,0.1c-0.1,0.1-0.2,0.1,0.1-0.1c-0.1,0-0.1,0.1-0.2,0.1c-0.1,0-0.2,0.1-0.2,0.1c0.4-0.2,0.1-0.1,0,0
		c0,0-0.1,0-0.1,0c0.4-0.1,0.3,0,0.2,0c-0.1,0-0.2,0-0.2,0c-0.3,0,0.3,0.1,0.1,0c-0.1,0-0.1,0-0.2,0c-0.1,0-0.2-0.2,0,0
		c0,0-0.4-0.3-0.4-0.2c0,0,0.2,0.2,0,0c-0.1,0-0.1-0.1-0.1-0.1c0,0-0.1-0.2-0.2-0.2c0,0,0.2,0.3,0.1,0.1c0,0-0.1-0.2-0.1-0.2
		c0.1,0.1,0.1,0.3,0,0.1c0-0.1,0-0.1,0-0.2c0.1,0.3,0,0.3,0,0.1c0,0,0-0.1,0-0.1c0-0.2-0.1,0.4,0,0.2c0-0.1,0-0.1,0.1-0.2
		c0.1-0.3-0.2,0.3,0,0.1c0-0.1,0.1-0.2,0.2-0.3c0,0,0.1-0.1,0.1-0.1c0.1-0.2-0.1,0.1-0.1,0.1c0.1-0.1,0.2-0.2,0.2-0.3
		c0.1-0.1,0.1-0.1,0.2-0.2c0.1-0.1,0.5-0.3,0.1-0.1c0.5-0.4,1-0.7,1.6-1c0.1,0,0.2-0.1,0.2-0.1c-0.3,0.1-0.1,0,0,0
		c0.2-0.1,0.4-0.1,0.5-0.2c0.4-0.1,0.8-0.3,1.3-0.4c0.7-0.2,1.1-1,0.9-1.6C23,23.3,22.3,22.9,21.6,23.1z"/>
	<path d="M34.2,24.7c0.1,1.7,0.3,3.4,1,4.9c0.5,1.1,1.3,2.1,2.5,2.4c1.8,0.4,3.8-1.1,4.1-2.9c0.2-1.3-0.4-2.5-1.3-3.5
		c-1.2-1.2-3-2-4.6-2.3c-0.7-0.2-1.5,0.2-1.6,0.9c-0.2,0.7,0.2,1.5,0.9,1.6c0.3,0.1,0.7,0.2,1,0.3c0.2,0,0.3,0.1,0.5,0.2
		c0.1,0,0.2,0.1,0.3,0.1c0,0-0.1,0-0.1-0.1c0.1,0,0.1,0,0.2,0.1c0.3,0.1,0.5,0.3,0.8,0.4c0.1,0.1,0.2,0.1,0.3,0.2
		c0.1,0,0.1,0.1,0.2,0.1c0.1,0.1,0.2,0.3,0,0c0.2,0.2,0.4,0.3,0.5,0.5c0.1,0.1,0.1,0.2,0.2,0.2c0.1,0.1,0.1,0.2-0.1-0.1
		c0,0.1,0.1,0.1,0.1,0.2c0.1,0.1,0.1,0.2,0.2,0.3c0,0,0,0.1,0.1,0.1c0.1,0.2-0.1-0.3-0.1-0.1c0,0.1,0.1,0.1,0.1,0.2c0,0,0,0.1,0,0.1
		c0,0.1,0,0.2,0-0.2c0,0.1,0,0.2,0,0.2c0,0.2-0.1,0.2,0-0.2c0,0,0,0.1,0,0.2c0,0,0,0.1,0,0.1c0,0.1,0,0.1,0-0.1c0,0-0.1,0.2-0.1,0.2
		c0,0-0.1,0.2-0.1,0.2c0,0,0.1-0.1,0.1-0.1c0,0-0.1,0.1-0.1,0.1c-0.1,0.1-0.1,0.1-0.2,0.2c-0.1,0.1-0.2,0.1,0,0
		c-0.1,0-0.3,0.2-0.4,0.2c-0.2,0.1,0.1,0,0.1,0c0,0-0.2,0.1-0.2,0.1c-0.2,0.1,0.1,0,0.1,0c-0.1,0-0.1,0-0.2,0c-0.2,0-0.1,0,0.2,0
		c-0.1,0-0.1,0-0.2-0.1c-0.1,0-0.2-0.1,0.2,0.1c0,0-0.1,0-0.1-0.1c-0.1,0-0.1-0.1-0.2-0.1c-0.1-0.1,0.3,0.2,0.1,0.1
		c0,0-0.1-0.1-0.1-0.1c-0.1-0.1-0.1-0.1-0.2-0.2c-0.2-0.2,0.2,0.2,0,0c-0.1-0.2-0.3-0.4-0.4-0.6c0-0.1-0.1-0.1-0.1-0.2
		c-0.1-0.3,0.1,0.2,0,0c-0.1-0.2-0.1-0.3-0.2-0.5c-0.1-0.3-0.2-0.6-0.3-0.9c0-0.2-0.1-0.4-0.1-0.6c0-0.1,0-0.2,0-0.2
		c-0.1-0.4,0,0.2,0-0.1c0-0.4-0.1-0.9-0.1-1.3c0-0.7-0.6-1.4-1.3-1.3C34.8,23.4,34.1,24,34.2,24.7z"/>
	<path d="M27.7,26c-0.9,1.3-1.8,2.7-2.1,4.3c-0.3,1.3-0.3,2.7,0.6,3.7c1,1.2,3.1,1.3,4.4,0.5c1.2-0.7,1.6-2.1,1.5-3.5
		c-0.2-2-1.1-3.7-2.3-5.2c-0.4-0.5-1.4-0.5-1.9,0c-0.5,0.6-0.5,1.3,0,1.9c0.3,0.3-0.1-0.1,0.1,0.1c0,0.1,0.1,0.1,0.1,0.2
		c0.1,0.1,0.2,0.3,0.3,0.4c0.2,0.3,0.4,0.6,0.5,0.9c0,0.1,0.3,0.5,0.1,0.2c0.1,0.1,0.1,0.2,0.1,0.4c0.1,0.3,0.2,0.6,0.2,0.8
		c0,0.1,0,0.1,0,0.2c0,0.2-0.1,0.1,0-0.1c0,0.1,0,0.2,0,0.3c0,0.1,0,0.3,0,0.4c0,0,0,0.1,0,0.1c0,0.2,0.1-0.3,0-0.1
		c0,0.1,0,0.2-0.1,0.3c0,0.1-0.1,0.4,0,0.1c0.1-0.2,0,0-0.1,0.1c0,0-0.1,0.1-0.1,0.1c0-0.2,0.2-0.2,0.1-0.1c0,0-0.1,0.1-0.1,0.1
		c-0.2,0.2,0.1-0.1,0.1-0.1c0,0-0.2,0.1-0.2,0.1c-0.2,0.1,0-0.1,0.1,0c0,0-0.3,0.1-0.3,0.1c0,0-0.2,0-0.2,0c0.2,0,0.2,0,0.1,0
		c0,0-0.1,0-0.1,0c-0.1,0-0.1,0-0.2,0c-0.1,0-0.2-0.1,0,0c0.2,0.1,0,0-0.1,0c-0.1,0-0.1,0-0.2,0c-0.2,0,0.1,0,0.1,0
		c0,0-0.1-0.1-0.1-0.1c0,0-0.3-0.2-0.1,0c0.2,0.1,0,0,0,0c0,0-0.1-0.2,0,0c0.2,0.2,0,0.1,0,0c0,0,0-0.1-0.1-0.1
		c-0.1-0.1,0.1,0.2,0.1,0.2c0-0.1-0.1-0.2-0.1-0.2c0,0,0-0.1,0-0.1c-0.1-0.2,0,0.3,0,0.1c0-0.2,0-0.4,0-0.6c0-0.1,0-0.1,0-0.2
		c0-0.2-0.1,0.4,0,0.1c0-0.1,0-0.3,0.1-0.4c0.1-0.3,0.2-0.6,0.3-0.9c0-0.1,0-0.1,0.1-0.2c0.1-0.3-0.1,0.3,0,0
		c0.1-0.2,0.1-0.3,0.2-0.5c0.4-0.7,0.8-1.4,1.3-2.1c0.4-0.6,0.1-1.5-0.5-1.8C28.8,25.2,28.1,25.4,27.7,26z"/>
</g>
</svg>
