<?xml version="1.0" encoding="utf-8"?>
<!-- Generator: Adobe Illustrator 25.1.0, SVG Export Plug-In . SVG Version: 6.00 Build 0)  -->
<svg version="1.1" id="Layer_1" xmlns="http://www.w3.org/2000/svg" xmlns:xlink="http://www.w3.org/1999/xlink" x="0px" y="0px"
	 viewBox="0 0 56.7 56.7" style="enable-background:new 0 0 56.7 56.7;" xml:space="preserve">
<style type="text/css">
	.st0{fill:none;stroke:#000000;stroke-miterlimit:10;}
</style>
<path class="st0" d="M40.8-31.1"/>
<path d="M35.7,23.2L35.7,23.2C35.7,23.2,35.7,23.2,35.7,23.2C35.7,23.2,35.7,23.2,35.7,23.2z"/>
<path d="M35.7,23.2C35.8,23.3,35.8,23.3,35.7,23.2C35.8,23.3,35.8,23.2,35.7,23.2z"/>
<path d="M37.2,23.2C37.2,23.2,37.2,23.2,37.2,23.2C37.2,23.2,37.2,23.2,37.2,23.2C37.2,23.2,37.2,23.2,37.2,23.2z"/>
<path d="M-48.6,12.4C-48.6,12.1-48.6,12.6-48.6,12.4L-48.6,12.4z"/>
<path d="M35.7,23.2L35.7,23.2C35.7,23.2,35.7,23.2,35.7,23.2C35.7,23.2,35.7,23.2,35.7,23.2z"/>
<path d="M35.8,23.3C35.8,23.3,35.8,23.2,35.8,23.3C35.8,23.3,35.8,23.3,35.8,23.3z"/>
<path d="M-44.4,14.4L-44.4,14.4c0-0.1,0-0.1,0-0.1C-44.3,14-44.4,14.6-44.4,14.4z"/>
<path d="M35.7,23.2L35.7,23.2C35.7,23.2,35.7,23.2,35.7,23.2C35.7,23.2,35.7,23.2,35.7,23.2z"/>
<path d="M35.8,23.3C35.8,23.3,35.8,23.2,35.8,23.3C35.8,23.3,35.8,23.3,35.8,23.3z"/>
<path d="M37.2,23.2C37.2,23.2,37.2,23.2,37.2,23.2C37.2,23.2,37.2,23.2,37.2,23.2C37.2,23.2,37.2,23.2,37.2,23.2z"/>
<path d="M-53.3,14.9C-53.3,14.9-53.3,14.9-53.3,14.9C-53.3,14.9-53.3,14.9-53.3,14.9C-53.3,14.9-53.3,14.9-53.3,14.9
	C-53.3,14.9-53.3,14.9-53.3,14.9z"/>
<path d="M-52.6,17.9L-52.6,17.9C-52.6,17.9-52.6,17.9-52.6,17.9C-52.6,17.9-52.6,17.9-52.6,17.9z"/>
<path d="M-52.5,17.9C-52.5,17.9-52.5,17.9-52.5,17.9C-52.5,17.9-52.6,17.9-52.5,17.9L-52.5,17.9c-0.1,0-0.1,0-0.1,0h0
	C-52.6,17.9-52.6,17.9-52.5,17.9C-52.5,17.9-52.5,17.9-52.5,17.9z"/>
<path d="M-52.5,15.3C-52.6,15.3-52.6,15.3-52.5,15.3C-52.6,15.3-52.6,15.3-52.5,15.3C-52.5,15.3-52.5,15.3-52.5,15.3z"/>
<path d="M-48.9,13.9C-48.9,13.9-48.9,13.9-48.9,13.9L-48.9,13.9C-48.8,13.9-48.8,13.9-48.9,13.9C-48.8,13.9-48.8,13.9-48.9,13.9
	C-48.8,13.8-48.8,13.9-48.9,13.9z"/>
<path d="M-48.6,12.4C-48.6,12.1-48.6,12.6-48.6,12.4L-48.6,12.4z"/>
<path d="M-52.6,17.9L-52.6,17.9C-52.6,17.9-52.6,17.9-52.6,17.9C-52.6,17.9-52.6,17.9-52.6,17.9z"/>
<path d="M-52.5,17.9C-52.5,17.9-52.6,17.9-52.5,17.9C-52.6,17.9-52.6,17.9-52.5,17.9L-52.5,17.9C-52.6,17.9-52.6,17.9-52.5,17.9z"/>
<path d="M-46.6,17.2C-46.6,17.2-46.6,17.3-46.6,17.2L-46.6,17.2C-46.6,17.2-46.6,17.2-46.6,17.2z"/>
<path d="M-44.4,14.4L-44.4,14.4c0-0.1,0-0.1,0-0.1C-44.3,14-44.4,14.6-44.4,14.4z"/>
<path d="M-47.4-1.6C-47.5-1.6-47.5-1.6-47.4-1.6C-47.5-1.6-47.5-1.6-47.4-1.6C-47.4-1.6-47.4-1.6-47.4-1.6
	C-47.4-1.6-47.4-1.5-47.4-1.6C-47.4-1.5-47.4-1.5-47.4-1.6C-47.4-1.6-47.4-1.6-47.4-1.6z"/>
<path d="M55.6,11.3c-0.8-0.5-2-0.2-2.4,0.6c-0.2,0.5-0.5,0.9-0.8,1.4c-0.1,0.1-0.2,0.2-0.2,0.3c0,0,0,0,0,0c0,0,0,0,0,0v0
	c0,0,0,0,0,0c0,0,0,0,0,0c0,0-0.1,0.1-0.1,0.1c-0.3,0.3-0.5,0.6-0.8,0.9c-0.2,0.3-0.5,0.5-0.8,0.7v0c0,0,0,0,0,0
	c0,0-0.1,0.1-0.1,0.1c0,0,0,0,0,0c0,0,0,0,0,0c-0.1,0.1-0.2,0.1-0.3,0.2c-0.4,0.3-0.9,0.5-1.4,0.7l0,0c0,0,0,0,0,0c0,0,0,0,0,0
	c0,0,0,0,0,0c0,0,0,0,0,0c0,0,0,0,0,0c0,0,0,0,0,0s0,0,0,0c0,0,0,0,0,0c-0.2,0.1-0.3,0.1-0.5,0.2c-0.5,0.2-1,0.3-1.5,0.5
	c-1.3,0.4-2.7,0.8-4,1c-0.8,0.2-1.6,0.3-2.4,0.5c-0.3,0.1-0.6,0.1-0.9,0.2c-0.2,0-0.3,0-0.5,0.1c0,0,0,0-0.1,0c-0.1,0-0.1,0-0.2,0
	c-1,0.1-1.9,0.2-2.8,0.4c-1,0.2-2,0.7-2.9,1.2c-1.7,1-3.1,2.4-4.3,4c-1.8-2.9-4.4-5.2-7.9-5.9c-2.2-0.4-4.5-0.3-6.8-0.5
	c-1.2-0.1-2-0.2-3.2-0.5c-1.1-0.3-2.1-0.8-3.1-1.5c-0.3-0.2-0.3-0.2-0.6-0.4c-0.2-0.2-0.5-0.4-0.7-0.6c-0.4-0.4-0.8-0.8-1.2-1.3
	c-0.1-0.1-0.2-0.2-0.2-0.2c0,0,0-0.1-0.1-0.1c0,0,0,0,0-0.1c-0.2-0.2-0.3-0.4-0.5-0.6c-0.3-0.4-0.5-0.8-0.8-1.2
	c-0.5-0.8-1.6-1.1-2.4-0.6c-0.8,0.5-1.1,1.6-0.6,2.4c2.1,3.7,5.4,6.7,9.5,7.8c-0.3,1.4-0.2,2.8,0.4,4.1c0.7,1.6,2,2.8,3.6,3.5
	c3.2,1.4,7.3,0.9,9.4-2.2c0.4-0.6,0.7-1.3,0.9-2c0.2,0.2,0.3,0.3,0.4,0.5c0.3,0.3,0.5,0.7,0.8,1.2c0.3,0.4,0.5,0.9,0.7,1.3
	c0,0.1,0.1,0.2,0.2,0.3v0c0,0,0,0,0,0l0,0c0,0,0,0.1,0,0.1c0.1,0.2,0.1,0.4,0.2,0.5h-0.1c-0.1,0-0.1,0-0.2,0c0,0,0,0,0,0
	c0,0,0,0-0.1,0c0,0-0.1,0-0.1,0c-0.2,0.1-0.4,0.3-0.6,0.5c0,0,0,0.1,0,0.1c0,0.1-0.1,0.2-0.1,0.3c0,0.2,0,0.3,0,0.5
	c0.7,1.8,1.3,3.6,2,5.5c0.2,0.5,0.6,0.9,1.1,0.9c0.5,0,1-0.3,1.1-0.9c0.6-1.8,1.2-3.6,1.7-5.4c0.2-0.8-0.4-1.5-1.1-1.5h-0.1
	c0.2-0.3,0.3-0.7,0.5-1c0.2-0.2,0.3-0.5,0.5-0.7c0.1-0.1,0.2-0.3,0.3-0.4c0,0,0.1-0.1,0.1-0.2c0,0,0,0,0,0c0,0,0,0,0.1-0.1
	c0.4-0.5,0.8-1,1.3-1.4c0.3-0.3,0.5-0.5,0.8-0.7c0.3,1.1,0.9,2.1,1.7,3c1.2,1.2,2.8,2,4.5,2.3c1.7,0.2,3.5-0.1,4.9-1.1
	c1.3-1,2.2-2.3,2.6-3.8c0.3-1.3,0.3-2.6,0-3.8c0.1,0,0.2-0.1,0.3-0.1c1.4-0.5,2.9-1,4.2-1.8c2-1.2,3.6-3.2,4.6-5.2
	C56.7,12.9,56.5,11.8,55.6,11.3z M17.7,22.1c0.9,0,1.8,0.2,2.7,0.4c-0.1,0.3-0.3,0.6-0.6,0.8c-0.6,0.5-1.4,0.8-2,0.7
	c-0.8-0.1-1.5-0.5-1.9-1.2c-0.2-0.3-0.3-0.6-0.3-0.8C16.3,22,17,22,17.7,22.1z M41.8,21.9C41.8,21.6,41.9,22,41.8,21.9L41.8,21.9z
	 M43.5,25.2C43.5,25.2,43.5,25.2,43.5,25.2C43.5,25.2,43.5,25.2,43.5,25.2C43.5,25.2,43.5,25.2,43.5,25.2z M39.3,25.7
	C39.2,25.7,39.2,25.7,39.3,25.7L39.3,25.7z M45,23.4C45,23.4,45,23.4,45,23.4C45,23.4,45,23.3,45,23.4C45.1,23,45,23.5,45,23.4z
	 M38.7,22.7c1-0.1,2.1-0.3,3.1-0.5v0.1c0,0,0,0.2,0,0.2c0,0,0,0,0-0.1c0,0.1,0,0.1,0,0.1c0,0.2-0.1,0.3-0.1,0.5c0,0,0,0,0,0
	c0,0,0,0,0,0c0,0,0,0,0,0.1c-0.1,0.1-0.1,0.2-0.2,0.3c0,0,0,0,0,0.1c0,0,0,0,0,0c0,0,0,0,0,0c0,0,0,0,0,0c0,0,0,0,0,0
	c-0.1,0.1-0.1,0.1-0.2,0.2c0,0.1-0.1,0.1-0.2,0.1c0.1-0.1-0.2,0.1-0.2,0.2c0,0-0.1,0.1-0.2,0.1c0,0,0,0,0,0c0,0,0,0-0.1,0
	c0,0,0,0,0,0c-0.1,0-0.2,0-0.2,0.1c-0.1,0-0.2,0-0.2,0.1c0,0-0.2,0-0.2,0c-0.1,0-0.2,0-0.3,0c0,0-0.1,0-0.1,0c0,0,0.1,0,0.1,0
	c-0.1,0-0.1,0-0.1,0c-0.2,0-0.4-0.1-0.5-0.2c0,0,0,0,0,0c0,0,0,0,0,0c0,0,0,0,0,0c0,0,0,0-0.1,0c-0.1,0-0.2-0.1-0.2-0.1
	c0,0-0.1-0.1-0.2-0.1c-0.1-0.1-0.2-0.2-0.2-0.2c-0.1,0-0.1-0.1-0.1-0.1c0,0,0,0,0,0c0,0-0.1-0.2-0.1-0.2c0-0.1-0.1-0.1-0.1-0.2
	c0,0,0-0.1-0.1-0.1c0,0,0,0,0,0c0,0,0,0,0,0h0c0,0,0,0,0,0C38,22.8,38.4,22.7,38.7,22.7z"/>
<path d="M41.8,21.9L41.8,21.9C41.8,21.6,41.9,22,41.8,21.9z"/>
<path d="M31.3,26.6C31.3,26.6,31.3,26.5,31.3,26.6C31.3,26.6,31.3,26.6,31.3,26.6C31.3,26.6,31.3,26.6,31.3,26.6z"/>
<path d="M37.3,22.9C37.2,22.9,37.2,22.9,37.3,22.9C37.2,22.9,37.2,22.9,37.3,22.9C37,22.9,36.8,22.8,37.3,22.9z"/>
<path d="M48.3,16.7C48.3,16.7,48.3,16.7,48.3,16.7C48.3,16.7,48.3,16.7,48.3,16.7C48.3,16.7,48.3,16.7,48.3,16.7z"/>
<path d="M48.4,16.7C48.4,16.7,48.4,16.7,48.4,16.7C48.4,16.7,48.4,16.7,48.4,16.7C48.4,16.7,48.4,16.7,48.4,16.7
	C48.4,16.7,48.4,16.7,48.4,16.7z"/>
<path d="M48.5,16.7C48.5,16.6,48.5,16.6,48.5,16.7C48.5,16.6,48.5,16.6,48.5,16.7C48.5,16.7,48.5,16.7,48.5,16.7
	C48.5,16.7,48.5,16.7,48.5,16.7z"/>
<path d="M50.4,15.6C50.4,15.5,50.4,15.5,50.4,15.6L50.4,15.6C50.4,15.5,50.4,15.5,50.4,15.6C50.4,15.5,50.4,15.5,50.4,15.6z"/>
<path d="M52.1,13.7L52.1,13.7C52.1,13.8,52.1,13.8,52.1,13.7C52.1,13.8,52.1,13.8,52.1,13.7C52.1,13.7,52.1,13.7,52.1,13.7z"/>
<g>
	<path d="M25.8,28.9c-0.2,0.1-0.4,0.3-0.6,0.5C25.3,29.2,25.5,29,25.8,28.9z"/>
	<path d="M26.4,28.8c-0.1,0-0.2,0-0.3,0c0.1,0,0.2,0,0.2,0H26.4z"/>
</g>
<path d="M45,23.4C45,23.4,45,23.4,45,23.4C45,23.4,45,23.3,45,23.4C45.1,23,45,23.5,45,23.4z"/>
<path d="M37.7,22.8C37.7,22.8,37.7,22.9,37.7,22.8C37.7,22.9,37.7,22.9,37.7,22.8C37.7,22.8,37.7,22.8,37.7,22.8L37.7,22.8
	C37.7,22.8,37.7,22.8,37.7,22.8z"/>
<path d="M39.2,25.7L39.2,25.7C39.2,25.7,39.2,25.7,39.2,25.7z"/>
<path d="M39.5,24.2C39.5,24.2,39.5,24.2,39.5,24.2C39.5,24.2,39.4,24.2,39.5,24.2C39.4,24.2,39.5,24.2,39.5,24.2z"/>
<path d="M40.6,24.1C40.6,24.1,40.6,24.1,40.6,24.1C40.6,24.1,40.6,24.1,40.6,24.1C40.5,24.1,40.6,24.1,40.6,24.1z"/>
<path d="M41.7,23C41.7,23,41.7,23,41.7,23C41.7,23,41.7,23,41.7,23z"/>
<path d="M41.8,22.4C41.8,22.4,41.8,22.4,41.8,22.4C41.8,22.4,41.8,22.5,41.8,22.4z"/>
<path d="M41.8,21.9L41.8,21.9C41.8,21.6,41.9,22,41.8,21.9z"/>
<path d="M15.5,21L15.5,21C15.5,21.1,15.5,21.1,15.5,21C15.5,21.2,15.5,21.1,15.5,21z"/>
<path d="M45,23.3C45,23.3,45,23.4,45,23.3C45,23.4,45,23.4,45,23.3C45,23.5,45.1,23,45,23.3z"/>
<path d="M39.2,25.7L39.2,25.7C39.2,25.7,39.2,25.7,39.2,25.7z"/>
<path d="M43.5,25.2C43.5,25.2,43.5,25.2,43.5,25.2C43.5,25.2,43.5,25.2,43.5,25.2C43.5,25.2,43.5,25.2,43.5,25.2z"/>
<path d="M51.2,16.3c-0.8-1.6-1.8-3-2.8-4.4c-3.5-4.1-8.4-6.8-13.6-8.1c-5.3-1.3-11.2-1.2-16.3,0.6C14.5,5.8,11,8.1,8.3,11.4
	c-4,4.8-5.9,11-5.1,17.2C3.9,33.5,6,38,8.9,42c3.3,4.5,7.6,8.1,12.8,10.4c1.8,0.8,3.8,1.5,5.7,2c0.8,0.2,1.7,0.5,2.5,0.3
	c0.7-0.2,1.5-0.5,2.1-0.7c5-1.9,9.5-4.8,13.1-8.7c1.8-1.9,3.3-4,4.7-6.3c1.4-2.3,2.6-4.9,3.2-7.6C54.2,26.3,53.5,21,51.2,16.3z
	 M50.1,27.3C50,28.4,50,29,49.7,30c-0.2,0.9-0.5,1.9-0.8,2.8c-0.1,0.4-0.3,0.8-0.5,1.2c0,0.1-0.1,0.3-0.1,0.3
	c-0.1,0.2-0.2,0.4-0.3,0.6c-0.3,0.7-0.7,1.4-1.1,2.1c-0.7,1.2-1.5,2.3-2.3,3.4c-0.5,0.7-1.1,1.5-1.8,2.2c-0.7,0.8-1.4,1.5-2.2,2.2
	c-0.3,0.3-0.6,0.6-1,0.9c-0.2,0.1-0.3,0.3-0.5,0.4c0,0,0,0,0,0c0,0,0,0,0,0c0,0,0,0,0,0c-0.1,0.1-0.2,0.1-0.3,0.2
	c-0.7,0.5-1.5,1-2.2,1.5c-1.4,0.9-2.9,1.6-4.4,2.3c0,0,0,0,0,0c0,0,0,0,0,0s0,0,0,0c-0.1,0-0.1,0-0.1,0c0,0,0,0,0,0
	c-0.2,0.1-0.3,0.1-0.5,0.2c-0.3,0.1-0.6,0.2-0.9,0.3c-0.4,0.1-0.8,0.3-1.1,0.4c0.2,0,0.4,0.1,0.6,0.1H29c0.1,0,0.3-0.1,0.4-0.1
	c-1.8-0.4-3.5-0.9-5.2-1.6c0,0-0.2-0.1-0.2-0.1c0,0,0,0,0,0c0,0,0,0,0,0c0,0,0,0,0,0c0,0,0,0,0,0c-0.1,0-0.3-0.1-0.3-0.1
	c-0.4-0.2-0.7-0.3-1.1-0.5c-0.7-0.4-1.4-0.7-2.1-1.1c-0.7-0.4-1.4-0.9-2.1-1.4c-0.2-0.1-0.4-0.3-0.5-0.4c0,0-0.2-0.1-0.3-0.2
	c0,0,0,0,0,0s0,0,0,0c-0.4-0.3-0.7-0.6-1.1-0.9c-2.2-1.9-3.9-3.9-5.5-6.3C10,37.2,9.3,36,8.7,34.7c-0.1-0.2-0.2-0.4-0.2-0.5
	c0-0.1-0.1-0.2-0.1-0.2c0,0,0,0,0,0c-0.2-0.4-0.3-0.8-0.5-1.2c-0.3-0.8-0.5-1.7-0.7-2.5c-0.1-0.4-0.2-0.8-0.3-1.3
	c0-0.1,0-0.2-0.1-0.4c0,0,0-0.1,0-0.2c0,0.2,0-0.2,0-0.2c0-0.2,0-0.3-0.1-0.5c-0.1-1-0.1-2-0.1-3c0-1.1,0.1-1.8,0.4-2.8
	C7.2,21,7.4,20,7.8,19.1c0-0.1,0.1-0.2,0.1-0.3c0,0,0-0.1,0.1-0.2c0,0,0,0,0,0c0,0,0,0,0,0c0,0,0-0.1,0-0.1c0-0.1,0.1-0.1,0.1-0.1
	c0-0.1,0.1-0.2,0.1-0.3c0.2-0.4,0.4-0.8,0.6-1.2c0.4-0.7,0.8-1.4,1.3-2.1c0.1-0.2,0.2-0.3,0.3-0.5c0-0.1,0.1-0.2,0.2-0.2
	c0,0,0,0,0,0c0,0,0,0,0,0c0.2-0.2,0.4-0.5,0.6-0.8c0.4-0.5,0.8-0.9,1.2-1.3c0.3-0.3,0.6-0.6,1-0.9c0.1-0.1,0.2-0.2,0.4-0.3
	c0,0,0,0,0,0c0,0,0,0,0,0s0,0,0,0c1.3-0.8,2.5-1.7,3.9-2.3c0,0,0.2-0.1,0.3-0.1c0,0,0.1,0,0.1,0c0.2-0.1,0.3-0.1,0.5-0.2
	c0.4-0.1,0.8-0.3,1.2-0.4c0.8-0.3,1.6-0.5,2.4-0.7c0.4-0.1,0.8-0.2,1.2-0.2c0.2,0,0.4-0.1,0.6-0.1c0,0,0,0,0.1,0c0,0,0,0,0.1,0
	c0,0,0.1,0,0.1,0c0.1,0,0.2,0,0.2,0c0.8-0.1,1.7-0.1,2.5-0.2c0.8,0,1.7,0,2.5,0c0.4,0,0.8,0.1,1.2,0.1c0.2,0,0.3,0,0.5,0.1
	c0,0,0.1,0,0.1,0c0.1,0,0.3,0,0.4,0.1C33.2,7,34.9,7.4,36.4,8c0.4,0.1,0.7,0.3,1.1,0.4c0.1,0,0.1,0,0.2,0.1h0c0,0,0.1,0,0.1,0h0
	c0,0,0,0,0,0h0c0.2,0.1,0.4,0.2,0.6,0.3c0.8,0.3,1.5,0.7,2.2,1.1c0.7,0.4,1.3,0.8,2,1.3c0,0,0.1,0,0.1,0.1c0,0,0,0,0,0h0
	c0,0,0,0,0.1,0.1l0,0c0.2,0.1,0.3,0.2,0.5,0.4c0.3,0.3,0.6,0.5,0.9,0.8c0.6,0.6,1.1,1.1,1.6,1.8c0.6,0.7,1.2,1.7,1.7,2.6
	c0.2,0.4,0.5,0.9,0.7,1.3c0.1,0.1,0.1,0.2,0.2,0.3c0,0,0,0.1,0.1,0.1c0,0,0,0,0,0c0,0,0,0,0,0c0,0,0,0,0,0s0,0,0,0
	c0,0.1,0.1,0.1,0.1,0.1c0.1,0.1,0.1,0.3,0.2,0.4c0.5,1.4,0.9,2.9,1.2,4.4c0,0.1,0,0.2,0,0.3c0,0,0,0.1,0,0.1c0,0.2,0,0.3,0,0.5
	C50.1,25.5,50.1,26.4,50.1,27.3z"/>
<path d="M8,18.6C8,18.6,8,18.6,8,18.6C8,18.6,8,18.6,8,18.6C8,18.6,8,18.6,8,18.6z"/>
<path d="M24.2,6.7C24.2,6.6,24.2,6.6,24.2,6.7C24.2,6.6,24.2,6.6,24.2,6.7C24.2,6.7,24.2,6.7,24.2,6.7L24.2,6.7
	C24.1,6.7,24.1,6.7,24.2,6.7z"/>
<path d="M29.4,51.2c0.2,0,0.4,0.1,0.6,0.1H29C29.1,51.3,29.2,51.2,29.4,51.2z"/>
<path d="M32,50.2C32,50.2,32,50.2,32,50.2C32,50.2,32,50.2,32,50.2C32,50.2,32,50.2,32,50.2C32,50.2,32,50.2,32,50.2z"/>
<path d="M39,46.2C39,46.1,39,46.1,39,46.2L39,46.2C39,46.2,39,46.2,39,46.2z"/>
<path d="M39,46.1C39.1,46.1,39.1,46.1,39,46.1L39,46.1L39,46.1z"/>
<path d="M42.8,11.4C42.8,11.4,42.8,11.4,42.8,11.4C42.8,11.4,42.8,11.4,42.8,11.4L42.8,11.4z"/>
<path class="st0" d="M34.1,36.2"/>
<path d="M18.2,41c0.5,0.6,1.1,1.3,1.6,1.9c0.2,0.2,0.6,0.4,0.8,0.3c0.3,0,0.6-0.1,0.8-0.3c0.6-0.6,1.2-1.2,1.8-1.9
	c0.4-0.4,0.5-1.2,0-1.7c-0.5-0.4-1.2-0.5-1.7,0c-0.6,0.6-1.2,1.2-1.8,1.9c0.6,0,1.1,0,1.7,0c-0.5-0.6-1.1-1.3-1.6-1.9
	C19.7,39.1,19.3,39,19,39c-0.3,0-0.6,0.1-0.8,0.3c-0.2,0.2-0.4,0.5-0.3,0.8C17.9,40.5,18,40.8,18.2,41L18.2,41z"/>
<path d="M26.4,41.5c0.6,0.5,1.1,1,1.7,1.5c0.5,0.4,1.2,0.5,1.7,0c0.7-0.6,1.3-1.2,2-1.8c0.5-0.4,0.5-1.2,0-1.7
	c-0.5-0.4-1.2-0.4-1.7,0c-0.7,0.6-1.3,1.2-2,1.8c0.6,0,1.1,0,1.7,0c-0.6-0.5-1.1-1-1.7-1.5c-0.5-0.4-1.2-0.5-1.7,0
	C25.9,40.3,25.9,41.1,26.4,41.5L26.4,41.5z"/>
<path d="M35.2,41.1c0.6,0.7,1.1,1.3,1.7,2c0.2,0.2,0.6,0.4,0.8,0.3c0.3,0,0.6-0.1,0.8-0.3c0.6-0.7,1.3-1.3,1.9-2
	c0.4-0.4,0.5-1.2,0-1.7c-0.5-0.4-1.2-0.5-1.7,0c-0.6,0.7-1.3,1.3-1.9,2c0.6,0,1.1,0,1.7,0c-0.6-0.7-1.1-1.3-1.7-2
	c-0.2-0.2-0.6-0.3-0.8-0.3c-0.3,0-0.6,0.1-0.8,0.3c-0.2,0.2-0.4,0.5-0.3,0.8C34.9,40.6,35,40.9,35.2,41.1L35.2,41.1z"/>
<path d="M22.9,47.1c0.6,0.4,1.1,0.7,1.7,1.1c0.3,0.2,0.9,0.2,1.2,0c0.6-0.5,1.2-0.9,1.8-1.4c0.3-0.2,0.5-0.4,0.5-0.7
	c0.1-0.3,0-0.7-0.1-0.9c-0.2-0.3-0.4-0.5-0.7-0.5c-0.3-0.1-0.7-0.1-0.9,0.1c-0.6,0.5-1.2,0.9-1.8,1.4c0.4,0,0.8,0,1.2,0
	c-0.6-0.4-1.1-0.7-1.7-1.1c-0.5-0.3-1.3-0.1-1.6,0.4C22.2,46.1,22.3,46.7,22.9,47.1L22.9,47.1z"/>
<path d="M30.6,47.1c0.4,0.3,0.9,0.7,1.3,1c0.1,0,0.2,0.1,0.3,0.1c0.2,0,0.3,0.1,0.5,0c0.2,0,0.5-0.1,0.7-0.3c0.4-0.5,0.9-1,1.3-1.4
	c0.2-0.2,0.3-0.5,0.3-0.8c0-0.3-0.1-0.6-0.3-0.8c-0.2-0.2-0.5-0.4-0.8-0.3c-0.3,0-0.6,0.1-0.8,0.3c-0.4,0.5-0.9,1-1.3,1.4
	c0.5-0.1,1-0.1,1.4-0.2c-0.4-0.3-0.9-0.7-1.3-1c-0.2-0.2-0.6-0.2-0.9-0.1c-0.3,0.1-0.6,0.3-0.7,0.5c-0.1,0.3-0.2,0.6-0.1,0.9
	c0,0.1,0.1,0.2,0.1,0.3C30.3,46.9,30.4,47,30.6,47.1L30.6,47.1z"/>
</svg>
