<?xml version="1.0" encoding="utf-8"?>
<!-- Generator: Adobe Illustrator 25.1.0, SVG Export Plug-In . SVG Version: 6.00 Build 0)  -->
<svg version="1.1" id="Layer_1" xmlns="http://www.w3.org/2000/svg" xmlns:xlink="http://www.w3.org/1999/xlink" x="0px" y="0px"
	 viewBox="0 0 56.7 56.7" style="enable-background:new 0 0 56.7 56.7;" xml:space="preserve">
<g>
	<path d="M3.4,53.9c1.8-1.7,3.4-3.6,4.8-5.6c0.7-1,1.3-2,1.9-3c0.3-0.5,0.7-1,0.8-1.6c0.1-0.5-0.1-1.2-0.2-1.7
		c-0.8-4.3-0.5-8.8,1-13c-0.8,0.1-1.6,0.2-2.4,0.3c1.7,3.4,2.9,7.1,3.5,10.9c0.2,1.1,1.9,1.3,2.4,0.3c0.7-1.4,1.9-2.6,3.4-3.3
		c1.5-0.6,3.2-0.6,4.6-0.2c-0.3-0.4-0.7-0.9-1-1.3c0-0.3,0,0.1,0,0.1c0,0.2-0.1,0.3-0.1,0.5c-0.1,0.3-0.2,0.7-0.3,1
		c-0.3,0.8-0.6,1.6-1.1,2.4c-0.9,1.4-2,2.5-3.4,3.3c-1.1,0.7-0.7,2.5,0.7,2.5c3.7,0.1,7.4,1.1,10.6,3c0-0.8,0-1.5,0-2.3
		c-1.7,0.9-3.6,1.5-5.5,1.5c-2.4,0.1-4.7-0.5-6.9-1.1c-0.6-0.1-1.1-0.3-1.7-0.5c-0.7-0.2-1.2-0.2-1.8,0.3c-1,0.7-1.9,1.5-2.8,2.3
		c-1.9,1.7-3.7,3.6-5.3,5.6c0.6,0,1.3,0,1.9,0c-1-0.8-2.1-1.6-3.1-2.4c-0.6-0.4-1.3-0.6-1.9,0c-0.5,0.5-0.6,1.4,0,1.9
		c1,0.8,2.1,1.6,3.1,2.4c0.5,0.4,1.4,0.6,1.9,0c2.3-2.9,5-5.5,7.9-7.8c-0.3,0-0.7,0.1-1,0.1c2.9,0.9,6,1.8,9.1,1.8
		c2.6,0.1,5.2-0.7,7.6-1.9c0.9-0.5,0.8-1.8,0-2.3c-3.6-2.2-7.7-3.3-11.9-3.4c0.2,0.8,0.5,1.7,0.7,2.5c3.5-2.1,5.7-5.6,6.2-9.6
		c0.1-0.6-0.5-1.1-1-1.3c-4.3-1.2-9,0.7-11.1,4.7c0.8,0.1,1.6,0.2,2.4,0.3c-0.7-4-2-7.9-3.8-11.5c-0.5-1.1-2.1-0.7-2.4,0.3
		c-1.7,4.9-1.9,10.3-0.8,15.4c0-0.3,0.1-0.7,0.1-1c-1.8,3.5-4.2,6.6-7,9.3C0.2,53.2,2.1,55.1,3.4,53.9z"/>
	<path d="M10.9,43c-2.8-7.8-3.2-17,0.6-24.5C16,9.6,25.3,4.2,35,3c6.2-0.8,12.4,0,18.3,2.1c-0.3-0.3-0.6-0.6-0.9-0.9
		c2.6,9.5,2.3,20.1-2.3,29c-1.9,3.8-4.6,7.3-8,9.9c-4.1,3.2-9.1,4.9-14.3,5.2c-4.3,0.2-8.5-0.4-12.5-1.7c-1.6-0.5-2.3,2.1-0.7,2.6
		c9.4,3.1,20.2,2.6,28.4-3.4c8.3-6.1,12.7-16.2,13.5-26.3c0.2-2.8,0.2-5.6-0.2-8.4c-0.2-1.5-0.4-3-0.7-4.5c-0.1-0.7-0.3-1.4-0.5-2.1
		c-0.1-0.3-0.2-0.7-0.3-1c-0.2-0.7-0.7-0.9-1.4-1.1c-5.4-1.9-11.1-2.7-16.8-2.2C26.6,0.9,16.6,5.7,10.9,14.3C5.4,22.5,5,33.3,8,42.5
		c0.1,0.4,0.3,0.8,0.4,1.2c0.2,0.7,0.9,1.1,1.6,0.9C10.7,44.5,11.2,43.7,10.9,43L10.9,43z"/>
	<path d="M19,36c0.3-6.1,3-12,7.1-16.5c4.4-4.8,10.3-7.9,16.7-9.2c3.7-0.8,7.5-0.9,11.3-0.6c0.7,0.1,1.3-0.7,1.3-1.3
		c0-0.8-0.6-1.3-1.3-1.3c-7.2-0.7-14.5,0.6-21,3.9c-6,3.1-11.1,8.1-14,14.2c-1.7,3.4-2.6,7.1-2.8,11C16.3,37.8,19,37.8,19,36L19,36z
		"/>
</g>
</svg>
