<?xml version="1.0" encoding="utf-8"?>
<!-- Generator: Adobe Illustrator 25.1.0, SVG Export Plug-In . SVG Version: 6.00 Build 0)  -->
<svg version="1.1" id="Layer_1" xmlns="http://www.w3.org/2000/svg" xmlns:xlink="http://www.w3.org/1999/xlink" x="0px" y="0px"
	 viewBox="0 0 56.7 56.7" style="enable-background:new 0 0 56.7 56.7;" xml:space="preserve">
<g>
	<path d="M16.3,56c1.5-3.2,3.9-5.8,7-7.5c1.7-0.9,3.6-1.3,5.5-0.7c0.9,0.3,1.7,0.8,2.5,1.3c0.8,0.6,1.5,1.1,2.2,1.7
		c1.8,1.5,3.3,3.2,4.6,5.2c0.9,1.4,3.3,0.1,2.3-1.4c-1.3-2-2.9-3.9-4.7-5.4c-1.6-1.4-3.4-2.9-5.5-3.7c-4.5-1.9-9.2,0.6-12.5,3.8
		c-1.6,1.5-2.9,3.4-3.8,5.4c-0.3,0.7-0.2,1.5,0.5,1.8C15,56.8,16,56.7,16.3,56L16.3,56z"/>
	<path d="M31,46.2c-0.7-3.2-0.6-6.4,0.4-9.5c-0.7,0.3-1.3,0.5-2,0.8c3,1.3,6.2,1.8,9.4,1.2c2.7-0.5,5.2-1.8,7.3-3.5
		c3.7-2.9,6.6-7.2,8.4-11.6c1.3-3,1.9-6.3,2.1-9.5c0-0.8-0.7-1.3-1.3-1.3c-3.9-0.2-7.8,0.4-11.4,1.7c-5.6,2-10.5,5.8-13.9,10.7
		c-1.3,1.8-2.3,3.8-3.1,5.8c0.9,0,1.7,0,2.6,0c-0.7-5.5-2.7-10.9-5.6-15.6C20.4,9.5,15.2,5,9,2.3C6.7,1.3,4.3,0.5,1.8,0
		C0.9-0.1,0.1,0.4,0.1,1.3C0,7.9,0.9,14.7,3.6,20.8c1.1,2.4,2.4,4.7,4.1,6.7c2.3,2.7,5.3,4.8,8.6,6.1c2.6,1,5.3,1.6,8.1,1.7
		c-0.4-0.3-0.9-0.7-1.3-1c1,3.7,1.1,7.6,0.2,11.4c-0.4,1.7,2.2,2.4,2.6,0.7c1-4.2,1-8.6-0.2-12.8c-0.2-0.6-0.7-1-1.3-1
		c-0.9,0-1.8-0.1-2.5-0.2c-1.3-0.2-2.5-0.5-3.8-0.9c-3.1-1-5.8-2.8-8-5.2C6.6,22.3,4.8,17.1,3.7,12c-0.7-3.5-1-7.1-1-10.6
		C2.2,1.8,1.6,2.2,1,2.6c4.8,1,9.5,2.9,13.4,6c2.6,2,4.9,4.5,6.7,7.3c0.7,1.1,1.4,2.3,2,3.5c0.2,0.4,0.4,0.9,0.6,1.3
		c0.1,0.2,0.2,0.4,0.3,0.6c0,0.1,0.1,0.2,0.1,0.3c0.1,0.3-0.1-0.2,0,0.1c1.3,3.2,2.2,6.5,2.7,9.9c0.1,0.6,0.8,1,1.3,1
		c0.6,0,1.1-0.4,1.3-1c0-0.1,0.1-0.2,0.1-0.2c0.1-0.2-0.1,0.3,0,0c0.1-0.1,0.1-0.3,0.2-0.4c0.2-0.4,0.4-0.8,0.6-1.2
		c0.5-0.9,1-1.8,1.5-2.6c1.4-2.1,3.1-4,5-5.6c3.8-3.3,8.9-5.3,13.7-5.9c1.6-0.2,3.2-0.3,4.8-0.2c-0.4-0.4-0.9-0.9-1.3-1.3
		c-0.1,2.5-0.6,5-1.5,7.4c-0.8,2.3-2,4.5-3.4,6.5c-2.2,3.2-5.4,6.5-9.5,7.7c-2.9,0.9-6.2,0.5-8.8-0.6c-0.8-0.3-1.7-0.1-2,0.8
		c-1.1,3.6-1.2,7.3-0.4,10.9C28.8,48.6,31.4,47.9,31,46.2L31,46.2z"/>
	<path d="M33.1,33.3c0.3-0.4,0.6-0.7,0.9-1c0.1-0.1,0.2-0.2,0.3-0.3c0.1-0.1,0.1-0.1,0.2-0.1c0.1-0.1-0.3,0.2,0,0
		c0.3-0.2,0.6-0.4,0.8-0.6c0.1,0,0.9-0.5,0.9-0.5c0,0-0.3,0.1,0,0c0.1,0,0.1-0.1,0.2-0.1c0.1-0.1,0.3-0.1,0.4-0.1
		c0.5-0.1,0.9-0.2,1.4-0.3c0.3,0,0.7-0.4,0.8-0.6c0.2-0.3,0.2-0.7,0.1-1c-0.2-0.8-0.9-1.1-1.7-0.9c-2.5,0.4-4.8,1.7-6.4,3.7
		c-0.2,0.3-0.4,0.6-0.4,1c0,0.3,0.1,0.7,0.4,1C31.7,33.7,32.7,33.9,33.1,33.3L33.1,33.3z"/>
	<path d="M25.3,28.9c-1.6-2.8-3.9-5.2-6.7-6.8c-0.6-0.3-1.5-0.2-1.8,0.5c-0.3,0.6-0.2,1.5,0.5,1.8c0.6,0.4,1.3,0.8,1.9,1.2
		c-0.2-0.1,0,0,0,0c0.1,0.1,0.2,0.1,0.2,0.2c0.2,0.1,0.3,0.3,0.5,0.4c0.3,0.3,0.6,0.6,0.9,0.9c0.3,0.3,0.5,0.6,0.7,0.8
		c0.1,0.1,0.1,0.2,0.2,0.2c0.2,0.2-0.1-0.1,0,0c0.1,0.1,0.2,0.3,0.3,0.4c0.4,0.5,0.7,1,1,1.5c0.3,0.6,1.2,0.9,1.8,0.5
		C25.5,30.4,25.7,29.6,25.3,28.9L25.3,28.9z"/>
</g>
</svg>
