<?xml version="1.0" encoding="utf-8"?>
<!-- Generator: Adobe Illustrator 24.3.0, SVG Export Plug-In . SVG Version: 6.00 Build 0)  -->
<svg version="1.1" id="Layer_1" xmlns="http://www.w3.org/2000/svg" xmlns:xlink="http://www.w3.org/1999/xlink" x="0px" y="0px"
	 viewBox="0 0 56.7 56.7" style="enable-background:new 0 0 56.7 56.7;" xml:space="preserve">
<g>
	<path d="M30.3,53.5L0,22.8L7.5,3.2h36.1l13.1,16.2L30.3,53.5z M5.3,21.7l24.6,24.9l21-27.1L41.4,7.8H10.6L5.3,21.7z"/>
	<polygon points="38.8,27.8 19.7,27.7 2.2,24.5 3.1,20 20.2,23.1 37.9,23.3 53,17.3 54.6,21.5 	"/>
	<rect x="29.1" y="13.2" transform="matrix(0.2893 -0.9572 0.9572 0.2893 13.2664 48.8046)" width="20.8" height="4.6"/>
	<rect x="12.7" y="13.7" transform="matrix(0.2893 -0.9572 0.9572 0.2893 1.0881 33.4803)" width="20.8" height="4.6"/>
	<rect x="31.2" y="5.6" transform="matrix(0.9572 -0.2893 0.2893 0.9572 -3.1993 10.3719)" width="4.6" height="20.8"/>
	<rect x="12.2" y="4.1" transform="matrix(0.877 -0.4805 0.4805 0.877 -5.6495 8.8658)" width="4.6" height="22.7"/>
</g>
</svg>
