<?xml version="1.0" encoding="utf-8"?>
<!-- Generator: Adobe Illustrator 25.1.0, SVG Export Plug-In . SVG Version: 6.00 Build 0)  -->
<svg version="1.1" id="Layer_1" xmlns="http://www.w3.org/2000/svg" xmlns:xlink="http://www.w3.org/1999/xlink" x="0px" y="0px"
	 viewBox="0 0 56.7 56.7" style="enable-background:new 0 0 56.7 56.7;" xml:space="preserve">
<g>
	<path d="M27.6,0.3C22.8,3.7,18.5,7.8,15,12.5c-2.7,3.7-5.2,7.9-6.9,12.2c-1.8,4.5-2.3,9.5-1.7,14.4c0.7,5.5,3.2,10.7,7.8,13.9
		c4.3,3,9.4,3.5,14.5,3.7c5.6,0.2,11.2-0.3,15.6-4.1c6.3-5.4,6.9-14.8,5.5-22.5c-0.9-5-3.4-9.4-6.1-13.7c-2.9-4.6-6.5-8.9-10.5-12.6
		c-1.2-1.1-2.5-2.2-3.8-3.3c-0.7-0.5-1.6-0.7-2.3,0c-0.6,0.6-0.7,1.7,0,2.3C31.7,6.3,35.8,10.5,39,15c1.4,1.9,2.6,3.9,3.8,5.9
		c1.3,2.3,2.5,4.6,3.3,7.2c0.4,1.3,0.6,2.6,0.8,3.9c0,0.1,0.1,0.7,0,0.1c0,0.2,0,0.3,0.1,0.5c0,0.4,0.1,0.7,0.1,1.1
		c0.1,0.8,0.1,1.7,0.1,2.5c0,0.9,0,1.9-0.1,2.8c0,0.3,0,0.5-0.1,0.8c0,0.1,0,0.2,0,0.3c-0.1,0.5,0.1-0.3,0,0.2
		c-0.1,0.5-0.2,1-0.3,1.6c-0.5,2.2-1.1,3.8-2.2,5.6c-0.6,0.9-1.2,1.6-2,2.4c-0.9,0.9-2,1.6-3.1,2.1c-2.3,1.1-4.7,1.4-7.1,1.5
		c-2.1,0.1-4.3,0-6.4-0.2c-2.2-0.2-4.3-0.5-6.6-1.3c-2.3-0.9-4.5-2.4-6.1-4.4c-1.5-1.8-2.4-3.9-3-6.2c-0.5-2-0.6-3.4-0.7-5.5
		c0-2.4,0.1-4.7,0.7-7c1.1-4.4,3.5-8.5,5.9-12.3c2.6-4,5.8-7.6,9.6-10.8c1.1-1,2.3-1.9,3.5-2.8c0.7-0.5,1-1.4,0.6-2.2
		C29.4,0.1,28.3-0.3,27.6,0.3z"/>
	<path d="M31.2,55.6c3.6-1.5,6.9-3.7,9.2-6.8c2.5-3.4,3.5-7.6,3.5-11.7c0-3.9-0.8-7.8-1.9-11.6c-1.2-3.9-2.7-7.7-4.5-11.3
		c-2.3-4.6-4.9-9-7.9-13.3c-0.4-0.6-1.2-0.9-1.8-0.5c-0.6,0.3-0.9,1.2-0.5,1.8c4.8,6.9,9,14.3,11.6,22.3c2.2,6.8,3.9,15,0.1,21.5
		c-0.2,0.4-0.5,0.8-0.7,1.1c-0.1,0.1-0.2,0.3-0.3,0.4c0,0-0.1,0.2,0,0c0.1-0.1-0.1,0.1-0.1,0.1c-0.5,0.6-1,1.2-1.6,1.7
		c-1.7,1.5-3.6,2.7-5.7,3.5c-0.7,0.3-1.1,0.9-0.9,1.6C29.7,55.3,30.5,55.9,31.2,55.6L31.2,55.6z"/>
	<path d="M26.8,53.9c-1-0.6-1.9-1.3-2.7-1.9c-1.2-1-2.3-2.1-3.4-3.2c-2.5-2.9-4.3-6.5-4.7-10.3c-0.3-2.3-0.1-4.6,0.2-6.8
		c0.3-2.4,0.7-4.7,1.3-7c0.9-3.4,2.2-6.6,3.7-9.7C23.4,10.5,26,6.4,29,2.6c0.4-0.6,0.6-1.3,0-1.9c-0.5-0.5-1.4-0.6-1.9,0
		c-5.1,6.5-9.3,14-11.7,21.9c-0.7,2.3-1.2,4.7-1.5,7.1c-0.4,2.5-0.7,5-0.6,7.6c0.2,4.4,1.9,8.6,4.6,12.1c2.1,2.7,4.7,5,7.6,6.8
		C27,57.1,28.3,54.8,26.8,53.9L26.8,53.9z"/>
	<path d="M31.6,55.7c3-7,4.6-14.5,4.4-22.1c-0.1-3.5-0.5-6.9-1-10.4c-0.4-3.1-1-6.1-1.6-9.1c-1-4.3-2.2-8.6-3.8-12.7
		c-0.2-0.7-0.9-1.1-1.6-0.9c-0.7,0.2-1.2,1-0.9,1.6c2.4,6.6,4.1,13.4,5.1,20.3c1.1,6.9,1.6,13.8,0.4,20.7c-0.7,3.9-1.8,7.8-3.4,11.3
		c-0.3,0.7-0.2,1.4,0.5,1.8C30.4,56.5,31.3,56.3,31.6,55.7L31.6,55.7z"/>
	<path d="M29.7,54.3c-2-3.4-3.6-6.9-4.6-10.7c-0.8-2.7-1.2-5.3-1.4-8c-0.2-3,0-6,0.4-9c0.6-4.1,1.3-8.2,2.1-12.3
		c0.8-4.1,1.8-8.1,3-12.1c0.5-1.7-2.1-2.4-2.6-0.7c-2.3,7.7-3.8,15.6-5,23.6c-0.5,3.2-0.8,6.4-0.7,9.7c0.1,2.9,0.5,5.7,1.2,8.5
		c1.1,4.4,2.9,8.5,5.2,12.4C28.2,57.1,30.6,55.8,29.7,54.3L29.7,54.3z"/>
</g>
</svg>
