<svg id="Layer_1" data-name="Layer 1" xmlns="http://www.w3.org/2000/svg" viewBox="0 0 56.69 56.69"><defs><style>.st0{fill:none;stroke:#000000;stroke-width:6;stroke-miterlimit:10;}</style></defs><path class="cls-1" d="M42,30.68a2.46,2.46,0,0,0-1.7-.1l-1.8.3c-1.2.2-2.4.3-3.7.4a101,101,0,0,1-16.5.2,1,1,0,0,0-.9.4,1.09,1.09,0,0,0-2,.6,17.12,17.12,0,0,0,2.1,6.5,27.76,27.76,0,0,0,3.5,5.4,7.16,7.16,0,0,0,5.9,2.3,19.24,19.24,0,0,0,6.3-1.4,16.07,16.07,0,0,0,8.4-8.6c.4-1,.7-2,1-3S43.11,31.28,42,30.68Zm-1.7,2.7a12.09,12.09,0,0,1-.5,1.8,18.19,18.19,0,0,1-1.6,3.1,14.71,14.71,0,0,1-5.1,4.5,14.13,14.13,0,0,1-7,1.6,4.23,4.23,0,0,1-3-1.2,17.13,17.13,0,0,1-2-2.7,22,22,0,0,1-3.1-6.8.75.75,0,0,0,.5.1,110.3,110.3,0,0,0,11.5.1c1.9-.1,3.8-.2,5.7-.4l2.9-.3c.5-.1.9-.1,1.4-.2a4.33,4.33,0,0,1,.5-.1A.76.76,0,0,0,40.31,33.38Z"/><path class="cls-1" d="M28.41,53.58a23.91,23.91,0,0,1-15.9-6.2A25.08,25.08,0,0,1,4,29.88H4C3.41,17,13.11,5.38,25.71,4a24.61,24.61,0,0,1,18.6,6.4,25.51,25.51,0,0,1,8.4,18.9c-.3,12.6-10.4,23.5-22.7,24.3ZM7.71,29.68a21.77,21.77,0,0,0,7.3,15,20.17,20.17,0,0,0,14.8,5.2c10.4-.7,19-10,19.2-20.7a21.22,21.22,0,0,0-7.2-16.1,20.27,20.27,0,0,0-15.7-5.4c-10.7,1.1-18.9,11-18.4,22Z"/><path class="cls-1" d="M43.61,20.68a4.09,4.09,0,0,0-2.5-3.3c-.1,0-.1-.1-.2-.1h-.2a4.75,4.75,0,0,0-4.5,1.3,4.07,4.07,0,0,0-1.4-1.2c-1.6-.8-4.1-.6-5,1.1-1,1.9.4,4.2,1.3,5.8a17.41,17.41,0,0,0,3.6,4.5,1.12,1.12,0,0,0,1.6,0c1.2-1,2.4-1.9,3.5-2.9a17.89,17.89,0,0,0,2.8-2.7A3.32,3.32,0,0,0,43.61,20.68Zm-2.3.3h0v.1h0c-.1.1-.1.2-.2.4h0c-.1.1-.1.2-.2.2-.2.2-.3.4-.5.5-1.5,1.4-3,2.8-4.6,4.1a17.09,17.09,0,0,1-2.1-2.6c-.3-.5-.6-1.1-.9-1.7a8.49,8.49,0,0,1-.9-2.2c0-.4.1-.6.4-.7a1.9,1.9,0,0,1,2.5,1h0v.2c0,.1.1.2.1.3s.1.5,0,.1c.1.5.3,1,.8,1.1a1.23,1.23,0,0,0,1.3-.5,4.36,4.36,0,0,1,1.6-1.7,2,2,0,0,1,1.7-.1,1.76,1.76,0,0,1,.9.8c.1.2.1.3.2.5-.1.1-.1.1-.1.2Z"/><path class="cls-1" d="M34.61,20.28Z"/><path class="cls-1" d="M25.81,20.38a3.69,3.69,0,0,0-4.4-3.3,3.89,3.89,0,0,0-2.2,1.8,4.05,4.05,0,0,0-.5.9,5.17,5.17,0,0,0-2.8-1.3,3.7,3.7,0,0,0-3.5,1.7,4,4,0,0,0,.5,4.2,11.17,11.17,0,0,0,2.8,2.5,31.82,31.82,0,0,0,3.2,1.6c.3.1.7.3,1,.4a1.37,1.37,0,0,0,1.5-.2,13.41,13.41,0,0,0,3-3.3A11.42,11.42,0,0,0,25.81,20.38Zm-2.3.7a9.42,9.42,0,0,1-3.2,5.5h0c-.2-.1-.3-.1-.5-.2a.35.35,0,0,1-.2-.1h-.1a15.93,15.93,0,0,1-2.9-1.5,6.06,6.06,0,0,1-2-1.9v-.1h0c0-.1-.1-.2-.1-.3a1.3,1.3,0,0,1-.2-1,.85.85,0,0,1,.3-.5,1,1,0,0,1,.3-.1H15c.1,0,.1,0,.2-.1a2,2,0,0,1,1.3.1,5.17,5.17,0,0,1,1.8,1.5.1.1,0,0,0,.1.1l.1.1h0l.1.1.1.1a1.26,1.26,0,0,0,1.2.1H20a1,1,0,0,0,.5-.7,8.65,8.65,0,0,1,.7-1.7c.2-.4.6-1,1-1.1a1.19,1.19,0,0,1,1.1.4A1.81,1.81,0,0,1,23.51,21.08Z"/><path class="cls-1" d="M14.81,20.88Z"/></svg>