<?xml version="1.0" encoding="utf-8"?>
<!-- Generator: Adobe Illustrator 24.3.0, SVG Export Plug-In . SVG Version: 6.00 Build 0)  -->
<svg version="1.1" id="Layer_1" xmlns="http://www.w3.org/2000/svg" xmlns:xlink="http://www.w3.org/1999/xlink" x="0px" y="0px"
	 viewBox="0 0 56.7 56.7" style="enable-background:new 0 0 56.7 56.7;" xml:space="preserve">
<g>
	<path d="M23.5,25.7c0,0.1,0,0.5-0.3,0.8c-0.3,0.4-0.8,0.4-0.8,0.4c-0.1,0-0.5,0-0.8-0.3c-0.3-0.3-0.3-0.8-0.3-0.9
		c0-0.1,0-0.7,0.5-1c0.3-0.2,0.5-0.2,0.6-0.2c0.1,0,0.4,0,0.7,0.2C23.4,25.1,23.5,25.6,23.5,25.7z"/>
	<path d="M33.6,26c0,0.1,0,0.5-0.3,0.8c-0.3,0.4-0.8,0.4-0.8,0.4c-0.1,0-0.5,0-0.8-0.3c-0.3-0.3-0.3-0.8-0.3-0.9c0-0.1,0-0.7,0.5-1
		c0.3-0.2,0.5-0.2,0.6-0.2c0.1,0,0.4,0,0.7,0.2C33.6,25.3,33.6,25.9,33.6,26z"/>
	<path d="M28.5,53.2c-5.8,0-11.4-2.2-15.9-6.2C7.5,42.5,4.4,36.1,4,29.5l0,0C3.4,16.5,13.1,4.9,25.7,3.6c6.6-0.7,13.4,1.6,18.6,6.4
		c5.4,5,8.5,11.9,8.4,18.9c-0.2,12.6-10.3,23.5-22.6,24.3C29.5,53.2,29,53.2,28.5,53.2z M7.7,29.3c0.3,5.6,2.9,11.1,7.3,15
		c4.2,3.7,9.5,5.6,14.8,5.2c10.4-0.7,19-10,19.2-20.7c0.1-6-2.5-11.9-7.2-16.1c-4.4-4-10.1-6-15.7-5.4C15.4,8.4,7.2,18.3,7.7,29.3
		L7.7,29.3z"/>
	<path d="M17.3,37.8c4.4-0.5,8.8,0.4,13.2,0.9c2,0.2,4.1,0.6,6.1,0.3c1.6-0.2,3.4-0.9,3.8-2.7c0.1-0.6-0.2-1.2-0.8-1.4
		c-0.6-0.2-1.3,0.2-1.4,0.8c-0.1,0.3,0,0.3-0.3,0.5c-0.1,0.1-0.4,0.2-0.5,0.3c-0.6,0.2-1.2,0.2-1.9,0.2c-2,0-4-0.3-6-0.5
		c-4-0.5-8-1.2-12.1-0.8c-0.6,0.1-1.2,0.5-1.2,1.2C16.1,37.2,16.7,37.9,17.3,37.8L17.3,37.8z"/>
	<path d="M18.1,23c0.5-0.2,0.9-0.3,1.4-0.4c0.2,0,0.4-0.1,0.6-0.1c0.1,0,0.3,0,0.4-0.1c0.1,0,0.4,0,0.1,0c0.9-0.1,1.9-0.1,2.8,0
		c0.6,0.1,1.2-0.6,1.2-1.2c0-0.7-0.5-1.1-1.2-1.2c-2-0.2-4,0.1-5.9,0.8c-0.6,0.2-1,0.8-0.8,1.4C16.9,22.8,17.5,23.2,18.1,23L18.1,23
		z"/>
	<path d="M31.5,21.6c2.1,0,4.2,0,6.3,0c0.6,0,1.2-0.5,1.2-1.2c0-0.6-0.5-1.2-1.2-1.2c-2.1,0-4.2,0-6.3,0c-0.6,0-1.2,0.5-1.2,1.2
		C30.3,21,30.8,21.6,31.5,21.6L31.5,21.6z"/>
</g>
</svg>
