<?xml version="1.0" encoding="utf-8"?>
<!-- Generator: Adobe Illustrator 24.3.0, SVG Export Plug-In . SVG Version: 6.00 Build 0)  -->
<svg version="1.1" id="Layer_1" xmlns="http://www.w3.org/2000/svg" xmlns:xlink="http://www.w3.org/1999/xlink" x="0px" y="0px"
	 viewBox="0 0 56.7 56.7" style="enable-background:new 0 0 56.7 56.7;" xml:space="preserve">
<g>
	<path d="M29.3,53.8c-5.8,0-11.4-2.2-16-6.2c-5.1-4.5-8.2-11-8.5-17.6l0,0C4.2,17,14,5.4,26.6,4.1c6.6-0.7,13.4,1.6,18.6,6.4
		c5.4,5,8.5,11.9,8.4,18.9C53.4,42,43.2,52.9,30.9,53.8C30.4,53.8,29.9,53.8,29.3,53.8z M8.5,29.8c0.3,5.7,2.9,11.1,7.3,15
		c4.2,3.7,9.5,5.6,14.8,5.2c10.4-0.7,19.1-10,19.2-20.7c0.1-6-2.5-11.9-7.2-16.2c-4.4-4.1-10.2-6-15.7-5.5C16.3,8.9,8,18.8,8.5,29.8
		L8.5,29.8z"/>
	<path d="M24.9,42.6c-0.1-1.9,0-3.8,0-5.7c0-0.5,0-0.9,0.1-1.4c0-0.3,0-0.6,0.2-0.8c0.2-0.3,0.5-0.5,0.7-0.6
		c0.2-0.2,0.5-0.4,0.8-0.5c1.3-0.2,1.5,2.4,1.7,3.2c0.3,1.9,0.2,3.7,0.3,5.6c0,1.5,2.3,1.5,2.3,0c0-1.7,0-3.5-0.2-5.2
		c-0.2-1.6-0.4-3.5-1.6-4.8c-0.6-0.6-1.3-1-2.1-1.1c-0.9-0.1-1.7,0.3-2.4,0.8c-0.7,0.5-1.3,1-1.7,1.7c-0.4,0.8-0.4,1.8-0.4,2.7
		c-0.1,2-0.1,4,0,6C22.6,44,24.9,44,24.9,42.6L24.9,42.6z"/>
	<path d="M33,26.4C33,26.4,33.1,26.4,33,26.4c0,0-0.1,0.1-0.2,0.1c0.4-0.2,0.9-0.3,1.3-0.4c-0.1,0-0.2,0-0.3,0
		c0.5-0.1,0.9-0.1,1.4,0c0.3,0,0.6-0.2,0.8-0.3c0.2-0.2,0.4-0.5,0.3-0.8c0-0.3-0.1-0.6-0.3-0.8c-0.1-0.1-0.2-0.1-0.2-0.2
		c-0.2-0.1-0.4-0.2-0.6-0.2c-0.6-0.1-1.1,0-1.7,0.1c-0.6,0.1-1.1,0.3-1.6,0.5c-0.2,0.1-0.5,0.4-0.5,0.7c-0.1,0.3,0,0.6,0.1,0.9
		c0.2,0.2,0.4,0.5,0.7,0.5c0.1,0,0.2,0,0.3,0C32.6,26.6,32.8,26.5,33,26.4L33,26.4z"/>
	<path d="M19,26.1c0.6-0.1,1.3-0.1,1.9,0c-0.1,0-0.2,0-0.3,0c0.5,0.1,1,0.2,1.5,0.4c0.3,0.1,0.7,0,0.9-0.1c0.2-0.1,0.5-0.4,0.5-0.7
		c0.1-0.3,0.1-0.6-0.1-0.9c-0.2-0.3-0.4-0.4-0.7-0.5c-1.2-0.4-2.5-0.6-3.8-0.4c-0.3,0-0.6,0.1-0.8,0.3c-0.2,0.2-0.4,0.5-0.3,0.8
		c0,0.3,0.1,0.6,0.3,0.8C18.4,25.9,18.7,26.1,19,26.1L19,26.1z"/>
	<path d="M19.8,18.9c1.3,1.1,2.9,1.9,4.5,2.2c0.3,0.1,0.6,0,0.9-0.1c0.2-0.1,0.5-0.4,0.5-0.7c0.1-0.6-0.2-1.3-0.8-1.4
		c-0.4-0.1-0.7-0.1-1-0.3c-0.2-0.1-0.3-0.1-0.5-0.2c0,0-0.1,0-0.1,0c-0.1-0.1,0,0,0.1,0c-0.1,0-0.2-0.1-0.3-0.1
		c-0.3-0.2-0.6-0.3-0.9-0.5c-0.2-0.1-0.3-0.2-0.4-0.3c0,0-0.2-0.1,0,0c0.1,0.1,0,0,0,0c-0.1-0.1-0.2-0.1-0.2-0.2
		c-0.2-0.2-0.5-0.3-0.8-0.3c-0.3,0-0.6,0.1-0.8,0.3C19.4,17.7,19.4,18.5,19.8,18.9L19.8,18.9z"/>
	<path d="M31.5,21.4c1.9,0.3,3.9,0,5.4-1.1c0.5-0.3,0.8-1,0.4-1.6c-0.3-0.5-1-0.8-1.6-0.4c-0.2,0.1-0.3,0.2-0.5,0.3
		c-0.1,0-0.4,0.3-0.5,0.2c0.2-0.1,0.2-0.1,0.1,0c0,0-0.1,0-0.1,0.1c-0.1,0-0.2,0.1-0.3,0.1c-0.2,0.1-0.3,0.1-0.5,0.1
		c-0.1,0-0.2,0-0.3,0.1c-0.3,0.1,0.3,0,0,0c-0.2,0-0.4,0-0.6,0c-0.2,0-0.4,0-0.5,0c-0.1,0-0.2-0.1-0.3,0c0.2,0,0.2,0,0.1,0
		c0,0-0.1,0-0.1,0c-0.6-0.1-1.3,0.2-1.4,0.8C30.5,20.5,30.8,21.3,31.5,21.4L31.5,21.4z"/>
</g>
</svg>
