<?xml version="1.0" encoding="utf-8"?>
<!-- Generator: Adobe Illustrator 25.1.0, SVG Export Plug-In . SVG Version: 6.00 Build 0)  -->
<svg version="1.1" id="Layer_1" xmlns="http://www.w3.org/2000/svg" xmlns:xlink="http://www.w3.org/1999/xlink" x="0px" y="0px"
	 viewBox="0 0 56.7 56.7" style="enable-background:new 0 0 56.7 56.7;" xml:space="preserve">
<g>
	<path d="M22.4,25.3c0,0.1,0,0.5-0.3,0.8c-0.3,0.4-0.8,0.4-0.8,0.4c-0.1,0-0.5,0-0.8-0.3s-0.3-0.8-0.3-0.9s0-0.7,0.5-1
		c0.3-0.2,0.5-0.2,0.6-0.2s0.4,0,0.7,0.2C22.4,24.6,22.4,25.2,22.4,25.3z"/>
	<path d="M30,25.4c0,0.1,0,0.5-0.3,0.8c-0.3,0.4-0.8,0.4-0.8,0.4c-0.1,0-0.5,0-0.8-0.3s-0.3-0.8-0.3-0.9s0-0.7,0.5-1
		c0.3-0.2,0.5-0.2,0.6-0.2s0.4,0,0.7,0.2C30,24.8,30,25.3,30,25.4z"/>
	<path d="M28.5,52.7c-5.8,0-11.4-2.2-15.9-6.2c-5.1-4.6-8.2-11-8.6-17.6l0,0C3.4,16,13.1,4.4,25.7,3c6.6-0.7,13.4,1.6,18.6,6.4
		c5.4,5,8.5,11.9,8.4,18.9c-0.2,12.6-10.3,23.5-22.6,24.3C29.5,52.7,29,52.7,28.5,52.7z M7.7,28.7c0.3,5.6,2.9,11.1,7.3,15
		c4.2,3.7,9.5,5.6,14.8,5.2c10.4-0.7,19-10,19.2-20.7c0.1-6-2.5-11.9-7.2-16.1c-4.4-4-10.2-6-15.7-5.4C15.4,7.8,7.2,17.7,7.7,28.7
		L7.7,28.7z"/>
	<path d="M43.9,22.2c-1,1-1.7,2.2-2.3,3.5c-0.3,0.8-0.6,1.6-0.4,2.5c0.1,0.7,0.5,1.4,1,1.8c1.2,1.1,2.9,1.1,4-0.1
		c0.8-0.8,1.2-1.9,1.1-3c-0.1-1.6-0.7-3.1-1.6-4.5c-0.3-0.5-1-0.8-1.6-0.4c-0.5,0.3-0.8,1-0.4,1.6c0.3,0.4,0.6,0.9,0.8,1.4
		c0,0,0.1,0.3,0.1,0.2c-0.1-0.1,0.1,0.2,0.1,0.2c0.1,0.3,0.2,0.6,0.2,0.8c0,0,0.1,0.4,0,0.2c0,0.2,0,0.3,0,0.5c0,0.1,0,0.3,0,0.4
		s0,0.1,0,0.2s0-0.2,0,0.1c0,0.1,0,0.1-0.1,0.2c0,0.1-0.1,0.1,0-0.1c0,0,0,0,0,0.1c-0.1,0.1-0.1,0.2-0.2,0.3c0,0.1-0.1,0.1-0.1,0.2
		c-0.1,0.1,0.2-0.2,0.1-0.1c0,0,0,0.1-0.1,0.1c-0.1,0.1-0.1,0.1-0.2,0.2c-0.1,0.1,0.1-0.1,0.1,0c0,0-0.1,0.1-0.2,0.1
		c-0.2,0.1,0.1,0,0,0c0,0-0.1,0-0.2,0c0,0,0.3,0,0.1,0c-0.1,0-0.1,0-0.2,0c0.1,0,0.2,0.1,0,0c0,0-0.2-0.1,0,0
		c0.1,0.1-0.1-0.1-0.1-0.1c-0.2-0.1,0,0,0,0l-0.1-0.1l-0.1-0.1c0,0,0.1,0.2,0,0.1s-0.1-0.2-0.2-0.3c0,0,0-0.1-0.1-0.1
		c0.1,0.3,0,0,0-0.1c0,0,0-0.2,0,0s0-0.1,0-0.1c0-0.1,0-0.1,0-0.2s0,0,0,0.1c0-0.1,0.1-0.3,0.1-0.4s0-0.1,0.1-0.2
		c0,0,0.1-0.3,0.1-0.2c0,0.1,0-0.1,0-0.1c0.1-0.1,0.1-0.2,0.2-0.3c0.1-0.1,0.1-0.3,0.2-0.4c0.1-0.2,0.2-0.4,0.4-0.7
		c0.2-0.3,0.3-0.5,0.5-0.8c0,0-0.1,0.1,0,0s0.1-0.2,0.2-0.2c0.1-0.2,0.3-0.3,0.4-0.5c0.4-0.4,0.5-1.2,0-1.6
		C45.1,21.8,44.4,21.7,43.9,22.2z"/>
	<path d="M31.8,21C31.9,21,31.9,21,31.8,21s-0.2,0-0.3,0c0.3,0,0.6,0.1,0.8,0.2c-0.1,0-0.2-0.1-0.3-0.1c0.3,0.1,0.5,0.3,0.8,0.5
		c-0.1-0.1-0.2-0.1-0.2-0.2c0.2,0.2,0.4,0.4,0.6,0.6c-0.1-0.1-0.1-0.2-0.2-0.2c0.2,0.2,0.3,0.5,0.4,0.7c0-0.1-0.1-0.2-0.1-0.3l0,0
		c0.1,0.3,0.2,0.5,0.5,0.7c0.2,0.1,0.6,0.2,0.9,0.1c0.3-0.1,0.5-0.3,0.7-0.5c0.1-0.3,0.2-0.6,0.1-0.9c-0.1-0.2-0.2-0.5-0.3-0.7
		s-0.3-0.4-0.4-0.6c-0.2-0.3-0.5-0.6-0.9-0.8c-0.3-0.2-0.7-0.4-1-0.6c-0.4-0.2-0.8-0.2-1.2-0.3c-0.3,0-0.6,0.2-0.8,0.3
		c-0.2,0.2-0.3,0.5-0.3,0.8s0.1,0.6,0.3,0.8c0.1,0.1,0.2,0.1,0.2,0.2C31.4,21,31.6,21,31.8,21L31.8,21z"/>
	<path d="M19.5,18.8c-1-0.1-2-0.2-2.9,0.3c-0.5,0.4-0.9,0.8-1.1,1.5c-0.1,0.4-0.2,0.9-0.2,1.4c0,0.3,0.1,0.6,0.3,0.8
		c0.2,0.2,0.5,0.3,0.8,0.3s0.6-0.1,0.8-0.3c0.2-0.2,0.3-0.5,0.3-0.8c0-0.2,0-0.4,0-0.5c0,0.1,0,0.2,0,0.3c0-0.2,0.1-0.4,0.2-0.6
		c0,0.1-0.1,0.2-0.1,0.3c0.1-0.1,0.1-0.2,0.2-0.4c-0.1,0.1-0.1,0.2-0.2,0.2c0.1-0.1,0.1-0.2,0.2-0.2c-0.1,0.1-0.2,0.1-0.2,0.2
		c0.1-0.1,0.2-0.1,0.3-0.2c-0.1,0-0.2,0.1-0.3,0.1c0.2-0.1,0.3-0.1,0.5-0.1c-0.1,0-0.2,0-0.3,0c0.4,0,0.8,0,1.1,0
		c-0.1,0-0.2,0-0.3,0h0.1c0.2,0,0.3,0.1,0.5,0c0.2,0,0.3-0.1,0.4-0.1c0.2-0.1,0.5-0.4,0.5-0.7c0.1-0.3,0.1-0.6-0.1-0.9
		C20,19.1,19.8,18.8,19.5,18.8L19.5,18.8z"/>
</g>
<path d="M18.9,40.5c3.3,0.3,6.6,0.5,9.9,0.4c2.6-0.1,6.9,0,7.6-3.3c0.1-0.6-0.2-1.2-0.8-1.4c-0.6-0.2-1.3,0.2-1.4,0.8
	c-0.2,1-1.3,1.3-2.2,1.4c-1.4,0.2-2.9,0.2-4.3,0.2c-2.9,0-5.9-0.1-8.8-0.4c-0.6-0.1-1.2,0.6-1.2,1.2C17.7,40,18.3,40.4,18.9,40.5
	L18.9,40.5z"/>
</svg>
