<svg width="141" height="44" viewBox="0 0 141 44" fill="none" xmlns="http://www.w3.org/2000/svg">
<path d="M110.647 12.0329C111.917 12.0329 112.884 11.0605 112.884 9.78426C112.884 8.50802 111.917 7.53564 110.647 7.53564C109.378 7.53564 108.41 8.50802 108.41 9.78426C108.41 10.9997 109.438 12.0329 110.647 12.0329Z" fill="#F1F0ED"/>
<path d="M28.9015 14.5854H25.9992C25.0923 14.5854 24.9714 14.707 23.9435 15.7401L14.6322 25.16V10.3921C14.6926 10.0274 14.3903 9.66279 14.0275 9.60202C13.9671 9.60202 13.9066 9.60202 13.8462 9.60202H9.37189C9.00911 9.54125 8.64633 9.84511 8.58587 10.2098C8.58587 10.2705 8.58587 10.3313 8.58587 10.3921V12.3976C8.5254 12.7622 8.82772 13.1269 9.1905 13.1877C9.25096 13.1877 9.31143 13.1877 9.37189 13.1877H11.0044V31.4197H9.37189C9.00911 31.3589 8.64633 31.6628 8.58587 32.0274C8.58587 32.0882 8.58587 32.149 8.58587 32.2098V34.2153C8.5254 34.5799 8.82772 34.9446 9.1905 35.0053C9.25096 35.0053 9.31143 35.0053 9.37189 35.0053H16.1438C16.5065 35.0661 16.8693 34.823 16.9298 34.4584C16.9298 34.3976 16.9298 34.3368 16.9298 34.2761V32.2098C16.9902 31.8451 16.6879 31.4805 16.3251 31.4197C16.2647 31.4197 16.2042 31.4197 16.1438 31.4197H14.5717V29.9004L18.0786 26.3147L24.2458 33.8506C25.0318 34.8838 25.0318 34.8838 26.2411 34.8838H28.9015C29.2643 34.9446 29.627 34.6407 29.627 34.2761C29.627 34.2153 29.627 34.1545 29.627 34.0937V32.2098C29.6875 31.8451 29.3852 31.4805 29.0224 31.4197C28.9619 31.4197 28.9015 31.4197 28.841 31.4197H26.6643L20.5576 23.823L26.1202 18.1103H28.841C29.2038 18.1711 29.5061 17.8672 29.5666 17.5026C29.5666 17.4418 29.5666 17.381 29.5666 17.381V15.3147C29.627 14.9501 29.3852 14.5854 28.9619 14.5247C29.0224 14.5854 28.9619 14.5854 28.9015 14.5854Z" fill="#F1F0ED"/>
<path d="M52.845 31.4197H51.2125V22.7291C51.2125 17.5633 47.9475 14.2208 42.9291 14.2208C40.8129 14.16 38.7571 14.8893 37.1851 16.3479V15.3755C37.2455 15.0108 36.9432 14.6462 36.5805 14.6462C36.52 14.6462 36.4595 14.6462 36.3991 14.6462H32.0457C31.6829 14.5854 31.3202 14.8285 31.2597 15.2539C31.2597 15.3147 31.2597 15.3755 31.2597 15.4363V17.4418C31.1992 17.8064 31.5015 18.1711 31.8643 18.2318C31.9248 18.2318 31.9853 18.2318 32.0457 18.2318H33.6782V31.4805H32.0457C31.6829 31.4197 31.3202 31.7236 31.2597 32.0882C31.2597 32.149 31.2597 32.2097 31.2597 32.2705V34.276C31.2597 34.6407 31.5015 35.0053 31.9248 35.0053C31.9853 35.0053 31.9853 35.0053 32.0457 35.0053H38.8176C39.1804 35.0661 39.5431 34.7622 39.6036 34.3976C39.6036 34.3368 39.6036 34.276 39.6036 34.276V32.2097C39.6641 31.8451 39.3618 31.4805 38.999 31.4197C38.9385 31.4197 38.878 31.4197 38.8176 31.4197H37.2455V23.3368C37.2455 19.9943 39.5431 17.6241 42.7477 17.6241C45.9522 17.6241 47.7057 19.6296 47.7057 23.0937V31.4197H46.0732C45.7104 31.3589 45.3476 31.6628 45.3476 32.0882C45.3476 32.149 45.3476 32.2097 45.3476 32.2705V34.276C45.2871 34.6407 45.5895 35.0053 45.9522 35.0661C46.0127 35.0661 46.0732 35.0661 46.1336 35.0661H52.9055C53.2683 35.1269 53.6311 34.823 53.6915 34.4584C53.6915 34.3976 53.6915 34.3368 53.6915 34.276V32.2097C53.752 31.8451 53.4497 31.4805 53.0869 31.4197C52.966 31.4197 52.9055 31.4197 52.845 31.4197Z" fill="#F1F0ED"/>
<path d="M63.9099 14.2207C58.1659 14.2207 53.5707 18.9003 53.5707 24.613C53.5707 24.6737 53.5707 24.7345 53.5707 24.8561C53.4498 30.5688 57.9845 35.2483 63.6681 35.3699C63.7285 35.3699 63.789 35.3699 63.8495 35.3699C69.5934 35.3699 74.2491 30.6903 74.2491 24.9776C74.2491 24.9168 74.2491 24.8561 74.2491 24.7953C74.37 19.0826 69.8353 14.403 64.1518 14.2815C64.0308 14.2207 63.9704 14.2207 63.9099 14.2207ZM63.9099 31.9058C60.1612 31.9058 57.259 28.7456 57.259 24.7345C57.259 20.7235 60.1007 17.6848 63.8495 17.6848C67.5982 17.6848 70.5609 20.845 70.5609 24.8561C70.5609 28.8671 67.6586 31.9058 63.9099 31.9058Z" fill="#F1F0ED"/>
<path d="M104.299 14.5854H97.3459C96.9831 14.5246 96.6204 14.7677 96.5599 15.1931C96.5599 15.2539 96.5599 15.3147 96.5599 15.3755V17.381C96.4994 17.7456 96.8018 18.1103 97.1645 18.171C97.225 18.171 97.2855 18.171 97.3459 18.171H98.918L95.5925 28.928L90.8764 15.1931C90.7554 14.8285 90.3927 14.5854 90.0299 14.5854H88.6392C88.2765 14.5854 87.9137 14.8285 87.7927 15.1931L83.1371 28.928L79.8116 18.1103H81.3837C81.7464 18.171 82.1092 17.8672 82.1697 17.5025C82.1697 17.4418 82.1697 17.381 82.1697 17.3202V15.3147C82.2301 14.9501 81.9278 14.5854 81.565 14.5854C81.5046 14.5854 81.4441 14.5854 81.3837 14.5854H74.3699C74.0072 14.5246 73.6444 14.8285 73.5839 15.1931C73.5839 15.2539 73.5839 15.3147 73.5839 15.3147V17.3202C73.5235 17.6849 73.8258 18.0495 74.1885 18.1103C74.249 18.1103 74.3095 18.1103 74.3095 18.1103H75.942L81.4441 34.3976C81.565 34.7622 81.9278 35.0053 82.2906 35.0053H83.8022C84.165 35.0053 84.5277 34.7622 84.6487 34.3976L89.2439 21.0274L93.8391 34.3976C93.96 34.7622 94.3228 35.0053 94.6855 35.0053H96.1971C96.5599 35.0053 96.9227 34.7622 97.0436 34.3976L102.606 18.1103H104.239C104.601 18.171 104.964 17.8672 105.025 17.5025C105.025 17.4418 105.025 17.381 105.025 17.381V15.3755C105.085 15.0108 104.783 14.6462 104.42 14.6462C104.42 14.5854 104.36 14.5854 104.299 14.5854Z" fill="#F1F0ED"/>
<path d="M114.155 31.4194H112.522V15.3752C112.583 15.0106 112.28 14.646 111.917 14.646C111.857 14.646 111.797 14.646 111.797 14.646H107.322C106.959 14.5852 106.597 14.8891 106.597 15.2537C106.597 15.3145 106.597 15.3752 106.597 15.436V17.4415C106.536 17.8062 106.839 18.1708 107.201 18.2316C107.262 18.2316 107.322 18.2316 107.383 18.2316H109.015V31.4802H106.053C105.69 31.4194 105.327 31.7233 105.267 32.088C105.267 32.1487 105.267 32.2095 105.267 32.2703V34.2758C105.206 34.6404 105.508 35.0051 105.871 35.0659C105.932 35.0659 105.992 35.0659 106.053 35.0659H114.155C114.517 35.1266 114.88 34.8228 114.941 34.4581C114.941 34.3973 114.941 34.3366 114.941 34.2758V32.2095C115.001 31.8449 114.699 31.4802 114.336 31.4194C114.276 31.4194 114.215 31.4194 114.155 31.4194Z" fill="#F1F0ED"/>
<path d="M129.875 24.6128H127.94C127.577 24.5521 127.214 24.8559 127.154 25.2206C127.154 25.2814 127.154 25.3421 127.154 25.4029V29.1709C127.214 30.5686 126.126 31.7841 124.735 31.8449C122.8 31.8449 121.954 31.0548 121.954 29.1101V18.1709H126.67C127.033 18.2316 127.396 17.9278 127.456 17.5631C127.456 17.5023 127.456 17.4416 127.456 17.3808V15.3753C127.516 15.0106 127.214 14.646 126.851 14.646C126.791 14.646 126.73 14.646 126.73 14.646H122.014V10.4526C122.075 10.088 121.833 9.72334 121.41 9.66257C121.349 9.66257 121.289 9.66257 121.228 9.66257H119.173C118.81 9.60179 118.447 9.90566 118.387 10.2703C118.387 10.3311 118.387 10.3918 118.387 10.4526V14.7068H116.21C115.847 14.646 115.484 14.9499 115.484 15.3145C115.484 15.3753 115.484 15.3753 115.484 15.436V17.4416C115.424 17.8062 115.726 18.1709 116.089 18.2316C116.149 18.2316 116.21 18.2316 116.27 18.2316H118.447V29.3532C118.447 32.9996 120.805 35.3697 124.493 35.3697C128.302 35.3697 130.721 33.0604 130.721 29.5355V25.4637C130.781 25.099 130.479 24.7344 130.116 24.6736C130.056 24.6128 129.995 24.6128 129.875 24.6128Z" fill="#F1F0ED"/>
</svg>
